<svg width="49" height="49" viewBox="0 0 49 49" fill="none" xmlns="http://www.w3.org/2000/svg">
<path d="M24.4089 48.8177C37.8895 48.8177 48.8178 37.8895 48.8178 24.4088C48.8178 10.9282 37.8895 -3.05176e-05 24.4089 -3.05176e-05C10.9282 -3.05176e-05 0 10.9282 0 24.4088C0 37.8895 10.9282 48.8177 24.4089 48.8177Z" fill="url(#paint0_linear)"/>
<path d="M24.4089 44.5952C35.5575 44.5952 44.5952 35.5575 44.5952 24.4089C44.5952 13.2602 35.5575 4.2225 24.4089 4.2225C13.2603 4.2225 4.22253 13.2602 4.22253 24.4089C4.22253 35.5575 13.2603 44.5952 24.4089 44.5952Z" fill="url(#paint1_linear)"/>
<path d="M24.4089 41.0051C33.5747 41.0051 41.0051 33.5747 41.0051 24.4088C41.0051 15.243 33.5747 7.81256 24.4089 7.81256C15.243 7.81256 7.81264 15.243 7.81264 24.4088C7.81264 33.5747 15.243 41.0051 24.4089 41.0051Z" fill="url(#paint2_linear)"/>
<path d="M16.0022 17.6566C16.3343 17.5544 16.8965 17.5033 17.6822 17.5033C18.7618 17.4714 19.6498 17.433 20.3461 17.3819C21.0424 17.3308 21.5981 17.2733 22.0197 17.2158C22.6138 17.1392 23.0035 17.0689 23.1824 17.005C23.3612 16.9412 23.4954 16.8964 23.5912 16.8837C23.604 16.8837 23.6232 16.8837 23.6423 16.8837C23.7062 16.8837 23.7573 16.9348 23.802 17.0306C23.8403 17.1264 23.8595 17.235 23.8595 17.3564C23.8595 17.5033 23.8403 17.6758 23.802 17.8674C23.7637 18.0591 23.719 18.2507 23.6679 18.4487C23.6359 18.551 23.6104 18.6532 23.5848 18.749C23.5593 18.8448 23.5337 18.947 23.5018 19.0492C23.4507 19.1514 23.4123 19.26 23.3804 19.3622C23.3485 19.4645 23.3165 19.5539 23.2846 19.6305C23.061 20.2119 22.3966 20.5632 21.2979 20.6974C20.1991 20.8315 19.011 20.8954 17.7397 20.8954C17.6247 20.8954 17.5098 20.8954 17.3884 20.8954C17.267 20.8954 17.1392 20.8954 17.0115 20.8954C16.8965 20.8954 16.7943 20.9593 16.6985 21.087C16.6026 21.2148 16.5388 21.3553 16.5068 21.5214C16.4877 21.5534 16.4813 21.5789 16.4813 21.6109C16.4813 21.6428 16.4813 21.6683 16.4813 21.7003C16.4813 21.7131 16.4813 21.7258 16.4813 21.7322C16.4813 21.7386 16.4813 21.7514 16.4813 21.7642C16.494 21.9111 16.5515 22.0452 16.6537 22.1666C16.7496 22.288 16.8709 22.3455 17.0179 22.3455C17.1009 22.3455 17.184 22.3391 17.2734 22.3327C17.3628 22.3263 17.4459 22.3199 17.5289 22.3199C17.612 22.3199 17.695 22.3135 17.7844 22.3072C17.8739 22.3008 17.9633 22.2944 18.0655 22.2944C19.4517 22.2944 20.6271 22.5818 21.5854 23.1504C22.5436 23.7189 23.061 24.5813 23.1249 25.7184V25.9611C23.1249 26.255 23.0802 26.5744 22.9907 26.9194C22.9013 27.2579 22.7608 27.6093 22.5691 27.967C22.1667 28.7208 21.5151 29.4107 20.6207 30.024C19.7264 30.6372 18.5127 30.9502 16.9795 30.9502H16.6921C15.5167 30.9183 14.6287 30.765 14.041 30.4839C13.4533 30.2028 13.0509 29.8898 12.8401 29.5512C12.7762 29.4299 12.7251 29.3213 12.6931 29.2191C12.6612 29.1169 12.642 29.0146 12.642 28.906C12.642 28.74 12.6804 28.593 12.7634 28.4525C12.8464 28.312 12.9231 28.2161 13.0061 28.1714C13.0381 28.1395 13.0636 28.1203 13.0892 28.1139C13.1147 28.1075 13.1403 28.1011 13.1722 28.1011C13.3511 28.1011 13.5364 28.1395 13.7408 28.2097C13.9452 28.2864 14.156 28.3631 14.3796 28.4525C14.6032 28.5419 14.8395 28.625 15.0823 28.6952C15.325 28.7719 15.5805 28.8038 15.8552 28.8038C15.9063 28.8038 15.9574 28.7974 16.0277 28.7911C16.0916 28.7847 16.1555 28.7783 16.2194 28.7783C16.2513 28.7783 16.2896 28.7719 16.3407 28.7655C16.3918 28.7591 16.4302 28.7463 16.4621 28.7336C16.8837 28.6441 17.1967 28.4908 17.4075 28.2672C17.6183 28.0437 17.7461 27.8073 17.7972 27.5582C17.7972 27.5262 17.7972 27.5007 17.7972 27.4687C17.7972 27.4368 17.7972 27.4112 17.7972 27.3793C17.7972 27.3474 17.7972 27.3218 17.7972 27.2899C17.7972 27.2579 17.7972 27.2324 17.7972 27.2004C17.7461 26.8299 17.5609 26.4913 17.2287 26.1783C16.8965 25.8653 16.4685 25.712 15.9319 25.712C15.8361 25.712 15.7403 25.7184 15.6444 25.7248C15.5486 25.7312 15.44 25.7376 15.3314 25.7376C15.3122 25.7376 15.2931 25.7376 15.2611 25.7376C15.2292 25.7376 15.1973 25.7376 15.1653 25.7376C15.0376 25.7503 14.9098 25.7631 14.7756 25.7695C14.6479 25.7759 14.5329 25.7823 14.4371 25.7823C14.1113 25.7823 13.8302 25.7248 13.5747 25.6162C13.3256 25.5076 13.1978 25.284 13.1978 24.9582C13.1978 24.9007 13.2042 24.8304 13.2233 24.7602C13.2361 24.6835 13.2617 24.6069 13.2936 24.5174C13.2936 24.4855 13.2936 24.4663 13.2936 24.4535C13.3064 24.4216 13.3192 24.3961 13.3319 24.3641C13.3383 24.3322 13.3447 24.3066 13.3447 24.2747L15.2548 18.289C15.4145 17.9696 15.67 17.7588 16.0022 17.6566Z" fill="#20A049"/>
<path d="M30.2987 19.7455C30.2987 19.5219 30.369 19.3686 30.5159 19.2792C30.6628 19.1898 30.995 19.1451 31.506 19.1451C32.1193 19.1451 32.5026 19.1898 32.6559 19.2792C32.8092 19.3686 32.8859 19.5347 32.8859 19.7711V22.3072C32.8859 22.4732 32.9306 22.5946 33.02 22.6713C33.1094 22.7543 33.2436 22.7926 33.4225 22.7926H35.6966C36.2141 22.8054 36.5782 22.8565 36.789 22.946C36.9998 23.0354 37.102 23.3548 37.102 23.917C37.102 24.5621 36.987 24.9454 36.7507 25.054C36.5143 25.1626 36.2204 25.2201 35.8691 25.2201H33.4225C33.3075 25.2329 33.2117 25.2712 33.135 25.3287C33.052 25.3862 32.9945 25.4565 32.9625 25.5268C32.9306 25.5587 32.9114 25.5906 32.905 25.629C32.8986 25.6673 32.8923 25.6992 32.8923 25.7312V28.0692C32.8923 28.4844 32.7964 28.7272 32.6112 28.7911C32.4259 28.8549 32.1129 28.8933 31.6785 28.8933C31.1611 28.8933 30.8033 28.8613 30.5989 28.7911C30.3945 28.7208 30.2987 28.4844 30.2987 28.0692V25.5268C30.2987 25.4565 30.254 25.3862 30.1645 25.3159C30.0751 25.2521 29.9282 25.2137 29.7174 25.2137H26.9577C26.6 25.2265 26.37 25.1626 26.255 25.0093C26.14 24.8624 26.0826 24.4919 26.0826 23.9106C26.0826 23.342 26.172 23.0098 26.3509 22.9204C26.5297 22.831 26.7852 22.7863 27.1238 22.7863H29.7174C29.8643 22.799 29.9729 22.7799 30.0559 22.716C30.139 22.6585 30.2029 22.5946 30.2476 22.5371C30.2604 22.4924 30.2731 22.4541 30.2859 22.4221C30.2923 22.3902 30.2987 22.3646 30.2987 22.3327V20.8507V19.7455Z" fill="#20A049"/>
<defs>
<linearGradient id="paint0_linear" x1="24.4083" y1="1.36682" x2="24.4083" y2="53.8654" gradientUnits="userSpaceOnUse">
<stop stop-color="#F5F6F6"/>
<stop offset="0.6201" stop-color="#E3E5E6"/>
<stop offset="1" stop-color="#DADBDC"/>
</linearGradient>
<linearGradient id="paint1_linear" x1="24.4083" y1="4.02817" x2="24.4083" y2="42.5085" gradientUnits="userSpaceOnUse">
<stop stop-color="#47B649"/>
<stop offset="1" stop-color="#13A24A"/>
</linearGradient>
<linearGradient id="paint2_linear" x1="24.4084" y1="8.74065" x2="24.4084" y2="44.437" gradientUnits="userSpaceOnUse">
<stop stop-color="#F5F6F6"/>
<stop offset="0.6201" stop-color="#E3E5E6"/>
<stop offset="1" stop-color="#DADBDC"/>
</linearGradient>
</defs>
</svg>
