<svg width="81" height="71" viewBox="0 0 81 71" fill="none" xmlns="http://www.w3.org/2000/svg">
<path d="M4.5 23.3C3.4 25.1 2.5 26.9 1.8 28.8C1.6 29.2 2.3 29.5 2.5 29.1C3.3 27.5 4 25.8 4.7 24.2C4.9 23.7 4.2 23.3 4 23.8C3.1 25.8 2.3 27.9 1.7 30C1.6 30.4 2.2 30.7 2.4 30.3C2.7 29.6 4.6 25.1 4.9 25.4C5.1 25.5 2.6 36.1 4.8 29.2C5.2 27.9 5.6 26.9 5.8 25.5C5.6 26.9 4.7 28.4 4.7 29.7C4.6 31.7 4.9 30.3 5.4 29.3C6.1 28 6.4 26.2 6.8 24.7C6.9 24.2 6.2 24 6 24.5C5.3 26.3 4.8 28.1 4.3 29.9C4.2 30.4 4.9 30.6 5.1 30.1C5.5 28.7 6 27.3 6.5 25.9C6 27.4 5.5 28.8 5 30.3C4.6 31.7 3.5 35.8 4.5 29.7C4.7 28.2 5.2 26.7 5.6 25.2C5.7 24.8 5.1 24.5 4.9 24.9C4.7 25.4 3.9 27.8 4.8 26.1C5.1 25.6 5.5 23.3 5.1 23.9C4.6 24.7 4.4 26.6 4.1 27.6C3.6 28.9 2.8 30.4 3.1 31.1C2.9 30.7 6 23 7.1 22.9C7 22.9 3.7 29.6 4.7 29.9C4.7 29.9 7.6 20.9 6 26.1C5.7 27 5 28.6 5.5 29.1C6 29.6 6.8 26.3 6.8 26.2C8.9 20.6 6.7 26 6.4 28C6.2 29.3 5.9 30.2 6.9 28.5C7.6 27.3 7.6 25.5 8.3 24.3C9 23.1 8.4 24.4 8.2 25.1C7.9 26.6 7.4 28.2 7 29.7C6.4 31.6 4.5 37.7 6.4 30.8C6.7 29.8 8.3 27.1 8.1 26.3C8.3 26.9 6.8 30.8 6.6 31.4C6.3 32.2 5.9 34.6 5.4 35.2C5.5 35.1 6.5 30.4 6.8 29.7C9 24.5 7.4 29.6 6.8 31.8C6.7 32.1 5.6 36.2 5.5 36.1C6.3 36.2 6.2 34.8 6.5 33.9C7 32 7.8 30.3 8.5 28.5C8.8 27.9 9.4 25.8 8.8 27.8C8 30.7 6.7 33.5 5.9 36.4C5.7 36.9 6.5 37.1 6.7 36.6C7.4 34.4 8.3 27.7 10.2 26.4C9.5 26.8 8.9 31.8 8.6 32.8C8.4 33.4 6.9 38.5 7.4 36.8C8 35.1 8.2 33.3 8.7 31.6C9 30.3 11.1 26.5 10.9 26.1C11.3 27 9.9 30.6 9.7 31.6C9.1 34 8.6 36.3 8.1 38.7C8 39.2 8.7 39.4 8.9 38.9C9.5 37.2 12.7 28.1 11.7 27.6C12 27.7 9.7 37.1 9.6 37.5C9.6 37.2 11.3 29 11.9 29.4C11.9 29.4 10.6 34.1 10.5 34.4C10.1 36 9.4 41.2 10.5 35.5C10.6 35.1 11.8 30 12 30.1C12.4 30.2 11.3 35.2 11.1 35.8C10.7 37.2 9.6 40.4 11 37.1C11.2 35.6 11.7 34.2 12.3 32.8C12.2 33.9 12 35.1 11.7 36.2C11.6 36.9 9.9 41.1 11.9 38.4C12.7 37.3 13.7 33.1 13.7 33C13.6 35.4 11.9 37.7 11.9 40.1C11.9 41.6 13.2 36.4 13.2 36.3C14.3 36.8 11.7 41.8 13.7 38.2C13.9 37.3 14.2 36.5 14.5 35.6C14.4 37.2 14.1 38.7 13.7 40.2C15.2 40.8 14.3 38.4 14.9 37C17.5 31.3 15.4 40.9 15.7 41C17 41.7 17.5 37.3 17.7 36.4C18.2 34.9 19.6 30 18.3 36.4C17.9 38.2 16.9 41.3 18.6 37.7C19.1 36.6 20.4 30.3 19.2 36.7C19.1 37.5 17.8 39.8 19.1 39.5C19.8 39.3 19.5 33.4 20.4 33.3C19.5 33.4 19.5 39 18.5 39.3C19.8 38.9 22.6 27.2 20 37.6C19.8 38.4 18.7 42.7 20 40C20.4 39.1 21 33.9 21.2 37.5C20.3 40.6 20.4 41.3 21.7 39.6C22 38.3 22.4 37 23 35.8C22.8 35.9 21.9 41.1 21.7 42C21.6 42.5 22.4 42.7 22.5 42.2C22.7 41.4 23.4 35.9 24.2 35.8C23.9 35.9 23.7 42.7 23.7 43.3C23.7 43.8 24.4 43.8 24.5 43.3C24.4 44.2 25.9 36.5 25.9 36.6C25.2 35.5 24.7 39.4 24.7 39.4C24.7 40.6 24.2 41.9 25.3 40.2C25.5 39.4 25.7 38.5 26 37.7C25.5 38.6 25.6 39.2 26.2 39.5C26.1 39.6 26.7 38.3 27.1 37.7C28.1 36.2 24.8 45.5 27 41.6C27.5 40.8 28.2 36.3 27.5 40.1C27.2 41.6 26.9 43.2 26.6 44.7C26.5 45.2 27.2 45.4 27.4 44.9C27.8 43.6 28.9 41.3 28.5 40.1C28.9 41.2 27.2 47.1 28.7 42.8C29 41.6 29.2 40.4 29.5 39.3C28.8 40.3 28.4 41.4 28.3 42.6C28 45.9 28.6 44.3 29.1 42.3C30.9 35.8 28.5 45.9 28.1 46.9C29.3 43.9 27.3 47.4 27.2 48.7C28.1 48.8 28.4 48.2 28 46.9C28.1 45.8 28.2 44.7 28.4 43.5C28.4 43.1 27.7 43 27.6 43.4C27.3 45.2 25 49.7 25.5 51.4C25.1 50.1 27.3 48.8 26.3 47.5C26.7 48 25.7 51.4 25.5 51.8C25.7 51.3 26.4 48.6 24.9 51.5C24.3 52.6 24.2 54.1 23.8 55.2C22.7 58.6 23.4 55.6 23.7 53.8C23.9 52.6 24 51.4 24.2 50.2C24.3 49.8 23.5 49.7 23.4 50.1C22.9 52.2 22.3 54.4 21.9 56.5C21.5 58.4 21.7 58.2 22.2 56.5C23 53.9 22.3 55.3 21.7 57C21.5 57.7 21.7 59.4 22 56.5C22.2 54.9 22.2 54.4 21.8 55.7C21.6 56.7 21.6 59.5 21.5 59.7C21.8 58.6 21.9 56.9 22 55.7C22 55.2 21.3 55.2 21.2 55.7C21.1 56.9 19.9 61.3 20.8 61.7C19.7 61.2 22.4 58.8 20.5 58.6C21 58.6 19 62.3 20.7 62C21.1 61.9 20.9 58.4 20.7 59.7C20.6 60.7 20.5 62 20.6 63.1C21 68.3 20.6 57.3 21.7 62.1C21.8 62.6 21.6 65.3 22.3 65.5C22.1 65.5 23 61.6 23.2 61C23 61.5 21.7 65.6 22.9 65.6C22.9 65.6 24.5 56 23.1 63.9C22.9 65.3 22.3 69.8 22.8 65.9C23 64.1 22.9 61.6 23.9 59.9C23.9 60 23 65 23.3 66.1C23.2 65.8 24.5 61.6 24.2 61.1C24.8 62.2 23.3 65.3 24.4 66.2C24.6 66.4 26 62.5 25.6 61.8C25.2 61.1 23.7 66.3 25.2 64.3C25.9 63.4 26 59.1 25.9 61.3C25.8 63.5 25.7 65.6 25.5 67.8C25.4 68.3 26.2 68.3 26.3 67.8C26.7 64.8 26.9 61.9 26.5 58.9C26.5 58.5 25.8 58.3 25.7 58.8C25.2 61.4 24.8 63.9 24.5 66.5C24.4 67 25.2 67 25.3 66.5C25.6 64.4 25.7 62.3 25.8 60.1C25.8 59.6 25.1 59.6 25 60.1C24.7 63.2 23.9 66.1 23.5 69.2C23.4 69.6 24.2 69.7 24.3 69.3C25.1 66.1 24.9 62.9 24.8 59.6C24.8 59.1 24.2 59.1 24 59.5C23 62.1 22.6 64.7 22.8 67.5C22.8 67.9 23.5 68.1 23.6 67.6C24.2 64.3 24.9 61.2 24.8 57.9C24.8 57.5 24.2 57.3 24.1 57.7C22.3 61.1 21.9 65 22.1 68.7C22.1 69.1 22.8 69.3 22.9 68.8C23.7 65.5 24.4 62.5 24.4 59.1C24.4 58.6 23.8 58.6 23.6 59C22.7 61.6 22.4 64.2 22.1 67C22.1 67.4 22.8 67.5 22.9 67.1C23.4 64.5 24 62 23.9 59.4C23.9 58.9 23.3 58.9 23.1 59.3C22.1 61.9 21.7 64.3 21.6 67C21.6 67.4 22.3 67.6 22.4 67.1C22.8 64.2 22.8 61.6 22.2 58.8C22.1 58.4 21.6 58.5 21.4 58.8C20.5 61.3 20.2 63.6 20.4 66.3C20.4 66.7 21.1 66.9 21.2 66.4C21.6 63.6 21.7 60.8 21.7 57.9C21.7 57.4 21.1 57.4 20.9 57.8C20.3 59.6 20.1 61.4 19.9 63.3C19.8 63.7 20.6 63.8 20.7 63.4C21.2 61.2 21.4 59.1 21.7 56.9C21.8 56.4 21 56.4 20.9 56.8C20.3 59 20.2 61 20.1 63.3C20.1 63.7 20.8 63.9 20.9 63.4C21.1 62.4 22.5 58.1 22 57.3C21.3 56.2 21.1 61.5 21.1 61.6C21.1 62 21.8 62.2 21.9 61.7C22.4 58.8 22.9 56.2 22.7 53.2C22.7 52.8 22 52.6 21.9 53.1C21.5 55.3 21.2 57.4 21.1 59.6C21.1 60.1 21.8 60.1 21.9 59.7C22.6 57.4 23 55.3 23.1 53C23.1 52.6 22.4 52.5 22.3 52.9C21.7 55.2 21.2 57.5 21.1 59.9C21.1 60.4 21.8 60.4 21.9 60C22.1 59.2 24.6 52.7 24 52C23.7 51.7 22.6 58.6 22.6 58.9C22.6 59.3 23.2 59.5 23.3 59.1C24.8 55.8 25.9 52.4 26.3 48.8C26.4 48.3 25.6 48.3 25.5 48.7C25 50.7 24.6 52.7 24.5 54.7C24.5 55.1 25.1 55.3 25.2 54.9C26.6 52.1 27.1 49.2 27.2 46.1C27.2 45.6 26.5 45.6 26.4 46C25.7 48.4 25.3 50.7 25.2 53.2C25.2 53.7 25.9 53.7 26 53.3C26.5 51.1 28 48.3 28 46.1C28 44.8 27.8 45.1 27.4 46.1C27 47.3 27.1 49.3 26.9 50.5C26.9 51 27.6 51 27.7 50.6C28.2 48.4 28.8 46.3 28.9 44.1C28.9 43.7 28.2 43.5 28.1 44C27.9 45.4 27.6 46.8 27.4 48.2C27.3 48.7 28 48.9 28.2 48.4C29.6 45.1 30.9 42 30.4 38.5C30.3 38.1 29.8 37.9 29.6 38.4C28.7 40.9 28.1 43.5 27.4 46C27.3 46.5 28 46.7 28.2 46.2C29.1 43.3 29.6 40.5 29.9 37.5C29.9 37.1 29.2 37 29.1 37.4C28.5 40.4 27.8 43.3 27.4 46.4C27.3 46.9 28 46.9 28.2 46.5C29.1 43.9 29.5 41.6 29.2 38.8C29.1 38.4 28.5 38.2 28.4 38.7C28.2 39.7 27.7 40.8 27.6 41.8C27.5 42.6 27 44.6 27.9 42.8C28.6 41.4 28.6 39 28.7 37.3C28.7 36.8 28.1 36.8 27.9 37.2C26.9 39.7 26.1 42 25.9 44.7C25.9 45.2 26.6 45.2 26.7 44.8C27.4 41.9 28 39.1 27.9 36.1C27.9 35.7 27.4 35.5 27.2 35.9C26 38 25.7 40.1 25.4 42.5C25.3 42.9 26.1 43 26.2 42.6C26.6 40.5 26.8 38.5 26.7 36.3C26.7 35.9 26.1 35.7 26 36.1C25.1 38.2 24.5 40.3 24 42.6C23.9 43.1 24.6 43.3 24.8 42.8C25.5 40.3 26 37.7 26.5 35.2C26.6 34.7 25.9 34.5 25.7 35C25.4 35.8 23.2 40.9 23.9 41.7C24.4 42.3 25 35.1 25 34.1C25 33.7 24.4 33.5 24.3 33.9C23.5 35.5 21.6 39.2 22.6 40.6C23 41.3 23.9 35.1 23.9 34.5C23.9 34.1 23.4 34 23.2 34.3C21.7 36.7 21 39.3 20.7 42.1C20.6 42.6 21.4 42.6 21.5 42.2C22.2 39.5 22.4 37.1 22 34.4C21.9 34 21.3 34.1 21.2 34.4C20.2 37 19.5 39.6 19 42.3C18.9 42.8 19.6 43 19.8 42.5C20.7 38.8 22 35.2 22 31.3C22 30.9 21.4 30.7 21.3 31.1C19.7 34.2 18.9 37.3 18.3 40.8C18.2 41.3 18.9 41.5 19.1 41C20.2 37.9 21.3 35.1 21.3 31.8C21.3 31.3 20.7 31.3 20.5 31.7C19.4 34.6 19 37.7 18.3 40.8C18.2 41.3 18.9 41.5 19.1 41C20.1 38.2 20.7 35.5 20.6 32.5C20.6 32 20 32 19.8 32.4C18.7 35.1 18.1 37.9 17.3 40.8C17.2 41.3 17.9 41.5 18.1 41C19.2 37.9 19.9 35 19.8 31.8C19.8 31.4 19.2 31.2 19.1 31.6C17.5 35 16.6 38.6 15.6 42.3C15.5 42.8 16.2 43 16.4 42.5C17.3 39.5 17.4 36.7 17.2 33.5C17.2 33.2 16.8 32.9 16.5 33.2C14.5 35.6 13.8 38.5 13.7 41.6C13.7 42 14.4 42.1 14.5 41.7C15.1 39 15.7 36.5 15.5 33.7C15.5 33.3 14.9 33.1 14.8 33.5C13.8 35.8 13.2 38 12.8 40.5C12.7 41 13.5 41.2 13.6 40.7C14.2 38.2 14.8 35.8 14.8 33.2C14.8 32.8 14.2 32.6 14.1 33C12.7 35.7 12 38.5 11.8 41.6C11.8 42.1 12.5 42.1 12.6 41.7C13.6 38.2 14.5 34.7 15.3 31.1C15.4 30.7 14.8 30.4 14.6 30.8C12.6 33.9 11.5 37.2 11.1 40.8C11 41.2 11.8 41.3 11.9 40.9C12.5 37.6 13.4 34.4 13.6 31C13.6 30.6 13.1 30.5 12.9 30.8C11.1 33.5 10.7 36.3 10.2 39.5C10.1 40 10.8 40.2 11 39.7C12.4 36.1 13.3 32.4 13.2 28.5C13.2 28.1 12.6 27.9 12.5 28.3C10.7 31.7 9.9 35.3 9.7 39.1C9.7 39.5 10.4 39.6 10.5 39.2C11.4 35.4 12.5 31.7 13 27.8C13 27.4 12.4 27.3 12.3 27.6C10.4 31 9.3 34.7 9.3 38.6C9.3 39.1 9.9 39.1 10.1 38.7C11.6 34.5 12.4 30.2 13.3 25.9C13.4 25.4 12.7 25.2 12.5 25.7C11.7 27.8 11 29.9 10.4 32.1C10.2 33 9.4 36.8 9.3 36.9C11.2 34.5 11.8 27.8 12.2 24.4C12.3 24 11.7 23.7 11.5 24.1C8.5 28.5 7.6 33.6 7 38.8C6.9 39.3 7.7 39.3 7.8 38.9C9.4 33.8 11.3 28.7 11.7 23.3C11.7 22.9 11.1 22.7 11 23.1C9.5 26.2 7.3 30.4 7.1 33.8C6.9 36.7 8.4 32.6 8.7 31.7C9.5 29.6 10.1 27.5 10.5 25.3C10.6 24.9 10 24.6 9.8 25C7.5 29 6 33.1 5.3 37.6C5.2 38.1 5.9 38.3 6.1 37.8C7.5 33.8 8.7 29.9 9.3 25.7C9.4 25.3 8.8 25 8.6 25.4C6.4 28.6 5.1 32.3 5.1 36.2C5.1 36.6 5.7 36.8 5.8 36.4C7.5 32.5 8.9 28.6 9.3 24.4C9.3 24 8.7 23.8 8.6 24.2C7 27.8 5.6 31.3 5.6 35.2C5.6 35.7 6.2 35.7 6.4 35.3C8.3 30.6 9.7 25.7 10.3 20.7C10.4 20.3 9.7 20.2 9.6 20.5C8 23.8 7 27.2 5.9 30.7C5.7 31.2 6.5 31.4 6.7 30.9C7.8 28 9 25.2 9.4 22C9.5 21.6 8.9 21.3 8.7 21.7C7 24.3 6.2 27.2 5.2 30.2C5 30.7 5.8 30.9 6 30.4C7 28 7.6 25.5 8.2 23C8.3 22.5 7.7 22.3 7.5 22.7C5.8 25.2 4.9 27.9 4.3 30.9C4.2 31.4 4.9 31.6 5.1 31.1C6.5 27.8 8.1 24.7 9 21.3C9.1 20.9 8.6 20.6 8.3 20.9C5.5 24.2 3.7 28 2.5 32.1C2.4 32.5 3 32.8 3.2 32.4C5 29.3 6 26 6.7 22.5C6.8 22 6.1 21.8 5.9 22.3C5.2 24.1 4.5 25.9 3.9 27.7C3.8 28.1 4.4 28.4 4.6 28C6.3 24.7 4.6 27.4 4.3 29.2C4 30.8 4 32.3 4.1 33.9C4.1 34.2 4.7 34.5 4.8 34.1C6.2 30.8 7.2 27.6 7.6 24.1C7.7 23.6 7 23.6 6.8 24C6.6 24.4 5 27.8 5.2 28.2C5.7 29.4 6.5 26.9 6.5 26.4C6.6 24.6 5.8 26.8 5.5 27.3C4.8 28.6 4.6 30.4 4.2 31.9C4.1 32.4 4.8 32.6 5 32.1C6 29.3 6.8 26.6 7.2 23.7C7.3 23.3 6.7 22.9 6.5 23.4C5.2 26.3 4.1 29.2 3.5 32.4C3.4 32.9 4.1 33.1 4.3 32.6C5.2 29.6 6.2 26.8 6 23.6C6 23.2 5.5 23.1 5.3 23.4C4.5 24.5 3.7 25.7 3.2 27C2.8 28 2.9 29.2 3.5 27.5C3.8 27 3.8 26.4 3.7 25.9C3.7 24.5 3.4 24.8 2.9 26.7C3.7 25.5 4.7 24.5 5.6 23.2C5.5 23.2 4.8 22.8 4.5 23.3Z" fill="#D83633"/>
<path d="M26.6 61.2C26.2 63.5 26.3 65.8 26.3 68.2C26.3 68.7 27.1 68.7 27.1 68.2C27.3 66 27.4 63.9 27.7 61.7C27.8 60.8 28.5 57.2 27.8 60.3C27.5 61.5 27.9 66.3 27 66.8C28.3 66.2 27.5 63 28.1 61.5C27.6 60.9 27.5 61.2 27.8 62.5C27.8 63.3 27.8 64.2 27.7 65C27.2 66.2 27.4 66.6 28.3 66C28.4 65.1 28.6 64.2 28.8 63.3C29 62.4 29.8 58.6 29.1 62C28.7 63.7 28.8 65.7 28.7 67.4C29 67.4 29.2 67.4 29.5 67.4C29.4 65.3 30.5 62.9 30.4 60.9C30.4 60.7 29.4 66.5 30.3 64.5C30.6 63.8 30.7 58 31.2 61.3C31.5 63.3 31.2 65.4 31 67.4C31.3 67.4 31.5 67.4 31.8 67.4C31.9 65.4 32.5 62.9 32.7 61.3C32.5 63 32.2 65.2 32 67.1C32.3 67.1 32.5 67.1 32.8 67.1C32.8 65 32.9 63 33.3 60.9C33.5 60.2 33.7 59.4 33.8 58.6C33.8 59.5 33.8 60.4 33.7 61.3C33.5 63.8 33.3 65.9 34.1 61.7C34.3 60.8 34.5 60 34.8 59.1C35 57.2 34.9 57.6 34.5 60.6C33.9 61.5 34 62 34.8 62.2C34.9 61 35.2 59.8 35.5 58.6C35.5 58.6 35 60.6 35.1 61.2C35.9 64.8 36.4 58.2 35.8 57.8C36.3 58.1 35.6 62 35.6 62.6C35.5 63.1 36.3 63.1 36.4 62.6C36.5 61.4 36.7 60.2 37 59C37 58.8 37.6 55.6 37.6 57.2C37.6 57.7 37.3 60.2 37.4 60C37.9 59 37.9 56.9 38.2 55.8C38.2 56 37.6 59.3 37.5 59.3C38.4 59.5 38.1 57.6 38.2 57C38.2 56.6 38.5 53.5 38.5 55.2C38.5 56.2 38.5 57.2 38.5 58.2C38.5 58.7 39.3 58.7 39.3 58.2C39.4 56.8 40 55.4 40 54.1C40.1 52.6 38.9 56.9 38.7 57.4C39 57.5 39.2 57.5 39.5 57.6C40 55.5 41 53.8 41.6 51.8C41.5 51.8 41.4 51.7 41.3 51.7C41.1 52.6 40.9 53.5 40.7 54.4C40.5 57.8 41.5 53.7 41.6 53.1C41.9 49.7 41.4 52.6 41.4 54.1C41.4 54.5 42.1 54.7 42.2 54.2C42.4 53.1 42.7 52 42.7 51C42.8 49.7 42.4 50.6 42.4 51.7C42.4 52.2 43 52.2 43.2 51.8C44.3 49.2 43.7 50.6 43.4 50.5C43.5 50.5 43.7 50.8 43.3 50.5C42.9 50.1 42.4 50.7 42.7 51.1C42.7 51.2 42.8 51.3 42.8 51.5C42.8 51.7 43 51.8 43.2 51.8C43.3 51.8 43.4 51.8 43.5 51.8C43.7 51.8 43.9 51.6 43.9 51.4C44 50.7 44.1 50.1 44.1 49.4C44.2 48.9 43.5 48.9 43.3 49.3C42.2 52.6 43.1 50.3 43.1 49.2C43.1 48.8 42.4 48.7 42.3 49.1C42.1 49.7 41.3 52.3 41.5 53C42 54.2 42.1 50.5 42.1 50.5C42.1 50.1 41.4 49.9 41.3 50.4C40.8 52.8 40.4 55.2 40.1 57.6C40 58 40.8 58.1 40.9 57.7C41.3 55.5 41.7 53.2 42.4 51.1C42.5 50.6 41.9 50.5 41.7 50.8C40 53 39.3 55.1 38.7 57.8C38.6 58.3 39.3 58.5 39.5 58C40 56.3 40.4 54.7 40.5 53C40.5 52.5 39.9 52.5 39.7 52.9C39 54.8 38.6 56.7 38.5 58.7C38.8 58.7 39 58.7 39.3 58.7C39.3 57.1 39.3 55.6 39.3 54C39.3 53.6 38.7 53.4 38.6 53.8C37.6 56.2 37.2 58.6 37.1 61.1C37.1 61.6 37.7 61.6 37.9 61.2C38.7 59 39 57.1 38.6 54.8C38.5 54.4 37.9 54.5 37.8 54.8C37.1 57.1 36.9 59.4 36.8 61.8C36.8 62.3 37.4 62.3 37.6 61.9C38.3 59.9 38.5 58.1 38.4 55.9C38.4 55.5 37.8 55.3 37.7 55.7C36.5 58 36 60.4 35.7 63C36 63 36.2 63 36.5 63C36.7 60.9 36.7 58.9 36.7 56.8C36.7 56.4 36 56.3 35.9 56.7C35.3 59.1 34.9 61.5 34.7 63.9C34.6 64.4 35.4 64.4 35.5 64C36.1 61.8 36 59.7 36 57.5C36 57 35.4 57 35.2 57.4C34.5 59.5 34.1 61.5 34 63.7C34 64.1 34.7 64.2 34.8 63.8C35.3 61.5 35.7 59.4 35.8 57.1C35.8 56.7 35.2 56.5 35.1 56.9C33.8 59.7 33.2 62.6 33.1 65.7C33.1 66.1 33.8 66.2 33.9 65.8C34.6 63 34.8 60.4 34.7 57.6C34.7 57.2 34.1 57 34 57.4C32.6 60.6 32.3 63.9 32.2 67.4C32.2 67.9 32.9 67.9 33 67.4C33.3 65 33.6 62.7 33.5 60.3C33.5 59.8 32.9 59.8 32.7 60.2C31.9 62.7 31.3 65.1 31.2 67.7C31.2 68.2 32 68.2 32 67.7C32.3 64.7 32.6 61.9 31.7 59C31.6 58.6 31.1 58.6 30.9 59C29.9 61.6 29.5 64 29.7 66.7C29.7 67.1 30.4 67.3 30.5 66.8C30.9 64.5 31 62.2 31 59.8C31 59.3 30.3 59.3 30.2 59.7C29.4 62.4 28.9 64.9 29 67.7C29 68.2 29.8 68.2 29.8 67.7C30 65 30.3 62.3 30.3 59.6C30.3 59.1 29.6 59.1 29.5 59.5C28.5 62.6 27.8 65.7 27.5 69C27.5 69.4 28.2 69.6 28.3 69.1C28.8 66.2 29 63.3 28.8 60.4C28.8 60 28.2 59.8 28 60.3C27.2 63 27 65.7 27 68.5C27 68.9 27.7 69.1 27.8 68.6C28.3 65.1 28.9 61.7 28.8 58.2C28.8 57.8 28.1 57.6 28 58.1C27.1 61.5 26.8 65 26.5 68.5C26.8 68.5 27 68.5 27.3 68.5C27.3 66.2 27.1 64 27.5 61.7C27.5 61 26.7 60.7 26.6 61.2Z" fill="#D83633"/>
<path d="M38.2 26.8C38.4 28.1 38.5 29.3 38.4 30.6C38.4 31.1 39.2 31.1 39.2 30.6C39.2 30.2 39.4 25.2 39.1 29.4C39.1 29.8 39.8 30 39.9 29.5C40 28.9 39.7 27.9 39.8 28.4C40 29.1 38 26.1 38.1 26.2C38 26 37.6 25.9 37.4 26.2C36.8 27.3 36.6 28.4 36.1 29.5C35.5 30.9 36 27.3 35.9 26.2C35.8 25.7 35.1 25.7 35.1 26.2C35.1 28 35.2 29.8 35.3 31.6C35.3 32.1 36.1 32.1 36.1 31.6C36.1 30 35.2 25.4 36.8 30.2C37 30.7 37.7 30.5 37.6 30C37.1 28 36.7 26.1 36.6 24C36.6 23.5 35.8 23.5 35.8 24C35.8 24.8 36.1 27.6 35.8 28C35.9 27.8 34.4 25.2 34.3 25C34.1 24.6 33.6 24.8 33.6 25.2C33.6 25.8 34 28.8 34.1 26.8C34.2 25.7 33.7 24.2 33.4 23.1C33.3 22.7 32.6 22.8 32.6 23.2C32.7 24.6 32.7 26 33 27.4C33.9 28.7 33.9 28.4 33 26.4C32.6 25.2 32.3 24 31.9 22.8C31.8 22.4 31.1 22.4 31.1 22.9C31.1 22.7 31.3 27.4 31.8 26.6C32.1 26.2 30 22.7 29.9 22.4C29.7 22 29.1 22.3 29.2 22.7C29.5 24.2 29.9 25.6 30.4 27.1C30.6 27.6 31.3 27.4 31.2 26.9C30.8 24.8 30.2 23 29.2 21.1C29 20.8 28.4 20.9 28.5 21.3C28.6 23.9 29.5 23.6 28 21.3C27.7 20.9 27.1 21.2 27.3 21.7C28.9 25 27.5 21.9 26.5 20.7C26.2 20.3 25.7 20.8 25.9 21.2C26.3 22.2 29.1 26.1 27 23.1C26.2 21.9 24.9 21.1 23.7 20.4C23.3 20.1 22.9 20.7 23.2 21C24.2 22.2 28 25.4 25.1 22.3C24.3 21.4 23.5 20.8 22.5 20.2C22.2 20 21.7 20.4 22 20.7C23 22.2 24.1 23.6 25.3 25C25.6 25.4 26.2 24.8 25.9 24.4C24.3 22.6 22.8 21 20.9 19.7C20.6 19.5 20.2 19.9 20.4 20.2C21.4 21.8 22.5 22.9 24 24C24.4 24.3 24.8 23.6 24.4 23.3C22.3 21.8 20.3 20.4 18 19.4C17.6 19.2 17.1 19.7 17.5 20C18.6 21 19.8 21.7 21 22.5C21.4 22.8 21.8 22.1 21.4 21.8C19.3 20.3 17.1 19.6 14.7 18.8C14.2 18.6 14.1 19.3 14.4 19.5C14.1 19.3 17.6 21.9 17.3 20.9C17.1 20.4 13.6 20.1 13.2 20C12.8 19.9 12.5 20.5 12.9 20.7C14.4 21.7 13.7 21.4 15.5 22C15.9 22.1 16.2 21.5 15.8 21.3C15.3 20.9 14.9 20.6 14.3 20.4C13.4 19.6 12.5 19.6 11.7 20.4C11.7 19.9 11.6 19.6 11.3 19.7C10.6 19.9 9.8 20 9.1 20.2C8.7 20.3 8.8 21 9.2 21C10.5 21 10.1 21 11.3 20.7C11.8 20.6 11.6 19.9 11.1 19.9C10.4 20 9.2 19.9 8.9 20.6C9 20.2 8.5 19.9 8.2 20.2C6.8 21.7 6.3 22.9 6.1 24.9C6 25.4 6.8 25.4 6.9 24.9C7.8 16.3 7.9 20.1 7.8 21.5C7.8 21.9 8.2 22 8.5 21.8C9.9 20.7 10.9 20.4 12.6 20.4C13 20.4 13.2 19.7 12.7 19.6C12 20 11.4 20 10.9 19.9C10.4 19.8 10.2 20.6 10.7 20.7C13.3 21.2 15.8 21.7 18.3 22.4C18.7 22.5 19 21.9 18.6 21.7C17.7 21.2 16.8 20.7 15.9 20.2C16.1 20.3 17.7 21.4 18.5 21.5C19.3 22.4 19.8 22.5 20 21.8C20.3 21.4 20.2 21.3 19.6 21.3C17.9 20.9 21.5 22.6 21.6 22.7C22 23 22.4 23.3 22.8 23.6C22.7 23.1 22.6 22.7 22.5 22.2C23.2 22.4 23.6 23.9 24.3 24.1C24.2 24.1 22.7 21.3 24.7 23.3C25.5 24.1 26.2 25.1 26.9 25.9C27.2 26.2 27.8 25.8 27.5 25.4C27.7 25.6 24.2 21.4 25.4 22.7C26.5 23.8 27.5 25 28.6 26.1C28.9 26.4 29.5 26 29.2 25.6C27.4 22.8 26.3 21.7 29.1 25.1C29.4 25.5 29.9 25 29.7 24.6C28.2 21.6 28.5 23.5 29.3 25.2C29.5 25.6 30.1 25.3 30 24.9C29.9 23.8 30.1 24.1 30.4 25.8C31.1 25.8 31.2 25.5 30.7 24.9C29.2 22.5 31.5 27.4 31.9 28.3C32.1 28.8 32.7 28.6 32.7 28.1C32.6 27.5 31.5 23.1 32.3 25.8C32.7 27.3 33.2 28.8 33.7 30.2C33.8 30.6 34.5 30.6 34.5 30.1C34.3 28.7 33.2 25.4 33.8 24.5C33.1 25.5 33.7 27.5 33.9 29C34 29.5 34.7 29.3 34.7 28.9C34.7 24.7 35.6 28.7 36.2 30.1C36.4 30.5 36.9 30.3 36.9 29.9C36.9 28.8 37.4 26.3 36.5 25.7C35.8 25.2 36 25.8 36.4 27.1C37.1 29.8 37.4 28.7 36.3 26.4C36.1 26 35.6 26.2 35.6 26.6C35.6 27.7 35.6 28.8 35.6 29.9C36.3 30 36.5 29.6 36.2 28.9C36 25.7 35.8 30.9 35.9 31.6C35.9 32 36.6 32.2 36.7 31.7C37 30.7 37 29 37.9 28.4C39 27.7 39.1 29 39.7 30.3C39.8 30.6 40.4 30.5 40.4 30.2C40.7 28.4 40.6 29 40.7 27.1C40.7 26.6 40 26.6 39.9 27C39.1 30 40.3 27.8 40.2 25.9C40.2 25.5 39.6 25.4 39.4 25.8C39 27 38.6 28 39.1 29.1C39.7 30.3 39.1 26.3 39.2 26.6C38.9 26 38.1 26.3 38.2 26.8Z" fill="#D83633"/>
<path d="M8.2 23.6C11.3 14.4 34.3 24.4 39 28.5C39.4 28.8 40 28.3 39.6 27.9C34.8 23.8 27.2 21.5 21.2 20.2C16.8 19.2 9.3 17.9 7.4 23.4C7.2 23.8 8 24.1 8.2 23.6Z" fill="#D83633"/>
<path d="M11.6 20.8C11.6 24 12.2 27.1 12.2 22C12.2 21.5 11.4 21.5 11.4 22C11.7 24.8 11.8 25.1 11.7 23C11.7 22.6 11.2 22.5 11 22.8C10.3 24 10.3 23.9 11 22.6C11.1 22.1 10.4 21.9 10.2 22.4C9.7 24.1 9.4 27.5 10.5 23.4C11.6 19.3 10.2 22.4 9.7 24.1C9.6 24.6 10.3 24.8 10.5 24.3C11.2 24.5 11.4 24.9 11.2 25.6C11.2 26.4 11.2 27.1 11.2 27.9C11.2 28.3 11.9 28.5 12 28C12.2 26.8 13.4 23.4 12.8 23C13.3 23.3 10.8 27.2 12.3 26.8C13.4 26.6 12.9 20.6 12.7 25.5C11.6 26.8 11.7 27.4 12.9 27.5C13.2 26.6 13.5 25.7 13.8 24.9C15.1 22.3 12.6 28.7 12.8 28.8C14.2 29.7 13.6 25.9 14.9 25.2C13.7 25.8 14.2 29.2 14.6 28.9C14.9 28.6 16.2 21.7 14.8 27.8C14.6 28.9 13.8 32.3 12.9 32.7C13.5 32.4 13.5 30 13.7 29.1C14 27.6 14.3 25.4 15.2 24.1C17.1 21.4 14.9 26.6 14.7 27.4C13.5 33.4 16.7 21.8 16.9 22.1C17.4 22.6 15.7 26.7 15.5 27.3C15.2 28.2 13.9 32.4 15.3 28.2C15.6 27.4 16 24.3 16.8 23.7C16.9 23.6 15.6 29.8 15.8 29.9C16.7 30.2 16.4 25.9 17.6 25.8C18.2 25.7 16.1 32.4 17.1 28.3C17.3 27.5 19.6 23 19.5 22.9C20.7 24 17 28.8 17.7 29.9C18.6 31.4 18.6 28.3 18.8 27.7C19.2 26.5 20.6 22.2 19.4 28.2C19.2 29 18.1 32.6 18.2 32.5C18.3 32.3 20.4 27.4 20.2 27.3C22.1 28.4 19 31 19.8 31.9C20.5 32.7 21.1 29 21.3 28.4C21.8 26.8 23.1 21.5 21.9 28.1C21.8 28.7 20.5 32 21.9 31.2C22.3 31 22.9 26 23.3 26C23.7 26 22 32.4 21.8 33.1C21.7 33.6 22.4 33.8 22.6 33.3C23.1 32.2 23.5 31.1 23.9 30C24 29.6 25.4 25.2 24.7 27.2C24 29.3 23.5 31.6 22.8 33.8C22.7 34.2 23.3 34.5 23.5 34.1C24.4 32 25 29.9 25.9 27.8C27.8 23.6 24.7 31.9 25 32.3C25.6 33.3 27.4 28 27.6 27.4C28.5 24.9 28 26.3 27.5 28C27.1 29.3 26.9 30.6 26.5 31.8C26.4 32.3 27.1 32.5 27.3 32C27.7 30.6 28 29.1 28.7 27.8C28.1 28.9 27.6 31.9 27.4 33.6C27.2 35.6 28.1 31.4 28.3 30.7C28.6 29.7 29.9 25.1 29 28.3C28.6 29.7 27.3 31.9 27.3 33.4C27.2 35.6 28.1 33.1 28.3 32.2C28.7 31 31 26.8 30.7 26C31.2 27.2 29.2 31.2 28.8 32.4C28.5 33.2 27.4 36.6 28.6 34.4C29 33.6 29.7 28.6 30.4 28.6C30.9 28.6 30.2 30.5 29.9 31.5C29.6 32.6 28.4 36.3 30 33.8C30.2 33.5 31.6 29.6 31.3 29.4C32.3 30.1 29.8 35.9 30.5 36.4C31.6 37.1 31.6 34.4 31.9 33.5C32.1 33 33.9 29.4 33.7 29C33.9 29.5 33.1 31.5 33 32C32.6 33.6 31.7 35.2 31.4 36.8C31 39 31.2 39.4 31.6 36.9C31.8 35.5 32.1 34.1 32.5 32.8C33.6 29.6 34.2 28.8 33.4 32.9C33 34.7 32.4 36.4 31.7 38.2C31.4 38.9 30.6 41.7 31.6 39.7C32.2 38.5 32.4 36.7 32.9 35.3C33.3 34.1 33.6 31.8 34.7 31.2C35.1 30.3 35.2 30.3 34.9 31.4C34.8 32 34.7 32.5 34.6 33C34.2 34.6 33.7 36.1 33.2 37.7C33 38.5 31.6 43.5 32.7 40.6C33.3 39.2 33.3 37.5 33.7 36C33.9 35.2 35.3 31 34.5 32.6C33 35.7 32.2 39.5 31.1 42.8C30.6 44.3 29.8 45.9 29.7 47.5C29.2 51.2 30.9 45.9 31.3 44.7C31.6 43.9 33.2 40.1 32.7 40C31.9 39.9 30.6 45.3 30.3 45.9C30.1 46.4 28.4 51.9 28.5 52C29.3 52.2 30.8 43.9 30 48.1C29.9 48.6 28.3 55.4 27.8 55.3C27.5 55.2 28.8 50.3 29 49.5C29.1 49.2 29.9 46.8 29.2 48.9C29 49.4 27.5 54.3 27.3 54.2C26.8 54.1 28.6 48.4 28.8 47.8C29 47.3 28.2 47.1 28 47.6C27.4 49.3 26.7 50.9 26 52.6C25.6 53.7 25.1 54.7 24.7 55.8C25.1 55 25.5 54.1 25.9 53.3C27.3 50.3 26 53 25.7 54.3C25.4 55.7 25.2 57.1 25 58.5C24.9 59 25.7 59 25.8 58.6C26 58.1 27.5 53.7 27.4 53.6C27.8 54 25.5 60.2 27.2 54.7C28 52.1 27.4 50 27.3 55.5C26.4 56.5 26.5 57.3 27.4 57.6C27.6 56.9 27.7 56.1 27.9 55.4C28.1 54.7 29.3 48.8 30 51C30.2 51.7 27.6 56.5 29 56.1C29.8 55.9 29.6 51.8 30.3 51.4C30.6 52.9 30.5 54.5 30.1 56C30.8 55.1 31.1 54.1 31.2 53C31.6 51.9 32.2 47.3 33.1 47.1C33.4 47 32.1 51.6 31.8 52.5C31.3 53.8 30.4 55.5 30.2 56.9C29.5 61.1 30.7 55.4 31.1 54.1C31.6 52.1 32.4 50.2 33.4 48.4C35.1 45.1 33 49.9 32.8 50.6C32.1 52.5 30.6 54.7 30.2 56.8C29.7 59.1 29.5 59.1 30.5 57.1C31.4 55.2 31.8 52.9 32.6 51C33 50 33.5 49.1 34 48.2C33.8 49.3 33.6 50.4 33.3 51.5C32.9 52.6 32.6 53.8 32.1 54.9C31.3 56.6 31.2 57 31.8 56.1C32.9 56 32.9 50.5 34.1 50.5C35 50.5 32.6 59.3 34 55.6C34.5 54.2 34.7 52.6 35.2 51.2C35.7 49.9 38.4 43.5 36.9 50.4C36.7 51.2 34.8 56.4 34.8 56.5C34.5 55.8 36.2 51.7 36.5 50.9C36.5 50.8 38.2 46.8 38.3 47.1C38.6 49.1 37 51.8 36.6 53.8C35.9 57.6 36.7 54 37 53.1C37.5 51.7 39.7 47.6 39.5 46.6C39.8 48.3 38.2 50.6 38.1 52.3C37.9 56.6 38.5 52.7 39.1 51C40.6 46.9 39.3 52.2 39.2 53.1C39.1 53.6 39.8 53.8 40 53.3C40.1 52.8 40.8 49.4 41.2 49.2C41 49.3 40.3 52.7 41.5 50.6C42.5 48.9 41.7 46 41.5 44.1C41.5 43.7 41 43.5 40.8 43.9C41.3 42.9 38.9 47.7 39.6 46.7C40.4 45.6 40.6 43.4 41 41.7C41.1 41.3 40.5 41 40.3 41.4C39.8 42.5 38.4 44.8 38.6 45.9C38.5 45.2 39.3 42.1 39.4 40.8C39.4 40.3 38.7 40.3 38.6 40.7C38.1 42.4 36.4 45.6 36.4 47.2C36.4 46.7 35.6 46.7 35.6 47.2C35.6 47.6 35.6 48 35.6 48.4C35.6 48.8 36.1 48.9 36.3 48.6C37.4 47 38.1 45.5 38.6 43.6C38.7 43.2 38.6 41.6 38.4 42.4C38 43.9 38.1 45.8 38 47.4C38 47.9 38.6 47.9 38.8 47.5C39 46.9 40.4 41.5 39.7 43.8C39.3 45.2 39.3 46.7 39.2 48.2C39.2 48.6 39.9 48.7 40 48.3C40.2 47.5 40.2 44.3 40.9 45.9C41.3 46.7 41.1 48.5 41.2 49.4C41.2 49.8 41.9 50 42 49.5C42.4 47.7 42.3 48.3 42.5 46.4C42.5 45.9 41.8 45.9 41.7 46.3C41.1 48.3 40.7 50.4 40.2 52.5C40.1 53 40.8 53.2 41 52.7C41.7 50.9 41.8 49.6 41.8 47.7C41.8 47.2 41.2 47.2 41 47.6C40.8 48.1 38.9 52.5 40.3 51.4C41 50.9 41 47.2 41 46.2C41 45.8 40.4 45.6 40.3 46C38.8 49.1 37.9 52.3 37.3 55.7C37.2 56.2 38 56.4 38.1 55.9C38.9 52.3 39.9 48.9 40.3 45.2C40.3 44.8 39.8 44.7 39.6 45C37.2 48.6 36 52.7 35.6 57C35.6 57.5 36.3 57.5 36.4 57.1C37.7 53.3 38.8 49.5 39.4 45.5C39.5 45.1 38.9 44.8 38.7 45.2C36.1 49 34.7 53.4 34.2 57.9C34.2 58.3 34.8 58.5 34.9 58.1C36.7 54.2 38.2 50.2 38.2 45.8C38.2 45.4 37.7 45.3 37.5 45.6C34.7 49.3 33.4 53.6 33 58.1C33 58.6 33.6 58.6 33.8 58.2C34.9 55.1 35.6 52.2 35 48.9C34.9 48.5 34.4 48.5 34.3 48.8C32.5 51.7 31.5 54.7 31 58.1C30.9 58.6 31.6 58.6 31.8 58.2C33.2 54.3 34.7 50.6 35 46.5C35 46.1 34.5 46 34.3 46.3C31.6 50.5 30.2 55.1 29.1 59.9C29 60.4 29.7 60.6 29.9 60.1C31.6 55.3 34.1 50.9 35.1 45.8C35.2 45.4 34.6 45.1 34.4 45.5C31.6 49.7 29.9 54.6 29.7 59.7C29.7 60.2 30.4 60.2 30.5 59.8C31.7 55 34.4 50.5 34.2 45.4C34.2 45 33.6 44.8 33.5 45.2C31.5 49.1 30.6 53.2 30 57.5C29.9 58 30.7 58 30.8 57.6C31.7 54.8 31.7 52.4 31.3 49.5C31.2 49.1 30.7 49.2 30.5 49.5C29.4 52.1 28.9 54.7 28 57.4C27.8 57.9 28.6 58.1 28.8 57.6C30.1 54.3 31.3 51.2 31.5 47.7C31.5 47.4 31 47.1 30.8 47.4C28.2 50.7 27.5 54.6 26.5 58.6C26.4 59.1 27.1 59.3 27.3 58.8C28.2 55.8 29 53.2 28.8 50.1C28.8 49.6 28.2 49.6 28 50C26.9 52.8 26.3 55.7 26 58.7C26 59.2 26.7 59.2 26.8 58.8C27.8 55.8 28.6 52.9 29 49.8C29.1 49.4 28.4 49.3 28.3 49.6C27.4 51.4 26.3 53.5 26.1 55.5C25.9 57.6 26.6 54.8 26.7 54.2C27.1 52.9 27.3 51.4 27.5 50.1C27.6 49.7 27 49.4 26.8 49.8C25.5 52.2 24.4 54.3 24.3 57.1C24.3 57.6 24.9 57.6 25.1 57.2C25.5 56.1 28.6 49.1 28.1 48.9C26.9 48.5 26.8 54.6 26.8 55.4C26.8 55.8 27.4 56 27.5 55.6C29 52.6 30 49.7 30.3 46.3C30.3 45.8 29.7 45.8 29.5 46.2C28.2 49.5 27.2 52.8 27.3 56.4C27.3 56.8 27.9 57 28 56.6C29.8 52.8 31.1 49 31.3 44.8C31.3 44.4 30.7 44.2 30.6 44.6C29.4 47.5 28.5 50.3 28.3 53.4C28.3 53.8 29 53.9 29.1 53.5C30.2 48.2 32.2 43.2 33.8 38C34 37.5 33.2 37.3 33 37.8C31.4 41.9 29.8 45.9 29.3 50.2C29.3 50.6 30 50.8 30.1 50.3C31.1 43.2 34.8 36.9 36 29.9C36.1 29.5 35.5 29.1 35.3 29.6C33.4 33.8 32.2 38.2 31.8 42.8C31.8 43.3 32.5 43.3 32.6 42.9C33.7 38.1 35.8 33.5 36.1 28.5C36.1 28.1 35.6 28 35.4 28.3C32.9 32.2 31.6 36.4 30.7 40.9C30.6 41.4 31.3 41.6 31.5 41.1C33.2 36.7 34.9 32.5 35 27.7C35 27.3 34.5 27.2 34.3 27.5C31.9 30.9 31.4 35.1 30.8 39.2C30.7 39.7 31.4 39.9 31.6 39.4C33 35.2 34.8 31.2 35.1 26.7C35.1 26.3 34.5 26.2 34.4 26.5C32.4 29.9 31.3 33.5 30.7 37.4C30.6 37.9 31.3 38.1 31.5 37.6C32.4 34 32.9 30.6 32.7 26.9C32.7 26.4 32.1 26.4 31.9 26.8C30.9 29.7 30 32.5 29.2 35.4C29.1 35.9 29.8 36.1 30 35.6C31.1 31.9 32.3 28.3 32.5 24.4C32.5 24 31.9 23.8 31.8 24.2C30.1 28 28.9 31.8 28.1 35.9C28 36.4 28.7 36.6 28.9 36.1C30.3 32 31.9 28 32.4 23.7C32.4 23.3 31.8 23.2 31.7 23.5C29.5 27 28.5 30.8 27.5 34.7C27.4 35.2 28.1 35.4 28.3 34.9C29.4 31.5 30.8 28.3 31.3 24.8C31.4 24.4 30.8 24 30.6 24.5C29 27.8 28.1 31.3 27.4 34.9C27.3 35.3 27.9 35.6 28.1 35.2C29.5 32 30.4 28.9 30.4 25.4C30.4 24.9 29.8 24.9 29.6 25.3C29.2 26.3 27.6 31.6 29 28.9C29.8 27.4 29.8 24.9 29.9 23.2C29.9 22.7 29.2 22.7 29.1 23.1C28 26.4 26.7 29.6 25.7 32.9C25.5 33.4 26.3 33.6 26.5 33.1C27.6 30 28.5 27 28.7 23.6C28.7 23.2 28.1 23.1 28 23.4C27.4 24.5 23.9 30.5 25.3 31.6C25.1 31.5 26.7 25 26.8 23.9C26.8 23.4 26.1 23.4 26 23.8C25.5 25.4 24.6 27.3 24.3 28.9C24.2 29.5 23.4 32.1 24.4 30.3C25.3 28.6 25.4 25.6 25.3 23.7C25.3 23.3 24.7 23.1 24.6 23.5C23.4 26.2 22.7 28.8 22.1 31.7C22 32.2 22.7 32.4 22.9 31.9C23.7 28.7 24.4 25.7 24.4 22.4C24.4 21.9 23.8 21.9 23.6 22.3C22.3 25.6 21.3 28.9 20.6 32.4C20.5 32.9 21.2 33.1 21.4 32.6C22.5 29.3 23.4 26.3 22.9 22.8C22.9 22.5 22.3 22.4 22.2 22.7C20.7 26 19.6 29.3 18.7 32.9C18.6 33.4 19.3 33.6 19.5 33.1C20.9 29.8 22.2 26.6 21.7 22.9C21.7 22.5 21.2 22.3 21 22.7C19.7 25.1 19.1 27.7 18.5 30.4C18.4 30.9 19.1 31.1 19.3 30.6C20.6 27.2 21.6 24 21.8 20.4C21.8 20 21.3 19.9 21.1 20.2C19 23.6 17.4 27.2 17.4 31.2C17.4 31.6 18 31.8 18.1 31.4C19.4 28.5 20.1 26 19.9 22.8C19.9 22.4 19.4 22.2 19.2 22.6C17.9 25 17.2 27.4 16.7 30.1C16.6 30.6 17.3 30.8 17.5 30.3C18.6 27.1 19.3 24.2 19.2 20.8C19.2 20.4 18.6 20.2 18.5 20.6C17 23.6 16.1 26.6 15.7 29.9C15.6 30.4 16.3 30.4 16.5 30C17.9 26.6 19.2 23.1 19.5 19.3C19.5 18.9 19 18.8 18.8 19.1C16.8 22.2 15.9 25.6 15.3 29.3C15.2 29.8 15.9 30 16.1 29.5C17.3 26.1 18.7 23.1 18.8 19.6C18.8 19.3 18.3 19 18.1 19.3C15.1 23.1 14.4 28 14 32.6C14 33 14.6 33.1 14.7 32.8C16.4 29.8 17.7 26.5 17.5 23C17.5 22.6 16.9 22.5 16.7 22.9C16 24.9 15.5 26.8 15.2 28.8C15.1 29.3 15.8 29.5 16 29C17 26.7 17.3 24.8 17.2 22.3C17.2 21.9 16.6 21.7 16.5 22.1C15.4 24.4 14.4 26.6 14 29.1C13.9 29.6 14.6 29.8 14.8 29.3C15.7 26.5 16.7 23.8 16.5 20.8C16.5 20.3 15.9 20.3 15.7 20.7C14.8 23 14 25.3 13.2 27.6C13 28.1 13.8 28.3 14 27.8C14.8 25.4 15.6 23.1 16 20.7C16.1 20.3 15.5 20 15.3 20.4C14.1 22.5 13.4 24.5 13 26.9C12.9 27.4 13.6 27.6 13.8 27.1C14.7 24.8 15.3 22.4 15.8 20C15.9 19.5 15.2 19.3 15 19.8C14.9 20.1 12.8 25.6 13.8 25C14.4 24.6 13.5 21.2 13.3 20.5C13.2 20.2 12.7 20.1 12.6 20.4C12.5 20.6 11.9 22.2 12.4 21.5C12.9 20.8 13.3 19.7 13.6 18.5C13.7 18 13 17.8 12.8 18.3C12 20.7 11.2 23 10.8 25.4C10.7 25.9 11.4 26.1 11.6 25.6C11.8 25 12.2 22.3 12.1 22.4C11.6 23.1 11.9 19.3 11.8 23.3C11.8 23.7 12.4 23.8 12.5 23.5C13.3 22.2 12.7 22.8 12.7 24.3C12.7 24.7 13.4 24.9 13.5 24.4C13.7 23.5 13.6 22.8 13.5 22.3C13.4 21.6 13.2 25.3 13.2 25.3C13.2 25.8 14 25.8 14 25.3C14.2 23.3 14.2 21.4 14.2 19.4C12.4 20.2 11.6 20.2 11.6 20.8Z" fill="#EF6664"/>
<path d="M35.7 30.2C34.6 33.7 33.5 37.2 32.3 40.6C32 41.4 30 45.6 30.4 46.1C31.3 47.4 31.4 44.3 31.5 43.8C31.9 42.2 34.6 35.9 34.7 36C35.8 36.9 32.1 46.8 31.8 48.1C31.7 48.6 32.4 48.8 32.6 48.3C33.3 45.9 33.7 43.5 34.2 41.1C34.5 39.9 34.7 38.7 35 37.6C35.8 35 34.4 41 34.4 41.5C34.2 42.5 33.9 43.6 33.6 44.6C33.6 44.5 31.9 48.6 33.1 47.6C33.4 47.4 33.7 44.9 33.8 44.3C34.2 42.4 34.7 40.4 35.1 38.5C35.4 37.3 35.5 35.4 36.1 34.4C35.7 35 35.5 36.5 35.4 37.6C35.2 38.7 33.2 44.1 34.3 44.5C34 44.4 35.4 37.4 35.5 36.9C36 34.4 37.2 29.4 35.9 35.8C35.6 37.1 30.9 48.6 31.1 48.7C32 49.5 32.5 44.8 32.7 43.9C33.3 40.9 34 37.8 35.3 35C36.7 31.9 36.7 32.8 36 36.3C35.6 38.4 34.9 40.5 34.1 42.6C33.6 43.9 32.6 45.5 32.7 46.6C32.7 46.1 33 44.7 33 44.1C33.4 41.4 33.8 38.7 34.5 36C34.7 35.2 35 34.3 35.2 33.5C36.8 29 36.4 32.9 36.4 34.5C36.4 37.2 35.7 39.9 34.9 42.5C34.5 43.7 33.9 44.9 33.7 46C33.7 46.1 33.4 48.1 33.6 47.2C34.5 43.9 35.5 39.5 36 36.1C36.7 31.3 35.4 40.8 35.4 41.1C35 46.3 36 39.3 36.2 38.2C36.5 36.2 36.9 34.2 37.6 32.3C39.8 25.6 37.9 33.8 37.4 35.8C37.3 36.3 35.5 43.5 35.3 43.4C36.2 43.5 36.9 37.2 37.2 36C37.4 35 37.7 33.9 38.1 33C37.8 33.6 37.4 37.5 37.4 37.8C37.2 38.7 36.7 40.1 36.8 40.9C36.9 42.8 37.2 39.7 37.2 39.3C37.2 38.4 37.1 31.8 38.4 31.7C38.6 31.7 37.3 39.2 37.2 39.9C36.9 40.9 36.6 41.9 36.4 42.9C36.3 43.4 35 48.7 36.4 44.5C37.3 42.1 38 39 38.4 36.4C39 32.3 38 37 37.8 37.7C37.3 39.3 37 40.9 36.5 42.4C36.1 43.7 35.6 45 35.2 46.2C34.7 47.4 34.8 47.2 35.5 45.5C35.7 44.4 35.9 43.4 36.1 42.3C36.5 40.5 36.9 37.2 38.1 35.8C37.9 36 36.2 44.8 36.2 44.8C37.2 45.5 38.5 38.6 38.7 37.6C39.4 34.9 38 40.1 38.1 40C37.3 44.2 38.5 39.1 38.8 38.2C40.3 33.9 38.9 40.2 38.8 40.6C38.7 41.1 37.4 44.5 38.7 43.5C39 43.3 39.3 40.7 39.5 40.1C40 37.9 40.5 35.7 41 33.6C41.1 33.1 40.4 32.9 40.2 33.4C39.7 35 39.3 36.7 39 38.3C39.1 38 38.1 42.6 39 41.8C39.9 41 39.2 34.2 39 34.1C39.9 34.6 39.1 39.6 39.2 40.4C39.5 42 39.2 43 39.7 40.2C40.2 37.1 39.7 33.3 39.7 30.2C39.7 29.7 38.9 29.7 38.9 30.2C38.9 35.2 38.7 40.1 39.4 45.1C39.5 45.5 40.1 45.5 40.2 45.1C41.2 40.4 40.6 35.7 40.5 31C40.5 30.5 39.7 30.5 39.7 31C39.7 35.9 39.8 40.9 40.4 45.8C40.5 46.2 41.1 46.4 41.2 45.9C41.7 42 42.3 38.3 41.7 34.4C41.6 33.9 40.9 34.1 40.9 34.5C40.7 38.1 41.1 41.5 41.4 45.1C41.4 45.6 42.2 45.6 42.2 45.1C42.3 40.4 41 36.2 38.7 32.1C38.5 31.8 37.9 31.9 38 32.3C38.6 38.5 39.7 44.6 42.5 50.2C42.7 50.6 43.2 50.4 43.2 50C43.3 45.5 42.2 41.3 40.7 37.1C40.6 36.7 39.9 36.7 39.9 37.2C39.8 42.2 40.8 47.1 43.4 51.4C43.7 51.8 44.4 51.4 44.1 51C42.9 48.9 41.9 46.7 41.4 44.4C41.1 42.9 41 39.5 40.6 38.6C41.6 40.4 42.2 44.6 42.3 46.8C42.5 51.2 41.1 45 40.7 43.6C40.1 41.4 39.6 39.1 39.2 36.7C38.4 31.3 39.5 35.1 40.3 37.8C40.7 39 41.7 45.8 41.9 42.8C42 42.2 41.7 36.1 41.5 36C41.8 36.1 40.3 43.6 40.5 44.1C40.8 44.9 40.6 42.1 40.6 41.7C40.5 40.6 40.5 39.5 40.4 38.4C40.4 37.7 40.2 31.8 39.5 32.5C38.9 33.2 39.8 37.8 39.8 38.8C39.8 41 39.7 43.9 39.5 40C39.4 37.8 39.8 35.3 39.4 33.2C38.9 29.8 38.6 33.8 38.6 35.3C38.6 38.1 38.6 40.8 38.6 43.6C38.6 44.1 39.3 44.1 39.4 43.6C39.9 39.8 40 36.2 39.1 32.4C39 32 38.3 32.1 38.3 32.5C38.2 36.1 37.9 39.7 37.8 43.3C37.8 43.7 38.5 43.9 38.6 43.4C38.8 42 40.5 34.8 39.4 34.9C39 34.9 37.3 44 37.1 44.9C37 45.4 37.7 45.6 37.9 45.1C39.1 41.6 39.7 38.2 39.1 34.6C39 34.2 38.4 34.2 38.3 34.6C37.6 37.5 37.1 40.4 36.8 43.3C36.8 43.7 37.5 43.8 37.6 43.4C38.2 40.6 39.1 38 39.1 35.2C39.1 34.7 38.5 34.7 38.3 35.1C36.9 38.7 36.3 42.4 35.3 46.2C35.2 46.7 35.9 46.9 36.1 46.4C37.3 42 38.2 37.5 38.8 33C38.8 32.6 38.2 32.4 38.1 32.8C35.8 37.8 34.5 43 33.9 48.5C33.8 49 34.5 49 34.7 48.6C36.7 43.5 38.3 38.4 38.9 33C39 32.5 38.2 32.5 38.1 32.9C36.8 37.7 35.3 42.5 34.9 47.5C34.9 47.9 35.6 48 35.7 47.6C36.8 41.8 39.1 36.5 38.7 30.5C38.7 30.1 38.2 30 38 30.3C35.6 33.7 36.2 38.4 36.2 42.3C36.2 42.7 36.9 42.9 37 42.4C37.8 38.7 38.6 35.1 38.5 31.2C38.5 30.7 37.9 30.7 37.7 31.1C36 35.5 35.3 40.1 34.7 44.7C34.6 45.2 35.4 45.2 35.5 44.8C37.1 39.3 38.8 33.7 39.2 28C39.2 27.6 38.6 27.5 38.5 27.8C35.6 32.8 35.1 38.6 34.5 44.2C34.5 44.7 35.2 44.7 35.3 44.3C36.2 40.4 36.7 36.6 36.8 32.6C36.8 32.1 36.1 32.1 36 32.5C34.5 37.8 32.9 43.1 32.5 48.6C32.5 49.1 33.1 49.1 33.3 48.7C35.5 42.5 38 36.4 36.5 29.8C36.4 29.5 35.9 29.4 35.8 29.7C32.9 35 32.4 41.3 31.6 47.3C31.5 47.7 32.1 48 32.3 47.6C35 42.6 37.1 37.2 37 31.4C37 31 36.5 30.9 36.3 31.2C32.4 36.6 31.9 43.5 30.4 49.7C30.3 50.2 31 50.4 31.2 49.9C33.7 43.8 37.1 37.7 36.9 30.9C36.9 30.4 36.3 30.4 36.1 30.8C34.4 35.6 33.9 40.6 33.1 45.6C33 46.1 33.7 46.3 33.9 45.8C35.2 41.4 36.4 37.1 36.4 32.4C36.4 32 35.7 31.8 35.6 32.3C34.3 37.8 33 43.2 31.9 48.8C31.8 49.3 32.5 49.5 32.7 49C34.4 44.6 35.5 40.1 35.9 35.4C35.9 35 35.3 34.8 35.2 35.2C34.4 36.9 32.3 46.8 32.5 46.8C34.6 46.2 35.5 36.8 35.5 34.4C35.5 34 35 33.9 34.8 34.2C32.3 38.3 30.8 42.9 29.8 47.6C29.7 48.1 30.4 48.3 30.6 47.8C32.8 42.1 34.6 36.2 36.5 30.3C36.6 30 35.9 29.8 35.7 30.2Z" fill="#EF6664"/>
<path d="M10.1 26.9C9.6 28.5 9.3 30.2 8.9 31.8C8.8 32.1 9.2 32.1 9.3 31.9C9.9 30.5 10.4 29 10.9 27.5C11.2 26.5 10.8 28.4 10.7 28.6C10.6 29.5 10.3 30.4 10.1 31.4C9.9 32.7 10.1 32.1 10.3 31.1C10.5 30.4 10.7 29.7 10.9 29C11 28.7 11.3 27.4 11.4 27.4C11 27.6 11 29.4 10.8 30C10.7 30.5 9.9 31.7 10 32C10 31.9 10.3 30.7 10.4 30.4C10.6 29.6 10.8 28.9 11 28.1C11.2 27.4 12 26.3 12 25.8C12.1 26.6 11.2 28.5 10.9 29.4C10.8 29.6 10 31.5 10.4 31.7C10.4 31.7 11.1 29.4 11.2 29.2C11.4 28.5 11.7 27.8 11.9 27.2C12.2 26.4 12.1 25.6 12.4 26.6C12.6 27.3 12.6 28.1 12.9 28.8C13 29.1 13.2 29.8 13.6 29.8C14.3 29.8 14.3 28.2 14.1 27.8C13 26.3 11.3 30.8 11.1 31.3C11 31.5 11.3 31.7 11.4 31.5C12 30.4 12.4 29.2 12.9 28C13.1 27.3 13.4 26.6 13.6 25.9C13.8 25.1 13.8 24.8 13.5 25.8C13.1 27.2 12.9 28.6 12.4 29.9C11.9 31.4 11.9 31.6 12.2 30.5C12.4 29.8 12.5 29.1 12.7 28.4C12.9 27.8 13.2 27.1 13.3 26.5C13.6 25.2 13.1 26.8 13 27.3C12.6 28.7 12.2 30.1 11.6 31.5C11.4 32.1 10.7 33.9 11.5 32.3C11.8 31.8 11.9 31.1 12 30.5C12.5 28.9 13 27.3 13.5 25.8C13.6 25.6 13.2 25.5 13.1 25.7C12.7 26.7 12.4 27.7 12.1 28.7C12 29.1 11.2 30.6 11.4 30.9C11.7 31.6 11.8 29.9 11.8 29.8C11.9 28.9 12.1 28 12.2 27C12.2 26.8 11.9 26.6 11.8 26.9C11.6 27.6 11.4 28.3 11.1 29C10.9 29.5 10.2 32.2 10.6 30.2C10.9 28.7 11.6 27.3 11.9 25.8C12.3 23.6 11.6 27.4 11.4 27.9C11.2 28.6 10.9 29.3 10.7 30.1C10.4 30.8 9.3 33.3 10.3 31.7C11 30.6 11.1 29.1 11.7 27.9C11.9 27.6 11.8 26.8 11.8 28.2C11.8 29.1 11.3 30.1 11.4 31C11.4 31.9 11.2 32 11.7 31.1C12 30.5 12 29.6 12.2 29C12.4 28.4 12.5 27.6 12.7 27C13.2 25.9 12.9 26.9 12.9 27.6C12.8 28.5 12.7 29.3 12.4 30.1C12.3 30.3 11.6 33 11.9 31C12.1 29.6 12.5 28.2 13 26.9C13.1 26.7 13.9 25.2 13.8 25.1C13.4 24.5 13.3 26.1 13.3 26.2C12.9 27.7 12.6 29.2 12.1 30.7C12.1 30.7 11.1 32.6 11.6 32.5C11.6 32.5 12 31.1 12 31.2C12.4 29.8 12.8 28 13.5 26.7C14 25.8 13.6 25.9 13.7 26.7C13.8 27.5 13.5 28.6 13.4 29.4C13.3 29.9 12.1 33.5 12.2 33.5C12.6 33.8 13.3 30.6 13.4 30.1C13.6 29.2 14.6 27.6 14.5 26.7C14.6 27.8 13.8 29.4 13.5 30.5C13.5 30.7 12.8 32.7 12.9 32.7C13.4 33 13.5 31 13.6 30.6C13.8 29.7 14.1 28.5 14.2 27.8C14.1 29.5 13.7 30.9 13.2 32.5C13.1 32.7 12.5 34.9 13 33.3C13.2 32.7 13.3 32 13.5 31.4C13.9 30.1 14.3 28.8 14.8 27.5C14.9 27.2 15.8 25.7 15.4 25.8C15.2 25.9 15.1 28.2 15 28.7C14.7 29.9 14 31.1 13.7 32.3C13.5 33.5 13.5 33.1 13.9 32.3C14.2 31.7 14.4 30.8 14.6 30.1C14.7 29.7 15.5 27.4 15.7 27.3C15.4 27 15.3 27.1 15.4 27.8C15.3 28.3 15.1 28.7 15 29.2C14.8 29.7 13.8 32 14.2 32C14.4 32 15.1 28.6 15.2 28.5C14.9 29 14.9 30.6 14.7 31.3C14.6 31.6 14.4 32.3 14.2 32.7C14.6 32.1 14.7 31.2 14.9 30.5C15.3 29.3 16 28.2 16.3 27C16.6 26.1 16.7 26 16.2 27C15.8 27.9 15.6 29 15.2 29.9C15 30.3 14.4 31.9 14.4 31.9C14.7 32.2 14.8 32.1 14.7 31.4C14.8 30.9 15 30.5 15.1 30.1C16.9 24.9 15 31.6 14.9 31.6C15.1 31.8 17.1 27.4 17 27.4C16.6 27.1 16.6 28.2 16.5 28.5C16.3 29.2 15.8 31.4 15.2 31.6C16.1 31.3 14.4 32.9 15.7 31C16 30.6 16.7 28.9 16.9 28.3C17.1 27.5 17.4 27.1 16.9 28.1C16.6 28.8 16.1 30.1 16.1 30.9C16 31.1 15.9 31.3 15.9 31.6C16.4 31.3 16.7 30.9 16.9 30.4C17.1 30 17.3 29.6 17.5 29.1C17.2 29.6 17 30 16.9 30.5C16.8 30.7 17.2 30.8 17.3 30.6C17.4 30.3 18.3 27.6 18 27.8C17.9 27.8 16.3 32.7 17.3 29.6C17.4 29.4 17 29.3 16.9 29.5C16.7 30.1 16.7 30.6 16.6 31.3C16.6 31.5 16.9 31.6 17 31.4C17.7 30 18.2 28.7 18.5 27.2C18.5 26.9 18.2 26.9 18.1 27.1C18 27.4 17 29.7 17.1 29.8C17.7 30.4 17.7 28.5 17.7 28.4C17.7 28.2 17.4 28.1 17.3 28.3C16.7 29.6 16.1 30.9 15.6 32.3C15.5 32.5 15.9 32.6 16 32.4C16.7 30.6 17.2 28.8 17.7 27C17.8 26.8 17.4 26.6 17.3 26.8C16.3 28.5 15.6 30.4 14.8 32.2C14.7 32.4 15 32.6 15.1 32.4C16.3 30.6 16.8 28.7 17.3 26.7C17.4 26.5 17 26.3 16.9 26.5C15.9 28.3 15.2 30.3 14.4 32.2C14.3 32.4 14.7 32.5 14.8 32.4C15.7 30.9 16.2 29.4 16.1 27.6C16.1 27.4 15.8 27.3 15.7 27.5C14.9 29.2 14.3 30.9 14 32.7C14 32.9 14.3 33.1 14.4 32.9C15.4 30.6 16.3 28.2 16.9 25.7C16.9 25.5 16.6 25.3 16.5 25.5C15.2 28.1 14.1 30.6 13.8 33.5C13.8 33.7 14.1 33.7 14.2 33.6C15 31.7 15.6 29.9 15.4 27.9C15.4 27.7 15.1 27.6 15 27.8C14.5 29.4 13.8 31 13.5 32.7C13.5 33 13.8 33 13.9 32.8C14.7 30.8 15.5 28.8 15.9 26.6C15.9 26.4 15.6 26.2 15.5 26.4C14.5 28.7 13.6 31.1 13 33.6C12.9 33.9 13.3 33.9 13.4 33.7C14.5 30.9 15.7 28.1 15.6 25C15.6 24.8 15.3 24.7 15.2 24.9C13.9 27.9 12.8 31.1 12.2 34.3C12.2 34.5 12.5 34.7 12.6 34.5C13.6 32.1 14.5 29.7 14.3 27C14.3 26.8 14 26.7 13.9 26.9C13.3 29 12.7 31.1 12.4 33.3C12.4 33.5 12.7 33.7 12.8 33.4C13.6 30.7 14.5 28 14.8 25.2C14.8 25 14.5 24.9 14.4 25.1C13.2 28 12.4 31 11.7 34C11.6 34.3 12 34.3 12.1 34.1C13.1 31.2 14 28.3 13.8 25.2C13.8 25 13.5 24.9 13.4 25.1C12.1 27.5 11.4 30.2 10.7 32.8C10.6 33 11 33.2 11.1 33C12.6 30.3 13.1 27.3 13.8 24.3C13.9 24.1 13.5 23.9 13.4 24.1C12.1 26.6 11.2 29.3 10.9 32.1C10.9 32.3 11.2 32.4 11.3 32.2C12.6 30.2 13.2 27.8 12.8 25.4C12.8 25.2 12.5 25.2 12.4 25.4C11.6 27.6 11.2 29.8 10.7 32C10.6 32.3 11 32.4 11.1 32.1C11.6 30.2 12 28.4 11.8 26.4C11.8 26.2 11.5 26.1 11.4 26.3C10.7 28.4 9.8 30.3 9.2 32.5C9.1 32.7 9.5 32.9 9.6 32.7C10.9 29.9 12 27.1 12.1 24C12.1 23.8 11.8 23.7 11.7 23.9C10.9 26.4 10.1 28.8 9.7 31.3C9.7 31.5 10 31.6 10.1 31.4C10.3 31 11.9 27.7 11.6 27.4C11.2 26.9 11.1 28.5 11.1 28.7C11 29.6 10.8 30.4 10.7 31.3C10.7 31.6 11 31.7 11.1 31.4C11.5 30.3 11.8 29.2 12.2 28.1C12.4 27.4 13.1 25 12.2 26.9C11.3 28.9 10.9 31.2 10.3 33.3C10.2 33.5 10.6 33.7 10.7 33.5C11.9 30.8 12.9 28 13.4 25.1C13.4 24.9 13.1 24.7 13 24.9C12 27 11.5 29.3 11 31.6C11 31.8 11.3 32 11.4 31.8C12.6 29.5 13.1 26.9 13.6 24.4C13.7 24.1 13.3 24.1 13.2 24.3C12.7 25.5 12.3 26.8 11.8 28.1C11.6 28.5 10.7 30.1 10.8 30.5C11 31.3 11.3 30.2 11.4 30C11.6 29.6 12.6 27.4 13.1 28C13.2 28.1 13.2 29.3 12.9 29.3C12.4 29.3 12 25.6 12 25.4C12 25.2 11.7 25.1 11.6 25.3C10.6 27.6 9.8 29.9 9.1 32.2C9 32.4 9.4 32.6 9.5 32.4C10.5 30.1 11.2 27.7 11.7 25.2C11.8 25 11.5 24.9 11.3 25C9.8 27.2 9.3 29.8 8.8 32.4C8.8 32.6 9 32.7 9.2 32.6C10.4 30.8 10.9 28.8 10.9 26.6C10.9 26.4 10.6 26.4 10.5 26.5C9.7 28.5 9.1 30.5 8.8 32.7C8.8 32.9 9.1 33.1 9.2 32.8C9.9 30.7 10.4 28.6 10.4 26.4C10.4 26.2 10.1 26.2 10 26.3C9.9 26.6 8.2 31 8.3 31.1C8.7 31.3 9.5 27.5 9.7 26.9C10.5 26.7 10.1 26.6 10.1 26.9Z" fill="#5F3710"/>
<path d="M27.5 54.7C27.2 55.9 26.9 56.9 27 58.2C27 58.4 27.3 58.5 27.4 58.3C27.9 57.1 28.4 55.5 28.4 54.2C28.5 53.1 28.5 53.4 28.2 54.1C28 54.7 27.7 55.8 27.7 56.5C27.7 57.5 28 56.2 28.1 55.8C28.2 55.2 28.3 54.4 28.6 53.8C28.9 53 28.6 54.7 28.5 55.1C28.4 55.9 28.4 56.7 28.4 57.5C28.4 57.8 28.8 57.7 28.8 57.5C29 56 29.3 54.6 29.6 53.1C29.7 52.6 29.9 52.1 29.9 51.6C29.9 51.3 30.1 50.3 29.9 51.2C29.7 52.4 29.6 53.7 29.4 54.9C29.3 55.2 28.9 56.2 29.2 56.3C29.4 56.4 29.6 54 29.6 54.3C29.7 53.8 30.2 51.4 30 51.4C29.9 51.4 29.2 54.3 29 54.9C28.4 56.5 29 54.9 29.1 54.5C29.3 53.9 29.3 53.3 29.5 52.7C29.8 51.5 30.1 50.3 30.3 49.1C30.4 48.8 30 48.8 29.9 49C29.5 50.2 29 51.5 28.6 52.7C28.5 53.1 27.7 56.3 27.4 56.4C28 56.3 28.3 53.6 28.4 53.1C28.6 52.5 28.9 51.9 28.9 51.4C29 50.4 28.5 52.3 28.5 52.4C28.2 53.5 27.7 54.7 27.5 55.8C27.5 55.9 27.2 56.9 27.6 56.5C27.8 56.3 27.8 55 27.9 54.7C28 54.1 28.2 53.4 28.2 52.9C28.1 52.4 28.1 53.6 28.1 53.8C28.2 55 28.2 56.3 28.2 57.5C28.2 57.8 28.6 57.8 28.6 57.5C28.6 56.8 28.7 51.6 28.6 51.6C28.3 51.6 28.4 56.8 28.4 57.5C28.4 57.8 28.8 57.7 28.8 57.5C29.1 55.3 29.3 52.7 29.7 50.8C29.5 51.7 29.6 53.1 29.5 54.2C29.5 54.8 29.4 55.4 29.3 56C29.4 56 29.5 56.1 29.6 56.1C29.8 55.6 29.7 54.5 29.7 54C29.8 52.6 30.1 51.1 30.4 49.7C30.7 48.7 30.5 49.1 30.5 49.9C30.5 50.5 30.5 51.1 30.5 51.7C30.5 51.9 29.7 55.8 29.8 55.9C30.2 56.3 30.6 53.2 30.7 52.8C30.9 51.8 31 50.6 31.3 49.8C31 50.9 30.9 52.4 30.6 53.6C30.5 54.2 30.2 56.7 30.6 54.7C30.8 53.9 30.8 53.1 30.9 52.4C30.9 52.1 31.3 51 31.2 50.7C31 50.3 30.9 51.6 30.9 51.8C30.9 52.4 30.9 53 30.8 53.6C30.7 54.4 30.4 55.2 30.4 56C30.4 56.9 30.5 56.1 30.5 55.7C30.6 55.1 31 51.4 30.9 51.4C30.7 51.4 30.8 54.5 30.8 54.8C30.8 55.1 31.2 55.1 31.2 54.8C31.2 53.3 31.3 51.8 31.4 50.3C31.4 50 31.4 49.6 31.4 49.3C30.9 49.2 30.8 49.4 31 50C30.9 50.6 31.1 51.4 31 52.1C31 52.5 30.6 54.2 31.1 54.2C31 54.2 31.1 52.5 31.1 52.3C31.1 51.9 31.6 49.8 31.4 49.6C31.7 50 31.6 51.9 31.6 52.6C31.6 52.9 32 52.9 32 52.6C32 52.2 32.3 48.9 31.8 48.8C32 48.8 31.7 52.5 31.8 52.9C32 53.7 31.9 53.8 32.2 52.8C32.3 52.2 32.2 51.2 32.2 50.6C32.2 50.4 32.3 48.4 32.1 49.5C31.9 50.3 32.1 51.3 32.1 52.1C32.1 52.4 32.5 52.4 32.5 52.1C32.5 51.6 32.5 51.1 32.5 50.6C32.6 49.7 32.5 49.6 32.4 50.2C32.2 51 32.3 51.9 32.3 52.8C32.3 53.1 32.7 53.1 32.7 52.8C32.7 51.5 32.7 50.2 32.7 48.9C32.7 48.6 32.3 48.6 32.3 48.9C32.3 49.6 32.3 50.2 32.3 50.9C32.3 51 32.1 52.7 32.7 52.1C33.1 51.7 32.4 49.1 32.2 48.6C32.1 48.4 31.8 48.5 31.8 48.7C32 49.8 32.1 50.8 32.3 51.9C32.3 52.1 32.7 52.1 32.7 51.8C32.6 50.9 32.5 50.1 32.2 49.3C32.1 49.1 31.7 49.2 31.8 49.4C31.9 49.7 32 50.7 32.5 50.5C32.6 50.5 32.3 49.1 32.3 49.2C32.3 49.1 32.2 49.1 32.1 49.3C31.6 49.6 31.6 50 32.2 50.7C32.3 51.4 32.3 52.1 32.3 52.8C32.3 53.1 32.7 53.1 32.7 52.8C32.7 51.5 32.7 50.2 32.7 48.9C32.7 48.6 32.3 48.6 32.3 48.9C32.3 49.6 32.3 50.3 32.3 51C32.3 51.4 32.1 52.3 32.5 52.2C33 52.1 32.5 49.7 32.4 49.1C32.4 48.9 32 48.9 32 49.2C32 50.2 32 51.2 32 52.2C32 52.5 32.4 52.5 32.4 52.2C32.4 51 32.4 49.7 32.4 48.5C32.4 48.3 32.1 48.2 32 48.4C31.6 50.4 31.7 52.4 31.7 54.4C31.7 54.7 32.1 54.7 32.1 54.4C32.1 52.3 32.1 50.3 32.1 48.2C32.1 48 31.7 47.9 31.7 48.1C31.5 49.2 31.2 50.5 31.4 51.6C31.6 52.6 31.7 51.3 31.7 51.1C31.8 50.4 31.4 49.5 31.3 48.9C31.3 48.7 31 48.7 30.9 48.9C30.5 50.9 30.4 52.8 30.4 54.9C30.4 55.1 30.7 55.2 30.8 55C31.2 52.9 31.1 50.9 31.1 48.8C31.1 48.5 30.7 48.5 30.7 48.8C30.7 50.3 30.3 52 30.5 53.5C30.6 54.5 30.7 54.5 30.9 53.5C31 52.6 30.9 51.6 30.9 50.7C30.9 50.5 30.6 50.4 30.5 50.6C30.1 52.7 29.8 54.9 29.8 57C29.8 57.2 30.1 57.3 30.2 57.1C30.9 54.7 30.9 52.4 30.9 49.9C30.9 49.7 30.5 49.6 30.5 49.8C30.2 51.9 29.8 53.9 29.8 56C29.8 56.3 30.2 56.2 30.2 56C30.5 53.6 31.3 51.3 31.2 48.9C31.2 48.7 30.9 48.6 30.8 48.8C30.1 51.3 29.8 53.9 29.3 56.4C29.3 56.6 29.6 56.8 29.7 56.5C30.4 53.7 30.9 50.9 30.4 48C30.4 47.8 30.1 47.8 30 48C29.3 50.9 28.8 53.7 28.8 56.7C28.8 56.9 29.1 57 29.2 56.8C29.6 54.6 29.7 52.4 29.7 50.1C29.7 49.9 29.4 49.8 29.3 50C28.7 52 28.5 54 28.2 56.1C28.2 56.3 27.9 57.5 28.4 56.7C28.6 56.4 28.4 55.3 28.4 54.9C28.4 53.5 28.4 52.2 28.4 50.8C28.4 50.5 28 50.5 28 50.8C27.9 51.8 27.8 52.8 27.8 53.8C27.8 54.2 27.5 56.6 27.8 56.8C28.5 57.3 28.2 55.2 28.2 54.8C28.2 53.9 28.1 53 28 52.1C28 51.9 27.6 51.8 27.6 52C27.4 53.7 27.1 55.4 26.9 57.2C26.9 57.4 27.2 57.6 27.3 57.3C27.9 55 28.7 52.7 29 50.4C29 50.2 28.7 50.1 28.6 50.3C27.9 52.6 27.2 54.9 26.9 57.2C26.9 57.4 27.2 57.5 27.3 57.3C27.5 56.5 29.7 49.9 29.6 49.9C29.3 49.8 28.2 55.4 28.1 56.3C28.1 56.5 28.4 56.5 28.5 56.4C29.3 54.5 29.9 52.7 30 50.7C30 50.5 29.7 50.4 29.6 50.6C29.1 52.7 28.7 54.9 28.6 57C28.6 57.2 28.9 57.3 29 57.1C29.5 54.8 30.1 52.6 30 50.2C30 50 29.7 49.9 29.6 50.1C29.4 51.1 29.2 52.1 28.9 53.1C28.7 54.1 28.1 55.4 28.2 56.4C28.3 57.4 28.5 56.3 28.5 55.8C28.6 54.8 28.7 53.9 28.7 52.9C28.7 52.7 28.4 52.6 28.3 52.8C27.6 54.3 27.3 55.9 27.1 57.5C27.1 57.7 27.4 57.9 27.5 57.6C28 56.1 28.2 54.5 28.5 52.9C28.5 52.6 28.2 52.6 28.1 52.8C27.6 54 27.4 55.3 27.1 56.5C27.1 56.7 26.8 57.5 26.9 57.5C26.9 57.5 27.4 55 27.5 54.8C28 54.5 27.6 54.4 27.5 54.7Z" fill="#5F3710"/>
<path d="M46.3 23.7C46.3 24.2 45.8 27.9 46.1 28.2C47 29.3 46.9 26.1 46.9 25.7C47.1 23.4 47.1 28.2 47.1 28.3C47.2 29.4 47.3 30.5 47.5 31.6C47.6 32.1 48.3 31.9 48.3 31.5C48.3 28.4 48.2 25.3 48.5 22.2C48.6 21.8 47.8 21.6 47.7 22.1C47.5 23.7 47.3 25.3 47 26.9C46.9 27.4 46.3 32 46.9 29.2C47.1 27.9 47.4 25.7 47 24.9C47 24.9 46.7 29 46.7 29.8C46.7 30.3 47.5 30.3 47.5 29.8C47.5 29.4 47.8 23.6 48.2 23.5C46.8 23.7 47.5 27.2 47.5 28.5C47.5 29 48.3 29 48.3 28.5C48.3 26.1 48.8 23.4 48.4 21C48.1 19 48.2 22.8 48.2 23.2C48.2 24.8 48.2 26.4 48.2 28C48.2 28.5 49 28.5 49 28C49 25.7 49.6 22.8 49.3 20.6C49.1 19.3 49.1 19.7 48.9 20.7C48.5 22.4 48.7 25.1 48.4 26.7C48.3 27.2 49.1 27.4 49.2 26.9C49.6 24.4 50.2 21.4 49.9 18.8C49.7 16.5 49.4 19.3 49.4 20C49.2 21.8 49.4 23.7 49.4 25.5C49.4 26 50.2 26 50.2 25.5C50.3 24.5 51.7 17.7 51 17C50.9 16.9 50.6 22.8 50.6 23.7C50.6 24.2 51.3 24.2 51.4 23.7C51.6 22 52.6 17.6 51.7 16C50.8 14.5 51.1 16.9 50.9 17.7C50.7 18.8 50.1 23.6 51.9 19.2C52.3 18.2 52.5 16.3 52.5 15.4C52.6 14.9 51.8 19.4 51.9 19.5C53.5 20.1 52.8 8.30001 52.8 18C52.8 18.5 53.5 18.5 53.6 18.1C54.1 16.4 54.7 14.4 54.5 12.8C54.5 12.8 54.1 16.3 54 17.2C54 17.6 54.7 17.8 54.8 17.3C55 16.5 56 13.5 55.6 12.8C54.9 11.5 54 17.3 55.1 15.6C55.4 15.2 56.1 10.6 56 10.2C55.2 9.40001 55.1 9.80001 55.5 11.5C55.5 13.2 55.3 14.8 55.1 16.5C55 17 55.8 17.2 55.9 16.7C56.2 15.2 56.2 12 56.6 10.9C54.9 15.7 59 7.50001 57.5 10.5C56.8 12 56.2 14.5 57.8 11.3C58.7 9.30001 59.1 6.70001 59.4 4.60001C59.5 4.10001 58.8 3.90001 58.6 4.40001C57.4 7.70001 57.4 11.1 57.4 14.6C57.4 15 58.1 15.2 58.2 14.7C58.4 13.3 59 11.6 59.1 10.2C59.3 7.30001 59.1 9.90001 58.8 9.90001C58.6 11.1 58.7 11.2 59.3 10.1C59.9 9.50001 60.2 8.70001 60.2 7.70001C60.1 7.60001 59.9 7.50001 59.8 7.40001C59.8 8.80001 59.6 10.2 59.3 11.5C59.2 12 59.9 12.2 60.1 11.7C60.4 10.3 61.1 8.30001 60.9 7.40001C61.4 9.00001 60.5 11.8 60.3 13.5C60.2 14 61 14 61.1 13.6C61.5 12.1 63.2 8.10001 62.5 6.40001C61.7 4.30001 61.4 10.7 61.3 11.4C61.2 11.9 62 12.1 62.1 11.6C62.4 9.80001 63.9 3.50001 62.3 10.2C62.2 10.7 62.9 10.9 63.1 10.4C63.3 9.80001 63.9 6.00001 63.7 6.30001C62.9 7.50001 63 10.1 62.8 11.7C62.8 12.1 63.5 12.3 63.6 11.8C63.7 11.2 65 6.30001 64.2 6.30001C63.3 9.10001 63.5 9.60001 64.8 7.80001C64 8.00001 63.7 8.60001 64 9.50001C63.9 10 64.7 10.2 64.8 9.70001C64.9 9.20001 65.5 4.90001 65.9 4.80001C64.7 5.20001 65.1 8.70001 65 10.1C65 10.6 65.7 10.6 65.8 10.2C66 9.50001 67.6 5.40001 66.2 5.80001C65.9 5.90001 65.6 9.80001 65.5 10.3C65.4 10.8 66.1 10.8 66.3 10.4C66.6 9.70001 68.3 6.60001 67.1 7.30001C66.4 7.70001 66.3 9.50001 66 10.2C65.9 10.6 66.5 10.9 66.7 10.5C67.3 9.00001 67.1 9.50001 67.7 7.90001C69 4.70001 67.2 9.40001 67 10.2C66.8 10.7 67.6 10.9 67.8 10.4C68.7 9.60001 68.8 8.80001 68.2 8.10001C68.2 9.20001 68.1 10.2 68 11.2C67.9 11.7 68.6 11.7 68.8 11.3C69.1 10.5 70.4 7.40001 69.6 7.20001C69.2 7.10001 68.2 11 68 11.6C67.8 12.1 68.6 12.3 68.8 11.8C69.1 10.9 69.5 10 69.8 9.20001C69.3 10 69.1 10.9 69 11.9C68.9 12.3 69.5 12.7 69.7 12.2C69.7 12.3 71.2 8.60001 71.1 8.70001C69.9 9.00001 70.2 12.2 69.9 13.7C69.8 14.2 70.5 14.4 70.7 13.9C71.2 12.6 71.8 11.1 71.9 9.60001C72 8.60001 70.7 12.8 70.8 13.8C70.9 18 70.8 13.5 71.5 13.7C72.2 13.9 69.6 17 71 17.3C72.7 17.7 71.2 12.7 72.4 15C73.6 17.2 70.5 20.5 72.4 17.5C72.8 15.4 72.6 15.6 71.6 17.9C71.4 18.8 71.1 19.6 70.8 20.5C69.7 23.6 71.2 18.3 71.4 17.3C71.5 16.8 70.8 16.6 70.6 17.1C70.4 17.8 67.8 23.4 68 23.6C67.7 23.3 69.1 19.4 69.2 19C69.3 18.5 68.6 18.3 68.4 18.8C67.6 21 66 23.8 66 26C66 24.1 66.9 21.8 67.4 20C67.5 19.5 66.8 19.3 66.6 19.8C65.8 22.1 65.1 24.4 64.3 26.8C63.3 29.7 65.9 21.5 65.6 21.1C65 20.2 63.2 25.8 63.1 26.4C62.4 31.2 64 24.5 64.2 23C64.3 22.5 63.6 22.3 63.4 22.8C62.7 24.7 62.2 28 61 29.5C61 29.5 63.5 25.5 61.6 25.5C61 25.5 60.6 31.3 60 31.6C61.3 30.9 61.3 27.4 61.5 26.1C61.6 25.6 60.8 25.6 60.7 26C60 28.2 59.5 30.4 59 32.6C58.8 33.3 58.3 36.6 58.8 33.2C59 31.6 59.3 30 59.6 28.5C59.7 28 59 27.8 58.8 28.3C58.1 30.7 57.4 33 57.1 35.4C57 35.9 57.7 36.1 57.9 35.6C58.4 33.7 58.9 31.8 59.4 29.9C59.5 29.4 58.8 29.2 58.6 29.7C58.2 30.6 57.8 31.5 57.5 32.4C57.4 34 57.1 34.3 56.7 33.4C56.3 34.3 55.7 37.7 57 35.5C57.5 34.7 59.8 27.8 58.3 32.4C57.6 34.5 56.7 36.6 55.9 38.7C55.7 39.1 56.4 39.4 56.6 39C57.1 37.9 59.9 30 60.5 30.1C60.9 30.1 58.6 38.7 61.3 31.7C61.7 30.8 62.1 29.8 62.5 28.9C62.3 29.9 62.1 30.9 61.8 31.9C61.8 33.3 61.5 34.7 62.6 31.8C62.8 31.2 63.4 28.9 62.6 30.8C61.9 32.4 61.7 34.5 61.2 36.2C61.1 36.7 61.8 36.9 62 36.4C62.6 34.6 63 32.6 63.7 30.9C63.5 31.4 62.8 35.2 62.4 36.7C62.3 37.2 63 37.4 63.2 36.9C63.4 35.9 64.1 32 64.4 31.7C64.2 31.9 63.7 34.3 63.8 34.7C63.7 33.5 65.8 36.9 64.6 35.9C64.3 36.9 64.3 37.1 64.8 36.2C65.2 35.6 65.5 35 65.7 34.3C67 31.7 65.7 33.3 66 34.6C65.5 36.4 65.6 36.6 66.2 35.3C66.6 34.8 66.8 34.2 66.9 33.6C67.2 32.4 67.3 32.4 67.1 33.5C67.1 34.3 67 35.1 66.9 35.8C66.8 36.3 67.6 36.3 67.7 35.9C67.9 35.2 69.6 30.5 69 34.5C68.8 35.7 68 37 68.4 37.9C68.4 37.9 70.5 33.7 70.3 33.5C70.6 33.8 69.5 37.3 69.4 37.7C69.3 38.1 69.9 38.4 70.1 38C70.3 37.5 71.8 33.8 71.8 33.8C70.7 33.9 70.1 37.6 69.8 38.7C69.7 39.2 70.4 39.4 70.6 38.9C70.9 37.9 71.3 36.8 71.5 35.7C71.6 35.3 72.1 32.1 71.8 33.5C71.7 34 72.4 34.2 72.6 33.7C72.7 33.4 72.8 33 72.8 32.7C72.9 32.3 72.3 32 72.1 32.4C71.4 33.6 70.3 35.4 70.4 36.8C70.6 39.2 72.2 33.2 72.3 32.5C72.4 32 71.7 31.8 71.5 32.3C71.3 32.8 69.9 37.6 70.5 35.7C70.9 34.5 71 33.2 71.1 31.9C71.1 31.5 70.5 31.4 70.4 31.7C68.9 34.2 68.1 36.5 67.7 39.4C67.6 39.9 68.4 40.1 68.5 39.6C69.1 36.9 70 34.3 70.5 31.5C70.6 31.1 70.2 30.8 69.8 31.1C69.3 31.5 67.4 34.3 67.4 34.3C68.4 34 68.1 32.5 68.1 31.1C68.1 30.7 67.5 30.5 67.4 30.9C66.4 33.1 65.6 35.3 65.4 37.7C65.4 38.2 66.1 38.2 66.2 37.8C66.9 35.5 67.3 33.7 67.2 31.3C67.2 30.9 66.7 30.7 66.5 31.1C65.2 33.5 64.4 35.7 64.2 38.4C64.2 38.9 64.9 38.9 65 38.5C65.7 36.2 66.1 33.9 66.2 31.5C66.2 31.1 65.6 31 65.5 31.3C64.6 32.8 64.1 34.1 63.7 35.8C63.6 36.3 64.3 36.5 64.5 36C65 34 65.4 32.1 65.7 30.1C65.8 29.6 65.1 29.4 64.9 29.9C64.5 30.9 63.8 32.1 63.6 33.2C63.5 34 62.9 36.3 64 34.5C64.8 33.2 64.7 30.4 64.7 29C64.7 28.5 64.1 28.5 63.9 28.9C63.7 29.6 61.2 34.8 62.6 34.7C63.1 34.7 63.8 29.2 63.9 28.6C64 28.1 63.3 27.9 63.1 28.4C62.3 30.5 61.5 32.6 61.1 34.8C61 35.3 61.7 35.5 61.9 35C62.5 32.4 63.4 30 63.4 27.3C63.4 26.9 62.8 26.7 62.7 27.1C61.2 30 60.1 32.9 59.2 36.1C59.1 36.6 59.8 36.8 60 36.3C61 33.7 61.6 31.3 61.5 28.6C61.5 28.2 61 28 60.8 28.4C60.1 29.6 57.4 37.2 57.1 37.4C58.7 36.4 59.6 31.8 59.8 29.6C59.8 29.2 59.3 29.1 59.1 29.4C57.4 31.9 56.6 34.6 55.9 37.6C55.8 38.1 56.5 38.3 56.7 37.8C57.2 36 57.6 34.2 57.9 32.4C58 31.9 57.2 31.7 57.1 32.2C56.7 34.1 56.8 33.6 56.6 35.5C56.6 36 57.2 36 57.4 35.6C57.7 34.9 59.7 31 58.5 31.1C58.4 31.1 57.1 36.1 58.6 33C59.1 31.9 59.8 28 58.6 31.6C58.1 33 58.1 34.9 58.1 36.3C58.1 36.7 58.7 36.9 58.8 36.5C59.7 34.4 60.2 32.2 60.8 29.9C61 29 61.8 25.2 60.6 29.5C60.3 30.6 60.2 32.2 60.1 33.3C60 33.7 60.8 33.8 60.9 33.4C61.5 30.3 62.5 27.4 63.1 24.3C63.2 23.8 62.4 23.6 62.3 24.1C61.7 26.5 61.2 28.8 60.8 31.2C60.7 31.7 61.4 31.9 61.6 31.4C62.3 29.5 62.8 26.2 64 24.7C63.2 25.8 62.8 28.2 62.3 30C62.2 30.5 62.9 30.7 63.1 30.2C64.3 26.7 65.3 23.1 66.5 19.6C66.7 19.1 65.9 18.9 65.7 19.4C64.5 22.7 64 25.9 63.7 29.3C63.7 29.8 64.3 29.8 64.5 29.4C65 28.2 67.7 22.8 67.2 21.5C66.7 20.2 66.2 22.6 66.1 22.7C65.6 23.9 65.4 25.9 65.2 27.2C65.1 27.6 65.7 27.9 65.9 27.5C66.4 26.5 69.1 21.8 68.8 20.7C68.5 19.6 67.4 24.7 67.4 25.6C67.4 26 68 26.2 68.1 25.8C68.7 24.3 71.2 20.7 71.1 19C71 17.6 70.3 19.9 70.2 20C69.9 20.9 70.1 22.3 70.1 23.2C70.1 23.7 70.7 23.7 70.9 23.3C72 20.4 72.9 17.7 73.1 14.6C73.1 14.2 72.4 14.1 72.3 14.5C71.9 16.5 71.6 18.4 71.5 20.5C71.5 21 72.1 21 72.3 20.6C73.3 17.9 73.3 15.5 73.3 12.6C73.3 12.2 72.7 12 72.6 12.4C71.5 14.5 70.9 16.6 70.3 18.9C70.2 19.4 70.9 19.6 71.1 19.1C71.8 16.3 72.5 13.5 72.8 10.6C72.8 10.2 72.2 10 72.1 10.4C71.2 12.4 70.6 14.5 70.1 16.6C70 17.1 70.7 17.3 70.9 16.8C71.9 13.8 72.5 11 72.4 7.80001C72.4 7.40001 71.7 7.20001 71.6 7.70001C71.5 8.40001 70.3 12.8 71.2 12.2C71.7 11.8 71.8 7.30001 71.9 6.90001C71.9 6.40001 71.2 6.40001 71.1 6.80001C70.9 7.50001 70.2 12.2 70.2 10.1C70.2 10 70.4 7.30001 70.4 7.90001C70.4 7.40001 69.8 7.40001 69.6 7.80001C69.5 8.00001 67.8 11.3 69.4 10.5C70.1 10.1 70.3 6.70001 70.4 6.10001C70.5 5.60001 69.8 5.40001 69.6 5.90001C69.4 6.70001 68.5 9.10001 68.6 10C68.7 10.4 69.2 7.10001 69.2 6.80001C69.2 6.30001 68.5 6.30001 68.4 6.70001C68.2 7.60001 68.1 10.2 68.6 8.00001C68.8 7.10001 68.7 6.20001 68.7 5.30001C68.7 4.90001 68 4.70001 67.9 5.20001C67.8 5.70001 66.6 10.5 67.5 8.70001C68 7.80001 67.9 6.30001 68 5.30001C68 4.90001 67.3 4.70001 67.2 5.20001C67.1 5.60001 66.1 9.90001 66.6 8.10001C67 7.00001 67.2 5.80001 67.4 4.60001C67.5 4.10001 66.8 3.90001 66.6 4.40001C66.3 5.40001 65.9 8.30001 65.8 8.50001C66.2 7.10001 66.2 5.00001 66.2 3.20001C66.2 2.70001 65.4 2.70001 65.4 3.20001C65.2 4.80001 64.9 6.30001 64.5 7.90001C65.5 8.60001 65.8 8.20001 65.5 6.50001C65.6 6.00001 64.9 5.80001 64.7 6.30001C64.2 7.70001 63.9 8.90001 63.7 10.3C63.7 10.7 64.4 10.8 64.5 10.4C64.9 8.50001 65.2 6.80001 65.3 4.90001C65.3 4.50001 64.6 4.40001 64.5 4.80001C64.3 5.50001 63 9.80001 63.6 9.80001C64.4 9.80001 64.4 5.30001 64.5 4.50001C64.5 4.10001 63.8 4.00001 63.7 4.40001C63.6 4.90001 62.8 9.10001 63.2 8.80001C63.8 8.20001 63.7 6.80001 63.8 5.50001C63.8 5.00001 63.2 5.00001 63 5.40001C62.6 6.60001 61.9 7.90001 61.9 9.10001C61.9 9.10001 61.9 11.1 62.4 10.5C63.2 9.60001 62.7 5.70001 62.8 4.50001C62.8 4.00001 62 4.00001 62 4.50001C61.9 6.40001 60.4 10.6 61.5 11.9C61.1 11.4 61.9 6.70001 61.8 5.80001C61.8 5.40001 61.1 5.20001 61 5.70001C60.8 6.30001 59.2 10.5 60.6 10.1C60.9 10 60.8 6.10001 60.8 5.80001C60.8 5.40001 60.1 5.20001 60 5.70001C59.5 8.00001 58.9 10.1 58.8 12.4C58.8 12.9 59.6 12.9 59.6 12.4C59.8 10.5 59.8 8.70001 59.8 6.70001C59.8 6.30001 59.1 6.10001 59 6.60001C58.9 7.30001 57.4 12.4 57.7 12.7C58.5 13.5 58.4 9.10001 58.5 8.50001C58.7 6.60001 59.5 4.10001 58 7.50001C57.1 9.60001 56.7 12 56.4 14.2C56.3 14.7 57 14.9 57.2 14.4C57.7 12.2 58.2 10.2 58.2 7.90001C58.2 7.50001 57.5 7.30001 57.4 7.80001C57.1 9.70001 56.6 11.6 56.4 13.6C56.4 14.1 57.1 14.1 57.2 13.6C57.4 12.1 57.4 10.7 57.4 9.20001C57.4 8.70001 56.7 8.70001 56.6 9.10001C56.4 9.80001 55.5 15.3 56.1 14.7C56.9 13.9 56.4 9.10001 56.4 8.00001C56.4 7.60001 55.7 7.40001 55.6 7.90001C55.1 10.9 54.6 14 54.1 17C54 17.5 54.7 17.7 54.9 17.2C55.5 15.2 55.8 13.3 55.9 11.2C55.9 10.7 55.2 10.7 55.1 11.2C55 11.6 54 15.4 55 15.6C54.9 15.6 55.2 11.2 55.2 11C55.2 10.6 54.5 10.4 54.4 10.9C54.4 11.1 53.4 16.1 53.4 16.1C54.1 16.4 53.7 12.4 53.7 12.2C53.7 11.8 53 11.6 52.9 12.1C52.4 15 52 17.9 51.7 20.8C51.7 21.2 52.4 21.3 52.5 20.9C53 18.5 53.4 16.2 53.3 13.7C53.3 13.3 52.6 13.1 52.5 13.6C51.7 16.6 51.1 19.5 50.8 22.6C50.7 23.1 51.5 23.1 51.6 22.6C52 19.8 51.9 17 51.8 14.2C51.8 13.7 51 13.7 51 14.2C51 16.5 50.6 19.3 51 21.5C51.3 23.5 51.6 20.4 51.6 20.1C51.8 18.5 51.5 16.8 51.3 15.2C51.2 14.7 50.5 14.7 50.5 15.2C50.4 16.4 48.9 22.6 49.7 23.6C50.4 24.5 50.4 21.7 50.4 21.7C50.6 19.9 50.4 17.8 50.4 16C50.4 15.5 49.7 15.5 49.6 16C49.5 17.2 48.2 24.1 49.7 24.9C49.6 24.9 49.8 18.7 49.7 18C49.6 17.5 48.9 17.5 48.9 18C48.8 19.1 47.6 25.4 48.4 26.2C49.2 27 49.2 24 49.2 24C49.4 22.2 49.2 20.1 49.2 18.2C49.2 17.8 48.5 17.6 48.4 18.1C48.1 20.3 47.6 22.8 47.7 25C47.7 25.2 47.5 27.7 48.4 26.7C48.7 26.3 48.4 22.3 48.4 21.7C48.4 21.2 47.6 21.2 47.6 21.7C47.6 22.1 47.3 27.9 46.9 28C48.3 27.8 47.6 24.3 47.6 23C47.6 22.5 46.8 22.5 46.8 23C46.5 25.9 46.2 28.7 46.1 31.6C46.1 32.1 46.8 32.1 46.9 31.7C47.4 29.8 48.3 27.3 48.2 25.3C48.1 23.9 48.3 22.2 47.6 25.1C47.5 25.7 47.3 29.3 47.6 29.9C48.1 28.8 48.2 27.6 47.9 26.5C47.8 25.4 47.8 24.2 47.7 23.1C47.7 22.7 47 22.5 46.9 23C46.3 25.3 46.2 27.4 46.1 29.7C46.1 30.2 46.9 30.2 46.9 29.7C46.9 27.6 47.1 25.6 47.1 23.5C47.1 23.2 46.3 23.2 46.3 23.7Z" fill="#D83633"/>
<path d="M72.1 34.4C71.8 35.5 71.5 36.6 71.2 37.7C70.3 41.2 71.2 38.4 71.5 37.6C71.9 36.4 72.1 35.3 72.6 34.2C74 30.9 72.5 35.7 72.4 36.2C72.2 37 72 38.8 71.5 39.4C72.1 38.8 72.1 37.4 72.4 36.7C72.7 35.8 73.7 32.4 72.8 35.2C72.3 36.7 72 38.3 71.7 39.7C71.6 40.2 72.3 40.4 72.5 39.9C72.5 39.7 73.8 35.2 73.9 35.3C74 35.3 72.3 42.4 73.8 39.6C74.2 38.9 74.7 34.1 75.1 36.2C75.4 37.9 74.7 40.1 74.6 41.8C74.6 42.3 75.3 42.3 75.4 41.8C75.3 42.6 77.4 33.7 75.9 37.8C75.6 38.6 74.9 40.5 75.3 40.9C75.6 41.2 76.8 37.1 76.8 37.1C77.9 38 75.5 42.1 76.2 42.9C77.1 43.9 77.4 40.5 77.2 39.7C77.3 40.2 75.5 44.5 76.6 43C77.3 42 78 40.2 77.8 42.8C77.7 43.7 75.4 50.2 76.7 45.1C77 43.8 76.6 42.7 77.1 44C77 44.9 77.1 45.7 77.4 46.5C77.6 45.5 77.7 44.5 77.9 43.6C77.9 43.7 76 49.3 75.9 49.3C75.5 49.3 75.9 45.9 76.2 46.6C76.6 47.7 73.3 50.6 74.6 50.9C74 50.7 75.5 47.1 75.6 46.1C75.6 46 74.9 51.4 74.2 51.8C74.6 51.6 74.4 47.2 74.4 46.8C74.4 46.4 73.7 46.2 73.6 46.7C73.4 48.2 73.1 49.5 72.7 51C71.9 54.4 73.1 49.6 73.4 48.7C73.5 48.2 72.8 48 72.6 48.5C72.3 49.6 71.6 53.1 70.8 53.9C70.3 54.4 71.8 49.9 71.2 49.6C71.4 49.7 69.4 54.3 69.5 54.3C69.2 54 70.8 49.9 70.9 49.6C71.1 49.1 70.3 48.9 70.1 49.4C70 49.8 68.4 54.6 67.6 55.2C67.5 55.3 67.9 53.3 68 52.7C68.1 52.2 67.3 52.2 67.2 52.6C66.9 53.5 66.7 54.5 66.3 55.4C65.2 58 66.3 54.5 66.3 53.5C66.3 52.8 67.2 51.7 66 51.8C65.9 51.8 65.1 55.4 65.1 55.6C64.3 58.5 66.3 50.5 64.9 53.2C64.6 53.8 64.5 55 64.6 55.3C64.5 55.2 65.4 51.7 65.5 51.2C65.6 50.8 65 50.5 64.8 50.9C63.6 53.7 63.6 56.6 63.6 51.6C63.6 51.1 63 51.1 62.8 51.5C60.5 57.7 61.7 53 61.9 50.9C61.9 50.5 61.2 50.3 61.1 50.8C60.9 52.2 60.4 53.5 60.1 54.9C60.2 54.2 60.9 51.6 61.1 50.3C61.2 49.8 60.4 49.6 60.3 50.1C60.1 51.2 59.8 52.3 59.6 53.5C59.6 52.6 59.6 51.7 59.6 50.7C59.6 50.2 59 50.2 58.8 50.6C58.6 51.2 57.8 53.5 57.9 53.4C58.1 53.3 58.3 49.7 58.3 49.7C58.4 49.2 57.6 49.2 57.5 49.6C56.8 51.6 57.1 51.6 57.1 49.2C57.1 48.8 56.4 48.6 56.3 49.1C56.1 49.9 55.7 52.1 55.7 52.3C55.6 51.7 55.9 49.2 55.9 48.5C55.9 48.1 55.3 47.9 55.2 48.3C56.4 45.5 54.1 51.4 54.5 49.6C54.6 49.1 53.9 48.9 53.7 49.4C53.4 51.3 53.5 50.5 54 47.2C54.1 46.7 53.4 46.5 53.2 47C52.7 48.2 53 48.6 53 47.1C53 45.6 53.3 44.2 53.5 42.7C53.6 42.3 52.8 42.2 52.7 42.6C52.5 43.8 52.2 45.1 51.9 46.3C51.3 48.4 52.3 44.1 52.3 44C52.4 43.5 51.7 43.3 51.5 43.8C50.8 46.5 51.8 44.5 52 43.3C52.1 42.8 51.4 42.6 51.2 43.1C50.3 45.2 51.2 41.8 51.2 40.7C51.2 40.2 50.5 40.2 50.4 40.7C49.8 46.8 50.7 41.4 50.7 40.7C50.4 41.1 50.2 41.6 49.9 42C50.1 40.4 50.3 38.7 50.7 37.1C50.8 36.6 50.1 36.4 49.9 36.9C48.8 39.7 49.9 36.5 49.9 35.3C49.9 34.9 49.4 34.8 49.2 35.1C48.1 36.6 48.8 35.3 49 33.8C49.1 33.3 48.3 33.3 48.2 33.7C47.6 35.8 47.8 36.8 48.5 33.9C48.8 32.9 48.8 31.2 48.9 30.1C48.9 29.6 48.2 29.6 48.1 30C47 34.3 47.9 29.9 47.9 28.4C47.9 28 47.2 27.8 47.1 28.3C46.2 29.4 46.3 30.1 47.3 30.5C46.6 29.4 46.3 29.6 46.4 31C46.3 31.5 47 31.7 47.2 31.2C47.5 30.3 49.1 24.9 48.7 27.8C48.5 29.1 48 30.5 47.7 31.7C47.6 32.2 48.3 32.4 48.5 31.9C48.8 31.1 50.5 27.3 49.7 27.1C49 27 48 31.6 47.8 32.4C47.6 32.9 48.4 33.1 48.6 32.6C49.1 31.3 50.9 25.4 49.1 29.4C48.3 31.2 48.1 33.5 47.8 35.5C47.7 36 48.5 36 48.6 35.6C48.7 35.1 50 31.1 49.8 31C49.8 31 49 36.2 48.8 37.1C48.7 37.6 49.5 37.8 49.6 37.3C49.8 36.3 50.1 35.3 50.2 34.3C50.3 33.5 50.2 31.7 50.2 33.6C50.2 36 50.1 38.5 50 40.9C50 41.3 50.7 41.5 50.8 41C51 39.9 51.2 38.7 51.4 37.5C51.5 36.5 51.6 31.9 51 35.1C50.3 38.9 50.8 43.3 50.3 47.2C50.2 47.7 51 47.7 51.1 47.2C51.3 45.6 51.4 38.8 53 37.7C52.7 37.9 52.4 45.8 52.3 46.1C52.2 46.6 53 46.8 53.1 46.3C53.4 44.7 53.9 42.8 54 41.1C54 40.5 54.4 37.9 53.9 40C53.2 42.8 53.4 46.3 53.5 49.1C53.5 49.5 54 49.7 54.2 49.3C55.8 46.5 56 43.4 56.2 40.2C56.2 39.8 55.5 39.6 55.4 40.1C55 43.3 54.7 46.6 54.4 49.8C54.4 50.2 55.1 50.3 55.2 49.9C55.4 49.1 57.1 44 56.5 43.3C56.1 42.8 55.7 49.4 55.7 50.3C55.7 50.8 56.4 50.8 56.5 50.3C56.4 50.8 58.2 44.7 56.7 45.3C56.3 45.4 56.5 50.7 56.5 51.3C56.5 51.7 57.2 51.9 57.3 51.4C57.5 50.3 58.7 47.1 58.3 46.1C58.3 46.1 56.8 50.7 58.4 48.7C59.2 47.7 59 44.7 58.9 47C58.8 49 58.7 51 58.7 53C58.7 53.5 59.5 53.5 59.5 53C59.5 51.4 59.7 49.7 60 48.1C60.3 46.2 60.5 45.9 60.4 47.2C60.9 48.8 60.4 51.1 60.4 52.7C60.4 53.2 61 53.2 61.2 52.8C61.5 52.1 62.7 47.4 62.5 47.4C62.5 47.4 62.4 53.5 62.4 54C62.4 54.5 63.1 54.5 63.2 54C63.1 55 63.7 48.7 63.9 48.5C63.4 49.2 63.9 52.5 63.9 53.3C63.9 53.8 64.7 53.8 64.7 53.3C65 47.8 64.4 53.1 64.4 54.5C64.4 55 65.1 55 65.2 54.5C65.2 54.3 65.6 48.8 66.4 48.2C65.9 48.6 66.4 51.9 66.5 51.9C67 52.5 67.2 49.1 67.6 48.6C67.6 49.3 67.6 49.9 67.5 50.6C68.8 49.1 69.3 49.7 68.8 52.3C68.8 52.8 69.4 52.8 69.6 52.4C70.1 51.1 70.3 47.8 70.5 51.1C70.5 51.5 71.1 51.6 71.3 51.2C71.6 50.2 72 48.9 72 48.4C72 48.8 72.6 49 72.7 48.6C73.6 46.9 73.5 45.4 73.7 48.2C73.7 48.6 74.3 48.8 74.4 48.4C74.2 48.9 75.8 45 75.9 45.5C75.9 45.9 76.6 46.1 76.7 45.6C77.2 44 77.7 42.3 78.2 40.7C78.4 40.2 77.6 40 77.4 40.5C77.2 41.2 76.8 43.8 76.5 44.1C76.5 44.1 76.8 45.8 76.4 43.5C76.4 43.2 75.8 43.1 75.7 43.4C75.4 44.2 74.2 49.1 74.5 45.3C74.5 44.9 73.9 44.8 73.8 45.1C73.5 45.6 72.8 47.4 72.8 47C72.8 46.5 72.2 46.5 72 46.9C71.5 48.2 71.3 51.5 71.1 48.2C71.1 47.8 70.5 47.7 70.3 48.1C69.2 51.1 69.8 52.1 69.1 48.3C69 48 68.5 47.9 68.4 48.2C67.7 49.7 67.5 50.9 67.4 52.6C67.4 53.1 68.2 53.1 68.2 52.6C68.4 50.6 68.4 48.7 68.4 46.7C68.4 46.3 67.8 46.1 67.7 46.5C66.6 48.9 66.1 51 66.2 53.6C66.2 54.1 67 54.1 67 53.6C67.1 51.2 67.3 48.9 67.2 46.5C67.2 46.1 66.6 45.9 66.5 46.3C65.8 48 64.8 50.1 64.8 52C64.8 54.9 65.3 50.5 65.3 49.7C65.3 49.3 64.6 49.1 64.5 49.6C64.3 50.7 63.9 51.6 64.4 51.9C64.8 52.2 64.8 47.4 64.8 47C64.8 46.5 64.2 46.5 64 46.9C63.5 48.4 62.3 51.3 63 52.4C63 52.3 63.2 47 63 46C62.9 45.6 62.3 45.4 62.2 45.9C61.9 47.1 61.7 48.2 61.4 49.4C61.3 50 61.3 51.7 61.3 51.2C61.1 49.1 61.3 47 61 44.8C60.9 44.4 60.3 44.5 60.2 44.8C59.9 45.6 58 50.4 58.8 51.4C59.6 52.4 59.6 49.8 59.6 49.7C59.9 48.1 59.7 46.1 59.8 44.4C59.8 43.9 59.1 43.9 59 44.3C58.3 46.6 57.9 48.9 57.8 51.3C57.8 51.8 58.6 51.8 58.6 51.3C58.8 48.9 58.9 46.6 58.6 44.2C58.5 43.8 57.9 43.6 57.8 44.1C57.7 44.9 56.3 49.8 57.4 49.9C57.4 49.9 57.6 44.2 57.6 43.8C57.6 43.3 56.9 43.3 56.8 43.8C56.8 43.8 55.1 49.2 56.6 48.7C56.9 48.6 56.8 42.4 56.8 41.8C56.8 41.3 56.1 41.3 56 41.8C55.8 43.3 55.2 45 55.2 46.6C55.2 46.7 54.6 49.2 55.5 48C55.9 47.5 55.9 44.8 55.8 44.2C55.7 43.3 55.5 42.5 55.4 41.6C55.4 42.5 55.3 43.3 55.1 44.2C54.8 46.6 54.1 48.9 54.3 45.1C54.4 42.6 54.7 40.2 54.8 37.7C54.8 37.3 54.1 37.2 54 37.6C53.7 38.7 51.9 44.8 53.3 44.7C54 44.6 53.6 36.8 53.6 36.2C53.6 35.7 53 35.7 52.8 36.1C52.3 37.3 50 45.8 51 45.6C52.6 45.2 51.9 34.1 51.9 32.3C51.9 31.8 51.1 31.8 51.1 32.3C51.1 33.5 51 34.7 50.9 35.8C50.8 36.4 50.5 41.2 51.1 38.5C51.5 36.2 51.2 33.4 51.2 31.1C51.2 30.6 50.5 30.6 50.4 31C50.1 31.9 48.8 37.4 50.1 35.1C50.8 33.7 50.6 30.8 50.5 29.4C50.5 29 49.8 28.8 49.7 29.3C49.5 29.9 47.6 36.5 49.3 32.7C50.1 30.9 50.4 28.5 50.8 26.6C50.9 26.1 50.2 25.9 50 26.4C49.8 27 48.7 31.3 49 31.1C50.1 30.3 50.4 27.2 50.8 25.7C50.9 25.2 50.2 25 50 25.5C49.8 26.5 48 30.5 49.2 30.6C49.6 30.6 50 26.2 50 25.6C50 25.2 49.4 25.1 49.3 25.4C48.9 26.2 48.2 27.3 47.9 28.2C47.7 29.1 47.5 31.5 48 28.9C48.1 28.4 47.3 28.2 47.2 28.7C47 29.8 46.7 31 46.5 32.1C46.4 32.6 47.1 32.8 47.3 32.3C48.3 31.2 48.4 30.6 47.5 30.2C47.5 31.4 47.5 32.7 47.5 33.9C47.5 34.3 48.2 34.4 48.3 34C49.7 28.8 47.7 35.9 47.3 37.5C47.2 38 47.9 38.2 48.1 37.7C49 35.3 48.3 35 48.3 37.1C48.3 37.5 48.8 37.6 49 37.3C50.3 35.4 49.3 38.4 49.2 39.6C49.2 40.1 49.8 40.1 50 39.7C50.9 37.4 50 39 49.6 40.3C49.4 41.3 49.3 42.7 49.2 43.7C49.2 44.1 49.8 44.3 49.9 43.9C50.6 42.3 51 41 51.2 39.3C51.2 38.9 50.5 38.7 50.4 39.2C50.1 41.1 49.8 42.8 49.9 44.7C49.9 45.1 50.6 45.3 50.7 44.8C51.6 41.1 50.7 41.8 50.7 45.2C50.7 45.7 51.3 45.7 51.5 45.3C52.3 42.9 51.1 45.7 51 46.6C50.9 47.1 51.6 47.3 51.8 46.8C52.6 45.7 52.5 45.3 51.5 45.4C51.3 46.5 51.2 47.5 51 48.6C50.9 49 51.5 49.4 51.7 48.9C51.9 48.5 53.7 44.4 53.4 44.4C51.9 44 52.4 48.9 52.4 49.7C52.4 50.2 53 50.2 53.2 49.8C53.4 49.3 53.4 47.9 53.2 48.7C52.9 49.7 53 51.1 52.9 52.1C52.9 52.5 53.5 52.7 53.6 52.3C54.4 50.4 53.5 51.3 53.3 53.3C53.3 53.7 53.9 53.9 54 53.5C54.2 53 54.6 51.6 55 51.1C55.3 50.1 55.4 50.1 55.3 51.3C55.3 52.3 55.3 53.2 55.3 54.2C55.3 54.7 56 54.7 56.1 54.3C56.4 53.2 56.7 52.1 57 51C56.1 51 56.1 51.5 56.8 52.7C56.9 53.1 57.4 53.3 57.6 52.8C58.5 51.5 58.5 51.1 57.6 51.5C57.4 52.7 57.4 54 57.6 55.2C57.6 55.7 58.2 55.7 58.4 55.3C58.6 54.8 59.4 52.2 59.2 52.3C58.9 52.5 59.1 54.5 59.1 55C59.1 55.4 59.7 55.6 59.8 55.2C59.9 54.9 61.9 51.3 60.3 51.7C59.9 51.8 59.8 56.3 59.8 56.4C59.8 56.9 60.4 56.9 60.6 56.5C60.9 55.6 62 53.5 61.8 52.5C61.6 52.6 61.3 52.7 61.1 52.7C61 53.9 61 55.1 61 56.3C61 56.7 61.6 56.9 61.7 56.5C63.3 53.2 62.9 51.9 62.9 56.3C62.9 56.8 63.5 56.8 63.7 56.4C63.9 55.7 64.7 50.3 64.3 53.8C64.2 54.8 64.1 55.7 64.1 56.7C64.1 57.2 64.8 57.2 64.9 56.8C65.4 55 65.8 53.2 66.1 51.4C66.2 50.9 65.5 50.7 65.3 51.2C64.5 53.6 64.3 55.5 64.5 57.9C64.5 58.3 65.2 58.5 65.3 58C65.9 55.4 66.7 53 67 50.4C67.1 49.9 66.3 49.7 66.2 50.2C65.6 52.9 65 55.4 65.2 58.2C65.2 58.5 65.8 58.8 65.9 58.4C66.4 57.3 66.9 56.2 67.3 55C67.8 54.4 67.7 54.2 67 54.2C66.9 55.1 66.9 56 66.9 57C66.9 57.4 67.5 57.6 67.6 57.2C68 56.2 70.7 52.3 70.3 51.3C69.9 50.1 68.8 55.2 68.8 56C68.8 56.5 69.4 56.5 69.6 56.1C70.7 53.5 71.7 51 72.3 48.2C72.4 47.8 71.8 47.5 71.6 47.9C70.3 50.5 69.9 52.8 70.1 55.7C70.1 56.2 70.7 56.2 70.9 55.8C71.2 55 73.3 50.7 72.5 50.3C71.7 50 71.9 53.1 71.8 53.7C71.8 54.2 72.4 54.2 72.6 53.8C72.8 53.3 74.5 48.5 74.1 48.3C72.9 47.6 73.3 52.9 73.3 53.5C73.3 53.9 73.9 54.1 74 53.7C75.4 50.8 76.3 47.9 76.3 44.6C76.3 44.2 75.7 44 75.6 44.4C74.4 47.1 73.8 49.5 73.8 52.5C73.8 52.9 74.4 53.1 74.5 52.7C75.8 49.7 77 46.9 77.3 43.6C77.3 43.2 76.7 43.1 76.6 43.4C75.3 45.8 74.9 48 75.1 50.7C75.1 51.1 75.7 51.3 75.8 50.9C77.3 47.9 78.3 45.2 78.3 41.8C78.3 41.3 77.6 41.3 77.5 41.7C76.8 43.8 76.6 45.7 76.5 48C76.5 48.4 77.2 48.6 77.3 48.1C77.7 45.8 77.9 43.7 77.8 41.4C77.8 40.9 77.2 40.9 77 41.3C76.1 43.7 75.6 46 75.5 48.5C75.5 48.9 76.1 49.1 76.2 48.7C77.8 45.3 79.2 42.1 78.5 38.3C78.4 38 77.9 37.9 77.8 38.2C76.5 40.4 75.9 42.7 75.8 45.3C75.8 45.8 76.5 45.8 76.6 45.4C77.2 42.9 77.9 40.5 78.3 38C78.4 37.6 77.8 37.3 77.6 37.7C76.4 40 75.9 42.2 75.8 44.8C75.8 45.2 76.5 45.3 76.6 44.9C77.4 41.8 77.9 38.9 77.6 35.7C77.6 35.3 77.1 35.1 76.9 35.5C75.7 37.7 75 39.8 74.6 42.2C74.5 42.7 75.2 42.9 75.4 42.4C76.3 39.8 77 37.4 77.1 34.7C77.1 34.2 76.5 34.2 76.3 34.6C75.8 35.9 74.3 39.2 75.1 40.1C75.3 40.3 75.9 34.7 75.8 34C75.8 33.6 75.2 33.4 75.1 33.8C73.8 36.4 73 38.9 72.6 41.8C72.5 42.3 73.3 42.5 73.4 42C74 39.2 74.7 36.6 74.6 33.8C74.6 33.4 74 33.2 73.9 33.6C73.6 34.1 71.7 38 72.1 38.2C73.2 39 74 33.7 74.2 32.9C74.3 32.5 73.7 32.2 73.5 32.6C71.9 35.3 71.2 38 71 41.2C71 41.7 71.6 41.7 71.8 41.3C73 38.2 73.7 35.1 74 31.8C74 31.4 73.4 31.3 73.3 31.6C71.5 34.5 70.7 37.8 70.3 41.2C70.2 41.7 70.9 41.7 71.1 41.3C71.9 39.2 72.5 37.1 73.1 34.9C73 34.1 72.2 33.9 72.1 34.4Z" fill="#D83633"/>
<path d="M57.1 29.2C56.3 27.7 56.6 28.2 55.6 26.9C55.4 26.7 55 26.8 54.9 27.1C54.7 28.1 54.4 31.3 53.9 32C54.2 31.6 54.1 29.8 54.1 29.1C54.1 27.6 54.7 21.8 53.8 21.5C53.2 21.3 50.4 35.4 51.6 26.5C51.8 24.9 52.4 18.7 51.3 23.3C51.1 24.1 49.8 28.7 51.1 28.4C51.5 28.3 51.8 24.7 51.9 24.4C52.1 23.4 52.4 22.5 51.8 21.8C51.7 21.6 51.4 27.3 50.9 27.9C51.9 26.8 52.8 20.2 52.2 20.1C52.6 20.2 50.2 31 50 32.2C49.9 32.7 50.6 32.9 50.8 32.4C51.6 30.3 54.8 21.6 53.2 20.6C54 21.1 51.4 32.4 51.3 34.3C51.3 34.7 51.9 34.9 52 34.5C53.6 30.8 54.1 27 54.5 23C54.6 22.1 54.9 20.8 54.8 19.9C54.4 17.4 53.9 22.2 53.8 22.8C53.2 25.8 52.2 28.7 51.3 31.6C51.2 32.1 51.9 32.3 52.1 31.8C53.8 26.9 54.6 21.5 55.8 16.8C54.7 21.2 53.7 26.6 53.5 31.2C53.5 31.6 54.1 31.7 54.2 31.4C56 28.2 57.3 24.1 57.4 20.4C57.5 17.5 56.8 20.2 56.3 21.6C55.3 24.5 54.6 27.6 54 30.7C53.9 31.1 54.5 31.4 54.7 31C57 26 57.5 20.5 59.1 15.2C58.4 17.6 57.5 21.3 57 24.1C56.5 26.8 56.9 26.2 57.7 24C58.3 22.5 58.5 20.9 58.9 19.4C59.7 16.4 60.9 11.1 59.2 18.4C58.9 19.6 56.5 27.3 58.8 22.4C59.9 20 61 16.7 61.4 14.1C60.9 17.1 59.8 21.1 59.1 24.5C59 25 59.7 25.2 59.9 24.7C60.8 22.5 61.7 20.2 62.2 17.9C63.1 13.7 62.4 17.1 62.1 18.7C61.9 19.6 59.8 23.9 61.5 22.9C62.5 22.3 63.3 17.6 63.8 16.4C65.3 12.9 63.1 18.9 63.1 19.9C62.1 21 62.2 21.6 63.3 21.7C63.6 20.9 63.8 20.1 64.1 19.3C64.3 18.8 65.9 13.7 65.8 13.7C66.5 13.9 64 21 63.7 21.8C63.5 22.2 64.2 22.5 64.4 22.1C65 21.1 69 12.9 68.8 12.9C67.9 12.7 65.7 21.1 65.4 22C65.3 22.4 65.8 22.7 66.1 22.4C68.4 20 69.7 17.2 70.9 14.1C71.1 13.6 70.3 13.4 70.1 13.9C68.9 16.9 67.6 20 66.2 22.9C66 23.4 66.6 23.7 66.9 23.3C67.9 21.8 68.7 20.3 69.4 18.7C69.6 18.1 71 13.5 69.9 15.8C69.4 16.8 68.4 20.6 68.4 20.8C68.2 20.4 68.7 17.1 68.7 16.5C68.7 16.2 68.3 15.9 68 16.2C65.8 18.6 64.6 21.3 63.3 24.2C62.9 25.1 61.8 27.1 61.9 27.3C61.5 26.3 63.4 22.1 63.8 21C63.9 20.6 63.3 20.3 63.1 20.7C61.6 23.6 59.8 26.7 58.6 29.5C59.3 27.9 60.6 24.3 61.2 22C61.3 21.5 60.6 21.3 60.4 21.8C59.7 23.9 58.9 25.9 58.3 28C57 32.5 59 26.3 59.2 25.5C59.3 25 58.6 24.8 58.4 25.3C57.4 28.8 56.2 32.2 55 35.6C54.8 36.1 55.6 36.3 55.8 35.8C56.6 33.7 58.2 30.8 58.3 28.5C58.3 27.1 58.3 27.5 57.6 28.4C56.8 29.6 55.6 33.6 55.3 34.4C53.9 38 55.1 35.1 55.7 33.4C56.6 30.8 57.6 28.4 58.3 25.7C58.4 25.3 57.8 25 57.6 25.4C55.7 28.4 54.9 31.5 53.9 34.8C53.8 35.3 54.5 35.5 54.7 35C55.4 33 56.2 31.1 56.9 29.1C57.1 28.7 56.4 28.4 56.2 28.8C55.6 30 53.8 32.4 53.8 33.8C53.7 36.7 55.6 32.2 55.7 31.6C56.1 29.3 53.9 33.8 53.6 34.5C53.1 35.8 52.6 37 52.2 38.3C52.1 38.7 52.7 39 52.9 38.6C53.4 37.8 53.8 36.9 54.2 36C54.6 34.3 55 34.2 55.3 35.6C56.2 37.2 54.9 39.3 54.3 41C54.1 41.4 54.8 41.7 55 41.3C56 39.2 57.2 36.9 57.5 34.7C57.8 32.4 56.6 37 56.6 37C56.1 38.6 55.5 40.2 55 41.8C54.9 42.2 55.5 42.5 55.7 42.1C56.1 41.4 60.1 34.7 59.6 34.3C58.5 33.5 56.5 40.8 56.2 41.8C56.1 42.2 56.7 42.5 56.9 42.1C57.4 40.9 58 39.6 58 38.6C58 38.5 57 41.9 56.9 42.8C56.8 43.3 57.6 43.5 57.7 43C58 41 58.4 39.1 58.9 37.1C59 36.6 58.3 36.4 58.1 36.9C57.2 39.1 56.7 42 58.1 38.1C58.8 36.3 59.5 34.5 60.1 32.7C60.3 32.2 59.5 32 59.3 32.5C58.6 34.4 57.2 39.3 56.2 40.5C57.6 39 58.1 34.8 58.6 32.7C58.7 32.3 58.1 32 57.9 32.4C57.4 33.4 57 34.3 56.6 35.3C56.4 35.9 54.6 41 55.7 39.2C56.9 37.2 56.7 34.2 56.4 32C56.4 31.7 55.9 31.6 55.7 31.8C54.6 33.1 52.6 35.8 52.9 37.1C52.7 36 55.7 31.2 56.4 29.5C56.6 29.1 55.9 28.8 55.7 29.2C54.7 31.4 53.7 33.5 52.5 35.6C52.2 36 52.9 36.4 53.2 36C53.9 34.9 54.6 33.8 55.1 32.7C55.3 32.2 56.2 29.4 55.1 31.3C54.9 31.6 54 33.8 54.6 33.6C55.4 33.3 55.6 31.3 55.9 30.4C57.4 26.2 57 27.2 55.9 30.3C55 32.9 54 35.3 53.4 38C53.3 38.4 53.9 38.7 54.1 38.3C56.1 34.4 57.9 30.5 58.8 26.1C58.9 25.6 58.2 25.4 58 25.9C57.4 27.9 56.1 30.5 56 32.5C55.9 34.3 55.4 35.1 56.8 32.5C57 32.1 58.7 27.7 58.5 27.3C57.7 25.5 56.9 30.5 56.8 31C56.7 31.4 57.3 31.7 57.5 31.3C58.1 30 61.2 24.7 60.5 23.6C60 22.9 57.6 30.4 57.3 31.2C57.2 31.6 57.8 31.9 58 31.5C59.3 29.1 62.3 25.6 62.8 22.9C63 21.7 62 23.9 62 24C61.4 25.4 61.1 27.2 60.7 28.7C60.6 29.2 61.2 29.4 61.4 29C63 26.8 63.9 24.4 65.1 22C65.6 21 66 19.7 66.8 18.8C69.1 16.2 67.6 20.6 67.4 22C67.3 22.4 67.9 22.7 68.1 22.3C69.6 19.6 70.5 16.9 71.1 13.8C71.2 13.3 70.5 13.1 70.3 13.6C69.6 15.8 68.7 17.8 67.9 19.9C67.9 20 66.5 22 67.6 21.7C68.4 21.5 70.1 15.5 69.9 15.2C69.6 14.6 68.1 18.1 67.9 18.6C67.5 19.3 66.7 21.5 66.8 19.7C66.8 17.2 69.1 13.5 69.9 11.2C70.1 10.8 69.4 10.5 69.2 10.9C67.8 13.4 66.3 18.4 64.9 20.1C66.3 18.5 66.7 14.3 66.8 11.8C66.8 11.4 66.2 11.2 66.1 11.6C64.5 15.2 63.6 19.1 62.1 22.8C61.9 23.3 62.7 23.5 62.9 23C64.2 19.8 65.1 16.8 65.1 13.3C65.1 12.8 64.5 12.8 64.3 13.2C62.9 16.9 61.6 20.6 60.4 24.3C60.2 24.8 61 25 61.2 24.5C62.6 21.1 63.7 17.7 63.7 14.1C63.7 13.6 63.1 13.6 62.9 14C62.3 15.7 61.8 17.5 61.3 19.3C61.1 19.8 59.8 24.9 60.8 21.9C61.8 18.8 62.2 15.4 62.2 12.2C62.2 11.7 61.5 11.7 61.4 12.1C60.1 16.6 58.7 21 57.2 25.4C57 25.9 57.8 26.1 58 25.6C59.6 21.4 61 17.2 61 12.7C61 12.2 60.3 12.2 60.2 12.6C58.8 17.5 57.7 22.5 56.3 27.4C56.2 27.9 56.9 28.1 57.1 27.6C58.6 23 59.9 18.4 60.1 13.5C60.1 13 59.5 13 59.3 13.4C57.7 17.8 56.4 22.9 55.6 27.6C55.2 29.7 55.6 28.4 56 27.2C56.4 26 56.7 24.8 57 23.6C57.6 21.1 58.1 18.7 58.3 16.2C58.3 15.8 57.6 15.6 57.5 16.1C57.3 17.7 55.9 29.9 54.6 29.7C55.2 29.8 56.9 16.9 56.8 15.2C56.8 14.8 56.1 14.6 56 15.1C55.6 16.7 52.1 29.8 52.5 29.9C53.7 30.3 55.3 19.4 55.3 17.7C55.3 17.2 54.6 17.2 54.5 17.7C53.9 22.5 53.9 27.5 52.6 32.1C52.2 33.6 53 29.2 53.1 28.6C53.3 27.5 53.5 26.3 53.7 25.2C54 23.1 54.2 21.1 54.3 19C54.3 18.6 53.6 18.4 53.5 18.9C53.2 20.9 50.5 30.2 51.4 30.9C51 30.6 53.3 20.2 53.3 18.5C53.3 18.1 52.6 17.9 52.5 18.4C51.9 22.2 50.8 25.8 50 29.5C49.9 29.9 50.5 30.2 50.7 29.8C52.1 26.7 52.8 23.9 52.7 20.5C52.7 20.1 52 19.9 51.9 20.4C51.3 23.6 51 26.9 49.9 30C49.7 30.5 50.5 30.7 50.7 30.2C51.9 26.9 52.3 23.7 52.4 20.3C52.4 19.8 51.6 19.8 51.6 20.3C51.5 24.1 50.7 27.8 50.4 31.6C50.4 32 51 32.2 51.1 31.8C52.9 28.1 54.3 24.5 54.4 20.3C54.4 19.8 53.6 19.8 53.6 20.3C53.5 24.9 53.2 29.6 53.9 34.2C54 34.7 54.6 34.5 54.7 34.1C54.6 34.8 55 26.8 56.7 29.9C56.6 30 57.3 29.6 57.1 29.2Z" fill="#D84D62"/>
<path d="M58.3 33.6C58.5 36.9 58.8 40.2 58.8 43.4C58.8 43.9 59.6 43.9 59.6 43.4C59.7 41.8 59.9 40.2 60.4 38.6C60.6 38.1 62.2 33.1 61.1 36.2C60.3 38.5 59.6 40.9 58.8 43.3C59.1 43.3 59.3 43.4 59.6 43.4C59.8 40.4 60.7 37.7 61.6 34.9C61.3 34.8 61.1 34.8 60.8 34.7C60.5 36.1 60.2 37.5 59.7 38.9C59.3 40 58.9 41 58.4 42C57.8 43.2 57.7 43.3 58.1 42.4C58.5 39.3 59.9 36.1 61 33.2C60.7 33.1 60.5 33.1 60.2 33C59.6 36.3 58.6 39.5 57 42.5C57.2 42.6 57.5 42.7 57.7 42.8C58.2 40.6 58.9 38.5 59.7 36.4C59.4 36.4 59.2 36.3 58.9 36.3C58.9 38.6 58.9 40.9 58.7 43.2C58.7 43.7 59.3 43.7 59.5 43.3C60.6 40.2 62.1 37.3 63.4 34.3C63.2 34.2 62.9 34.1 62.7 34C62.1 37.5 61 40.8 59.7 44.1C59.5 44.5 60.2 44.8 60.4 44.4C61.9 41.1 62.9 37.6 64.1 34.2C63.8 34.1 63.6 34.1 63.3 34C62.7 37.5 61.8 40.9 60.6 44.3C60.5 44.7 61.1 45 61.3 44.6C62.7 41.6 63.8 38.5 65 35.4C64.7 35.3 64.5 35.3 64.2 35.2C63.6 38.9 62.5 42.4 61.7 46C61.6 46.4 62.2 46.7 62.4 46.3C63.8 43.3 64.9 40.2 66.1 37.1C65.8 37 65.6 37 65.3 36.9C64.5 40 63.6 43.1 63.1 46.2C63 46.6 63.6 46.9 63.8 46.5C65.2 44 66.2 41.5 67 38.8C66.7 38.7 66.5 38.7 66.2 38.6C65.7 41.2 65.2 43.8 64.7 46.5C64.6 46.9 65.2 47.2 65.4 46.8C66.4 44.6 67.6 42.6 68.4 40.3C68.1 40.3 67.9 40.2 67.6 40.2C67.3 43 66.4 45.7 65.6 48.5C65.5 48.9 66.1 49.2 66.3 48.8C67.8 46.3 69 43.8 69.8 41.1C69.5 41 69.3 41 69 40.9C68.6 42.7 68.1 44 67.3 45.7C67.5 45.8 67.8 45.9 68 46C68.4 44.8 68.8 43.7 69.3 42.6C69.6 41.9 70 38.7 70.1 41.2C70.2 43.5 69.5 45.9 69.2 48.2C69.2 48.6 69.8 48.8 69.9 48.4C71.1 45.9 71.9 43.3 73.1 40.8C72.9 40.7 72.6 40.6 72.4 40.5C72.1 42.6 71.7 44.7 71.4 46.8C71.3 47.3 72.1 47.3 72.2 46.9C72.4 46.4 73.1 44.5 73.4 43.7C73.1 43.7 72.9 43.6 72.6 43.6C72.4 44.4 72.1 45.1 71.9 45.9C72.1 46 72.4 46.1 72.6 46.2C73.1 44.7 73.6 43.2 74.1 41.8C73.8 41.8 73.6 41.7 73.3 41.7C73.3 42.6 73.2 43.4 73.1 44.3C73 44.7 73.6 45 73.8 44.6C74.2 44 74.5 43.5 74.8 42.9C75 42.4 74.4 42 74.1 42.5C73.6 43.4 73.1 44.3 72.6 45.2C72.8 45.3 73.1 45.4 73.3 45.5C73.7 43.3 74.5 41.3 75.7 39.4C75.5 39.3 75.2 39.1 75 39C74 40.9 73 42.8 72 44.7C71.8 45.2 72.5 45.6 72.7 45.1C73.7 43.2 74.6 41.3 75.7 39.4C76 38.9 75.3 38.6 75 39C73.7 41 72.9 42.9 72.5 45.2C72.4 45.6 73 45.9 73.2 45.5C73.7 44.6 74.2 43.7 74.7 42.8C74.5 42.7 74.2 42.5 74 42.4C73.7 43 73.4 43.6 73 44.1C73.2 44.2 73.5 44.3 73.7 44.4C73.9 43.4 73.9 42.6 74 41.6C74 41.1 73.4 41.1 73.2 41.5C72.7 43 72.2 44.5 71.7 45.9C71.6 46.3 72.2 46.6 72.4 46.2C72.8 45.3 73.1 44.5 73.2 43.5C73.3 43 72.6 43 72.4 43.4C71.5 45.8 71.8 44.7 71.2 46.6C71.5 46.6 71.7 46.7 72 46.7C72.3 44.7 72.7 42.7 73 40.7C73.1 40.3 72.5 39.9 72.3 40.4C71.9 41.3 71.5 42.1 71.2 43C71 43.5 70.2 46.9 70.3 45.4C70.4 43.2 70.9 41.3 70.7 39.1C70.7 38.8 70.1 38.5 70 38.9C69 41.2 68.1 43.5 67.3 45.9C67.2 46.3 67.8 46.6 68 46.2C68.8 44.6 69.4 43 69.8 41.2C69.9 40.7 69.2 40.5 69 41C68.2 43.7 67 46.1 65.6 48.5C65.8 48.6 66.1 48.7 66.3 48.8C67.1 46 67.9 43.2 68.3 40.3C68.4 39.8 67.7 39.8 67.5 40.2C66.7 42.4 65.6 44.4 64.6 46.5C64.8 46.6 65.1 46.7 65.3 46.8C65.8 44.2 66.3 41.5 66.8 38.9C66.9 38.4 66.2 38.2 66 38.7C65.2 41.3 64.2 43.8 62.8 46.2C63 46.3 63.3 46.4 63.5 46.5C64.1 43.3 64.9 40.3 65.7 37.2C65.8 36.7 65.1 36.5 64.9 37C63.7 40 62.6 43.1 61.2 46C61.4 46.1 61.7 46.2 61.9 46.3C62.7 42.7 63.8 39.1 64.4 35.5C64.5 35 63.8 34.8 63.6 35.3C62.4 38.3 61.3 41.4 59.9 44.3C60.1 44.4 60.4 44.5 60.6 44.6C61.8 41.2 62.7 37.8 63.3 34.3C63.4 33.8 62.7 33.6 62.5 34.1C61.3 37.5 60.3 40.8 58.9 44.1C59.1 44.2 59.4 44.3 59.6 44.4C60.9 41.1 62 37.8 62.6 34.3C62.7 33.9 62.1 33.5 61.9 34C60.6 37.1 59 40 57.9 43.2C58.2 43.2 58.4 43.3 58.7 43.3C58.9 41 58.9 38.7 58.9 36.4C58.9 35.9 58.3 35.9 58.1 36.3C57.3 38.4 56.7 40.5 56.1 42.7C56 43.1 56.6 43.4 56.8 43C58.4 39.9 59.4 36.7 60 33.3C60.1 32.8 59.4 32.6 59.2 33.1C57.9 36.8 56.6 40.4 56.2 44.3C56.2 44.7 56.8 44.8 56.9 44.5C58.6 41.6 59.7 38.4 60.4 35.1C60.5 34.6 59.8 34.4 59.6 34.9C58.8 37.8 57.8 40.6 57.6 43.6C57.6 44.1 58.2 44.1 58.4 43.7C59.5 40.5 60.7 37.4 61.1 34C61.1 33.6 60.5 33.5 60.4 33.8C58.9 36.9 57.8 40.1 57.6 43.6C57.9 43.6 58.1 43.6 58.4 43.6C58.4 40.3 58.2 37 57.9 33.8C59.1 33 58.3 33 58.3 33.6Z" fill="#DA6D6B"/>
<path d="M60.5 15.5C60.1 17.6 59.8 19.8 59.5 22C59.4 22.4 59.2 26.3 59.4 23.9C59.5 22.9 59.4 21.9 59.5 20.9C59.5 20.5 59.9 18.6 59.3 18.8C59.3 18.8 58.9 22.3 58.9 22.5C58.9 24.4 59.1 21.5 59.1 21.1C59.2 19.8 59.3 18.6 59.5 17.3C59.5 17.1 59.2 17 59.1 17.2C58.6 19.6 58.2 22 57.9 24.4C57.9 24.6 58.2 24.7 58.3 24.5C58.9 23.2 59.5 21.5 59.5 20.1C59.5 18.1 59.3 20.6 59.2 21.1C59.1 22 58.6 23.9 59.5 22C59.8 21.4 60.6 16.2 61.1 16.2C61.4 16.2 60.7 23 60.6 23.4C60.6 23.6 60.9 23.8 61 23.5C61.4 21.6 62.4 19 62.1 17.1C62.3 18.5 61.7 19.9 61.4 21.2C61.3 21.6 61.3 22 61.3 22.2C61.4 21.5 61.5 20.8 61.6 20C61.8 18.9 61.9 17.8 62.2 16.7C62.3 16.1 62.9 13.3 62.7 15.2C62.3 17.8 61.8 20.3 61.4 22.9C61.4 23.1 61.7 23.3 61.8 23C62.4 20.9 63 18.7 63.3 16.5C63 16.3 63 16.4 63.1 16.8C63.1 17.2 63.1 17.6 63.1 18.1C63.1 19.2 63.1 20.3 63.1 21.5C63.1 21.7 63.4 21.8 63.5 21.6C64.2 19.7 64.7 17.9 64.7 15.9C64.7 15.6 64.3 15.7 64.3 15.9C64.1 17.9 64.1 19.8 64.1 21.8C64.1 22 64.4 22.1 64.5 21.9C64.6 21.6 66 16.1 65.5 16C64.8 15.9 65 19 65.1 18.9C65.5 18.4 65.5 16.9 65.6 16.2C65.7 15.9 66.4 14 66 13.9C66.1 13.9 66 15.5 66 15.7C66 16.6 66 17.5 66 18.3C66 18.6 66.4 18.6 66.4 18.3C66.4 16.7 66.4 15.2 66.4 13.6C66.4 13.4 66.1 13.3 66 13.5C65.2 15.4 64.8 17.4 64.5 19.4C64.5 19.6 64.8 19.8 64.9 19.5C65.4 18 65.6 16.6 65.4 15C65.4 14.7 65 14.7 65 15C65.1 16.4 65.2 19.6 64.2 20.8C64.5 20.5 64.9 17.3 64.6 16.5C64.4 16.1 63.6 20.5 63.5 20.5C63.5 20.5 63.5 15.7 63.5 15.4C63.5 15.2 63.2 15.1 63.1 15.3C62.8 16.7 62.5 18.1 62.2 19.5C62.2 19.6 61.6 21.8 61.6 21.8C62.2 22.1 62 21.1 62.1 20.7C62.5 18.3 63 15.9 63.2 13.5C63.2 13.3 62.9 13.2 62.8 13.4C61.5 16.4 61.1 19.6 60.8 22.8C60.8 23 61.1 23.1 61.2 22.9C61.9 20.7 62.6 18.6 62.4 16.2C62.4 16 62.1 15.9 62 16.1C61.8 17.3 61.5 18.5 61.3 19.7C61.2 20.1 60.7 22.8 61.1 22.4C61.5 22.1 61.4 19.7 61.4 19.2C61.5 17.8 61.5 16.5 61.5 15.1C61.5 14.9 61.2 14.8 61.1 15C59.9 17.7 59.3 20.6 58.6 23.4C58.5 23.6 58.9 23.8 59 23.5C59.5 21.8 59.7 20.1 59.7 18.3C59.7 18.1 59.4 18 59.3 18.2C59.1 19.3 58.9 20.5 58.7 21.6C58.2 24.1 58.7 21 58.8 20.3C58.9 19.7 59.2 19 59.1 18.5C59 17.3 58.9 18.5 58.8 19C58.4 20.5 58.5 22.2 58.5 23.7C58.5 23.9 58.8 24 58.9 23.8C59.4 21.8 59.6 19.9 59.6 17.8C59.6 17.5 59.2 17.5 59.2 17.8C59 20.3 59 22.9 59 25.4C59 25.6 59.4 25.7 59.4 25.5C59.9 22.1 60.2 18.7 60.9 15.4C60.9 15.4 60.5 15.3 60.5 15.5Z" fill="#5F3710"/>
<path d="M60.6 41C60.7 40.6 60.8 40.2 61 39.8C61.5 38.8 61.1 39.6 61.1 40C61.1 40.2 60.4 43.6 60.6 43.8C61 44.2 61.2 41.8 61.3 41.2C61.4 40.7 62 37.8 61.8 40.1C61.7 41.5 61.3 42.7 61 44C60.6 45.9 61.2 43.9 61.4 43.3C61.6 42.4 63.3 37.3 62.7 37C63.1 37.2 61.1 43.1 61.5 43.1C61.6 43.1 62 40.8 62 40.5C62.1 40.1 62.2 39.6 62.4 39.2C62.6 38.6 62.5 38.3 62.5 39.1C62.6 40.5 62.1 42 61.7 43.3C61.6 43.7 61.2 44.4 61.2 44.8C61.2 44.6 61.7 43.5 61.7 43.4C62 42.4 62.2 41.4 62.5 40.4C62.7 39.9 62.8 39.4 63 38.9C63.2 38.5 63.3 37 63.6 37.8C64.3 39.8 62.3 42 62.5 44C62.6 44.9 62.8 43.7 62.9 43.4C63.1 42.9 63.1 42.4 63.2 42C63.4 41 63.6 39.8 64.1 38.8C64.7 37.7 64.2 39 64.1 39.5C64.1 40.2 64 40.8 63.9 41.5C63.8 42.6 63.2 44 63.3 45.1C63.4 46.6 63.8 44.2 63.9 43.8C64.1 42.7 64.4 41.5 64.7 40.4C64.8 39.9 65 39.5 65.1 39C65.1 39.2 64.8 40.1 64.7 40.5C64.5 41.5 64.2 42.6 63.9 43.6C63.9 43.5 63.4 45.1 63.4 45.1C63.9 45.4 63.8 44.6 63.9 44.3C64.3 43.2 64.7 41.6 64.8 40.5C65 38.9 64.7 40.3 64.5 41.1C64.4 41.5 64.1 44 63.8 44.1C64.4 43.9 64.6 42 64.7 41.5C64.9 40.8 65.2 40.1 65.5 39.5C66 38.5 65.7 38.6 65.6 39.5C65.5 40.9 65.2 42.3 64.9 43.6C64.8 44.1 64.5 44.6 64.6 45C64.6 46.1 65 44.2 65.1 43.9C65.5 42.6 65.9 41.4 66.3 40.2C66.4 39.9 66.5 38.5 66.4 40C66.3 40.8 66.2 41.5 66 42.2C65.8 43.1 65.2 45.6 65.8 43.3C65.9 42.8 66.5 39.7 67 39.6C66.1 39.8 65.6 45 65.5 46C65.5 46.2 65.8 46.2 65.9 46.1C66.4 44.7 67.5 42.5 67.5 41.1C67.5 42.2 66.6 44.4 66.3 45.7C66.2 46 66.6 46 66.7 45.8C67.1 44.9 67.3 43.8 67.7 42.9C68 42.2 67.6 43.6 67.6 43.7C67.5 44.3 67.4 44.8 67.3 45.4C67.2 45.7 67.6 45.7 67.7 45.5C68 44.7 68.3 43.9 68.7 43.2C69 42.7 69.3 41.5 69.1 43C68.9 44.3 68.4 45.5 68 46.7C67.9 46.9 68.2 47 68.4 46.9C68.9 46 69.4 45.1 69.9 44.2C70 43.9 70.6 42 70.3 43C70.2 43.3 70.1 43.7 70 44C70.1 44.9 70.2 44.9 70.4 43.9C70.9 43.1 71.1 42 71.4 41.2C71.5 41 71.1 40.8 71 41C70.8 41.4 70.6 41.9 70.4 42.4C69.9 43.1 70 43.3 70.6 42.7C70.7 42.5 70.4 42.3 70.3 42.5C69.9 43.3 70 43 69.8 43.8C69.7 44 70.1 44.2 70.2 44C70.4 43.6 71.4 41.2 70.7 42.1C70.1 42.8 69.9 44.4 69.6 45.3C69.5 45.5 69.9 45.7 70 45.5C70.5 44.4 70.7 43.4 71 42.3C71.1 42.1 70.7 41.9 70.6 42.1C70 43.4 69.2 45.2 68.7 46.2C69.3 44.8 69.6 43.2 69.7 41.7C69.7 41.5 69.4 41.4 69.3 41.6C68.7 42.6 67.8 43.9 67.7 45C67.6 45.6 68.1 43.8 68 43.9C68.1 43.3 68.1 42.7 68.2 42.2C68.2 42 67.9 41.9 67.8 42.1C67.5 42.7 67.3 43.3 67 43.9C66.9 44.1 66.3 45.7 66.8 45.3C67 45.1 67.3 43.6 67.3 43.3C67.5 42.4 67.7 41.4 67.8 40.5C67.8 40.2 67.5 40.1 67.4 40.4C67.1 41.3 66.7 42.3 66.4 43.2C66.3 43.4 65.5 46.1 65.9 44.9C66.4 43 66.9 41 67.3 39C67.3 38.8 67 38.6 66.9 38.8C65.9 40.7 65.4 42.9 64.9 45C64.9 45.2 65.2 45.4 65.3 45.2C66.3 43.1 66.7 41 66.8 38.7C66.8 38.5 66.5 38.4 66.4 38.6C65.4 41 64.5 43.5 64.2 46.1C64.2 46.3 64.5 46.4 64.6 46.2C65.4 43.5 65.8 40.8 66.1 38C66.1 37.8 65.8 37.7 65.7 37.9C64.5 40.1 63.8 42.4 63.5 44.9C63.5 45.1 63.8 45.2 63.9 45C64.4 43 64.9 41.1 65.1 39.1C65.1 38.9 64.8 38.7 64.7 39C64 41.3 63.4 43.6 63 45.9C62.9 46.2 63.3 46.3 63.4 46C64.2 43.5 65 41 65.1 38.3C65.1 38.1 64.8 38 64.7 38.2C63.7 40.8 63.2 43.6 62.7 46.3C62.7 46.5 63 46.7 63.1 46.4C63.8 43.5 64.3 40.5 64.3 37.5C64.3 37.3 64 37.2 63.9 37.4C62.9 39.9 62.2 42.5 61.9 45.1C61.9 45.3 62.2 45.4 62.3 45.2C62.9 42.4 63.9 39.7 63.5 36.8C63.5 36.6 63.2 36.5 63.1 36.7C61.8 39.6 60.9 42.5 60.6 45.7C60.6 45.9 60.9 46 61 45.8C61.8 43.3 62.6 40.8 62.5 38.1C62.5 37.9 62.2 37.8 62.1 38C61.4 39.8 60.9 41.7 60.6 43.7C60.6 44 60.9 44.1 61 43.8C61.8 41.4 62.6 39 62.7 36.4C62.7 36.2 62.4 36.1 62.3 36.3C61.6 39.4 60.6 42.5 60.1 45.6C60.1 45.9 60.4 46 60.5 45.7C61.3 43.3 61.9 41 61.7 38.5C61.7 38.3 61.4 38.2 61.3 38.4C60.6 40.4 60.1 42.5 60.1 44.6C60.1 44.8 60.5 44.9 60.5 44.7C60.8 42.6 61.2 40.6 61.2 38.5C61.2 38.3 60.9 38.2 60.8 38.4C60.4 39.2 60.1 40 59.8 40.9C60.2 41.1 60.6 41.2 60.6 41Z" fill="#5F3710"/>
<path d="M42.6 19.9C41.8 21.6 40.9 23.2 40.1 24.8C40.6 25 41 25.2 41.5 25.4C41.7 24.2 42.1 23.1 42.9 22.1C42.4 21.9 42 21.7 41.5 21.5C40.9 23 40.4 24.4 40 25.9C39.8 26.8 41.2 27.2 41.4 26.3C42.1 24 42.9 21.8 44 19.6C44.4 18.7 43.2 18 42.7 18.8C41.3 21.1 40.3 23.5 39.4 26.1C39.9 26.2 40.4 26.4 40.8 26.5C41.4 24.5 42.1 22.6 43.2 20.8C42.7 20.6 42.3 20.4 41.8 20.2C41.2 22.7 40.5 25 39.6 27.3C40.1 27.4 40.6 27.6 41 27.7C41.6 25.4 42.5 23.4 43.9 21.5C43.4 21.4 43 21.2 42.5 21.1C42.2 23.2 41.4 25.1 40.6 27.1C41.1 27.2 41.6 27.4 42 27.5C42.6 25.4 43.4 23.4 44.6 21.5C44.2 21.2 43.7 21 43.3 20.7C42.1 23.5 41 26.3 40 29.2C40.5 29.3 41 29.3 41.5 29.4C41.6 27.4 42.1 25.6 43.1 23.9C42.6 23.7 42.2 23.5 41.7 23.3C41.3 26.4 40.2 29.2 39.2 32.2C39.7 32.3 40.2 32.5 40.6 32.6C41.2 29.2 42.3 26.3 44.2 23.4C43.7 23.2 43.3 23 42.8 22.8C41.9 25.3 41 27.8 39.9 30.2C40.4 30.4 40.8 30.6 41.3 30.8C42.1 28.7 42.7 26.6 43.7 24.6C43.2 24.5 42.8 24.3 42.3 24.2C42.2 27.5 41 30.5 40.1 33.6C40.6 33.7 41.1 33.9 41.5 34C42.5 30.1 43.5 26.3 45.6 22.9C45.1 22.7 44.7 22.5 44.2 22.3C43.7 25.7 42.4 28.6 41.1 31.7C41.6 31.9 42 32.1 42.5 32.3C43.5 29.6 44.3 26.9 45.9 24.4C45.4 24.2 45 24 44.5 23.8C43.5 28 41.3 31.7 40.1 35.9C39.8 36.8 41.2 37.2 41.5 36.3C42.6 33.1 43.9 30.1 45.4 27.1C44.9 26.9 44.5 26.7 44 26.5C43.3 30.1 42.1 33.4 40.6 36.7C41.1 36.9 41.5 37.1 42 37.3C43.2 34.3 44.2 31.3 46.1 28.6C45.6 28.4 45.2 28.2 44.7 28C44.2 31.8 42.5 35.1 41 38.6C41.5 38.7 42 38.9 42.4 39C43.4 35.8 44.4 32.7 46 29.8C45.5 29.6 45.1 29.4 44.6 29.2C43.7 33.1 42.2 36.8 40.9 40.5C40.6 41.4 42 41.8 42.3 40.9C43.5 37.7 44.6 34.5 46.2 31.5C45.7 31.3 45.3 31.1 44.8 30.9C43.7 35 42 39 41.1 43.2C41.6 43.3 42.1 43.5 42.5 43.6C43.4 39.5 44.6 35.7 46.6 32C46.1 31.9 45.7 31.7 45.2 31.6C44.7 36 42.7 39.8 41.3 43.9C41.8 44 42.3 44.2 42.7 44.3C43.8 40.5 44.7 36.9 47.1 33.7C46.6 33.6 46.2 33.4 45.7 33.3C45.2 37.4 43.6 41.1 42.3 44.9C42.8 45 43.3 45.2 43.7 45.3C44.4 42.3 45 39.4 46.3 36.6C45.8 36.5 45.4 36.3 44.9 36.2C44.9 40.2 43.3 43.6 42.2 47.3C42.7 47.4 43.2 47.6 43.6 47.7C44.4 43.4 45.6 39.3 48 35.6C47.5 35.5 47.1 35.3 46.6 35.2C46.6 40.2 44.8 44.9 42.8 49.3C43.3 49.5 43.7 49.7 44.2 49.9C45.2 45.6 45.6 41 48.3 37.3C47.8 37.1 47.4 36.9 46.9 36.7C46 41.9 43.6 46.7 42.7 52C42.5 52.9 43.8 53.3 44.1 52.4C45.6 48.1 46.4 43.5 48.2 39.3C47.7 39.2 47.3 39 46.8 38.9C46.3 42.9 44.5 46.5 43.9 50.5C44.4 50.6 44.9 50.6 45.4 50.7C45.8 47.7 46.6 45 47.8 42.2C47.3 42.1 46.9 41.9 46.4 41.8C46.3 45.5 45.5 49 44.2 52.4C44.7 52.5 45.2 52.7 45.6 52.8C46.1 49.3 46.9 46 48.3 42.7C47.8 42.6 47.3 42.6 46.8 42.5C46.6 45.5 45.9 48.3 45.1 51.2C45.6 51.3 46.1 51.5 46.5 51.6C47 49.4 47.5 47.3 48.2 45.2C47.7 45.1 47.2 44.9 46.8 44.8C46.4 46.9 45.9 48.9 45.3 51C45.8 51.1 46.3 51.3 46.7 51.4C47 49.6 47.5 48 48.2 46.2C47.7 46.1 47.2 46.1 46.7 46C46.8 47.6 46.6 49.2 46.2 50.7C46.7 50.8 47.2 50.8 47.7 50.9C47.9 50 48 49.1 48.2 48.1C47.7 48 47.2 48 46.7 47.9C46.7 48.8 46.7 49.7 46.7 50.6C46.7 51.4 48 51.6 48.2 50.8C48.4 49.7 48.4 49.7 48.5 48.6C48.5 47.8 47.2 47.6 47 48.4C46.7 50 46.6 51.8 46 53.3C45.7 54.2 47.1 54.6 47.4 53.7C48 52.2 48.1 50.4 48.4 48.8C47.9 48.7 47.4 48.7 46.9 48.6C46.8 49.2 46.8 49.8 46.7 50.4C47.2 50.5 47.7 50.5 48.2 50.6C48.2 49.7 48.2 48.8 48.2 47.9C48.2 47.1 46.9 46.9 46.7 47.7C46.3 49.3 46.3 49.3 46.2 50.9C46.1 51.7 47.5 51.9 47.7 51.1C48.1 49.4 48.2 47.8 48.2 46C48.2 45.1 47 45 46.7 45.8C46 47.5 45.6 49.1 45.2 51C45 51.9 46.4 52.3 46.6 51.4C47.1 49.4 47.7 47.3 48.1 45.2C48.3 44.3 47 43.9 46.7 44.8C46 46.9 45.5 49 45 51.2C44.8 52.1 46.2 52.5 46.4 51.6C47.2 48.6 48 45.7 48.1 42.5C48.1 41.6 46.9 41.6 46.6 42.3C45.2 45.6 44.4 48.9 43.9 52.4C43.8 53.3 45 53.7 45.3 52.8C46.6 49.2 47.4 45.6 47.5 41.8C47.5 41.1 46.4 40.7 46.1 41.4C44.8 44.4 43.9 47.4 43.5 50.6C43.4 51.4 44.8 51.6 45 50.8C45.7 46.7 47.5 42.9 48 38.8C48.1 38.1 46.9 37.7 46.6 38.4C44.8 42.8 43.9 47.4 42.3 51.9C42.8 52 43.3 52.2 43.7 52.3C44.6 47.1 46.9 42.3 47.9 37C48.1 36.1 47 35.7 46.5 36.4C43.7 40.2 43.2 44.9 42.2 49.4C42 50.2 43.2 50.8 43.6 50C45.8 45.3 47.6 40.4 47.6 35.1C47.6 34.3 46.6 34.1 46.2 34.7C43.7 38.5 42.6 42.8 41.7 47.2C41.5 48.1 42.9 48.5 43.1 47.6C44.3 43.7 45.8 40.2 45.8 36.1C45.8 35.4 44.7 35 44.4 35.7C43 38.6 42.4 41.6 41.6 44.7C41.4 45.6 42.7 46 43 45.1C44.4 41.1 46 37.3 46.5 33.1C46.6 32.3 45.5 32.2 45.1 32.7C42.7 36 41.7 39.8 40.6 43.7C40.3 44.6 41.7 45 42 44.1C43.5 39.8 45.4 35.9 46 31.4C46.1 30.6 44.9 30.4 44.6 31C42.6 34.8 41.2 38.8 40.3 43C40.1 43.9 41.5 44.3 41.7 43.4C42.6 39.2 44.3 35.2 45.4 31.1C45.6 30.3 44.4 29.8 44 30.5C42.3 33.6 41.2 36.9 40 40.3C40.5 40.4 41 40.6 41.4 40.7C42.7 36.9 44.2 33.3 45.1 29.4C45.3 28.6 44.2 28.1 43.7 28.8C42 31.8 41 35 39.9 38.3C39.6 39.2 41 39.6 41.3 38.7C42.8 35.2 44.5 31.9 45 28.1C45.1 27.3 44.1 26.8 43.6 27.5C41.6 30.3 40.6 33.3 39.3 36.5C39 37.3 40.3 37.9 40.7 37.1C42.2 33.7 43.5 30.3 44.2 26.6C44.3 25.8 43.2 25.2 42.8 26C41.3 29.1 39.9 32.2 38.8 35.5C39.3 35.6 39.8 35.8 40.2 35.9C41.4 31.8 43.6 28.1 44.6 23.8C44.8 23 43.7 22.5 43.2 23.2C41.6 25.8 40.7 28.6 39.7 31.5C39.4 32.3 40.7 32.9 41.1 32.1C42.5 28.9 43.9 25.8 44.4 22.3C44.5 21.5 43.5 20.9 43 21.7C40.8 25.2 39.8 29.2 38.7 33.2C38.5 34.1 39.9 34.5 40.1 33.6C41 30.3 42.3 27.3 42.3 23.8C42.3 23.1 41.2 22.7 40.9 23.4C39.8 25.5 39.2 27.8 38.4 30C38.1 30.8 39.4 31.4 39.8 30.6C41 28.1 41.8 25.4 42.8 22.8C43.1 22 41.9 21.5 41.4 22.2C39.4 25.2 38.3 28.2 37.6 31.7C37.4 32.6 38.7 33 39 32.1C40 29.2 41 26.3 41.5 23.2C41.6 22.4 40.6 21.8 40.1 22.6C39 24.7 38.5 26.6 38.3 28.9C38.2 29.8 39.5 29.9 39.8 29.1C40.7 26.3 41.7 23.6 42.9 20.9C43.3 20 42.1 19.3 41.6 20.1C40.3 22.2 39.5 24.1 38.8 26.4C38.5 27.4 39.9 27.7 40.2 26.8C41.1 24.6 41.9 22.8 42.2 20.5C42.3 19.7 41.2 19.6 40.8 20.1C39.3 22.2 38.4 24.2 37.8 26.7C37.6 27.7 38.9 28 39.2 27.1C40.1 24.7 40.8 22.4 41.4 20C41.6 19.2 40.5 18.7 40 19.4C38.8 21.4 38.1 23.3 37.5 25.5C37.2 26.4 38.6 26.8 38.9 25.9C39.7 23.5 40.7 21.2 42 18.9C41.6 18.6 41.1 18.4 40.7 18.1C39.5 20.4 38.7 22.7 37.9 25.2C38.4 25.3 38.9 25.5 39.3 25.6C39.7 24.1 40.2 22.7 40.8 21.2C41.1 20.4 39.9 20 39.4 20.6C38.6 21.8 38.1 22.8 37.8 24.2C37.7 25 38.8 25.6 39.2 24.8C40 23.1 40.9 21.5 41.7 19.9C44.3 19.8 43 19 42.6 19.9Z" fill="#EEBB46"/>
<path d="M46.9 26.8C46.2 18.9 59.2 0.700016 68.3 3.70002C73.7 5.40002 74.5 12.8 73.2 17.2C71.7 22.9 66.8 28 61.9 30.5C67.8 29.5 73 29.8 76.9 34.9C80.6 40.1 80.8 46.2 76.4 51.1C67.3 60.9 54.5 59.2 49.8 46.7C48.3 43.3 48.8 40.1 48.3 36.4C47.9 33.2 47.1 30.2 46.9 26.8Z" stroke="#5F3710" stroke-width="2" stroke-miterlimit="10"/>
<path d="M40.5 26.6C33.6 21.7 20.1 18.5 11.7 19.2C5.99999 19.7 0.899995 25.8 2.1 31.7C3.1 37.1 9.2 42.5 14.4 43.3C18.3 43.8 23.3 43.5 27.2 43.3C28.2 45.8 21.3 53.6 20.3 57.3C19.1 62.7 18.1 69.1 25.5 69.8C36.3 71 45 55.2 43.1 47.3C41 38.6 41 36.3 40.5 30.4V26.6Z" stroke="#5F3710" stroke-width="2" stroke-miterlimit="10"/>
<path d="M41.9 19.9C39.8 22.2 40.3 26.5 40.4 29.3C40.5 33.9 41.2 38.5 42.1 43C42.6 45.3 43.1 47.6 43.7 49.9C45.7 57.8 49.6 52.9 49.4 46.9C49.2 42.2 48.2 37.6 47.7 33.1C47.4 30.8 47.3 28.4 46.9 26.1C46.5 24.1 46 20.5 44.1 19.3C43.2 18.9 42.5 19.3 41.9 19.9Z" stroke="#5F3710" stroke-width="2" stroke-miterlimit="10"/>
<path d="M28 7.20001C31 8.90001 34.2 9.40001 36.6 12.1C39.1 14.3 40.3 17.5 42 20.2" stroke="#5F3710" stroke-width="2" stroke-miterlimit="10"/>
<path d="M46.2 1.10001C42.8 3.80001 42.8 15.4 43.7 19.3" stroke="#5F3710" stroke-width="2" stroke-miterlimit="10"/>
</svg>
