<svg width="347" height="262" viewBox="0 0 347 262" fill="none" xmlns="http://www.w3.org/2000/svg">
<path d="M304.7 86.7C303.8 86.7 302.9 86.7 302 86.8C303.5 83.6 304.3 80 304.3 76.2C304.3 62.3 293 51 279.1 51C275.4 51 272 51.8 268.8 53.2C269.5 50.2 269.9 47 269.9 43.8C269.9 22 252.2 4.3 230.4 4.3C218.7 4.3 208.1 9.40001 200.9 17.6C195.5 7.50001 184.9 0.699997 172.7 0.699997C158.6 0.699997 146.6 9.90001 142.4 22.6C134.7 12.9 122.8 6.70001 109.4 6.70001C86.1 6.70001 67.2 25.6 67.2 48.9C67.2 54 68.1 59 69.8 63.5C65.5 60.1 60 58.1 54.1 58.1C40 58.1 28.6 69.5 28.6 83.6C28.6 92 32.6 99.4 38.8 104C16.8 107.6 0 126.7 0 149.7C0 175.3 20.7 196 46.3 196C47.3 196 48.3 196 49.3 195.9C47 200.5 45.7 205.7 45.7 211.2C45.7 229.9 60.9 245.1 79.6 245.1C89.8 245.1 98.9 240.6 105.2 233.4C109.4 241.7 118 247.4 127.9 247.4C135.8 247.4 142.8 243.8 147.5 238.2C153.7 251.9 167.4 261.4 183.4 261.4C200.8 261.4 215.5 250.2 220.7 234.5C225.7 241 233.6 245.2 242.4 245.2C257.6 245.2 269.9 232.9 269.9 217.7C269.9 214.5 269.4 211.5 268.4 208.7C271.9 210.4 275.8 211.3 279.9 211.2C293.8 210.9 304.9 199.4 304.6 185.5C304.5 180 302.6 175 299.6 170.9C301.2 171.1 302.9 171.2 304.6 171.2C327.9 171.2 346.8 152.3 346.8 129C346.9 105.6 328 86.7 304.7 86.7Z" fill="white"/>
</svg>
