<svg width="144" height="103" viewBox="0 0 144 103" fill="none" xmlns="http://www.w3.org/2000/svg">
<path d="M119.6 34.1C119.6 19.4 107.7 7.60001 93.1 7.60001C86.8 7.60001 81.1 9.79999 76.5 13.4C71.9 5.49999 63.3 0.100006 53.5 0.100006C38.8 0.100006 27 12 27 26.6C27 29.2 27.4 31.7 28.1 34.1C27.7 34.1 27.4 34.1 27 34.1C12.3 34.1 0.5 46 0.5 60.6C0.5 75.3 12.4 87.1 27 87.1C35.6 87.1 43.2 83 48 76.8C48.6 90.9 60.2 102.2 74.5 102.2C87.9 102.2 99 92.2 100.8 79.3C105.6 84.1 112.3 87.1 119.6 87.1C134.3 87.1 146.1 75.2 146.1 60.6C146.1 46 134.2 34.1 119.6 34.1Z" fill="white"/>
</svg>
