<svg width="146" height="103" viewBox="0 0 146 103" fill="none" xmlns="http://www.w3.org/2000/svg">
<path opacity="0.5" d="M119.2 34.8C119.2 20.1 107.3 8.3 92.7 8.3C86.4 8.3 80.7 10.5 76.1 14.1C71.5 6.2 62.9 0.800003 53.1 0.800003C38.4 0.800003 26.6 12.7 26.6 27.3C26.6 29.9 27 32.4 27.7 34.8C27.3 34.8 27 34.8 26.6 34.8C11.9 34.8 0 46.7 0 61.4C0 76.1 11.9 87.9 26.5 87.9C35.1 87.9 42.7 83.8 47.5 77.6C48.1 91.7 59.7 103 74 103C87.4 103 98.5 93 100.3 80.1C105.1 84.9 111.8 87.9 119.1 87.9C133.8 87.9 145.6 76 145.6 61.4C145.7 46.7 133.8 34.8 119.2 34.8Z" fill="white"/>
</svg>
