<svg width="86" height="80" viewBox="0 0 86 80" fill="none" xmlns="http://www.w3.org/2000/svg">
<path d="M31.2032 0C28.9078 0 27.3426 0.417334 26.4036 1.14771C25.6732 1.77375 24.1081 3.44322 21.7083 6.26039C19.4128 8.86889 16.7 11.2687 13.7785 13.3555C10.8569 15.4423 6.78769 17.5291 1.77938 19.4072C1.5707 19.5115 1.36202 19.6159 1.25768 19.8246C-0.307419 22.3287 -0.411778 24.6242 0.94464 26.9197C2.82276 30.1542 6.37032 31.0933 9.91788 30.3629C11.5873 30.0499 13.1524 29.3195 14.7175 28.4848C15.4479 28.0674 20.3519 25.7719 20.3519 25.1459V70.325C20.3519 73.3509 21.2909 75.7508 23.0647 77.4202C24.8385 78.9853 27.134 79.82 29.9511 79.82C34.4378 79.82 39.6547 77.8375 39.6547 68.3426V9.07758C39.6547 6.36475 38.9243 4.06922 37.3592 2.50412C35.7942 0.834681 33.7074 0 31.2032 0Z" fill="white"/>
<path d="M24.8385 18.5725C19.0998 22.6417 9.29186 29.4238 3.55317 25.0416C1.36203 23.3721 1.04897 21.2853 1.88369 19.4072C1.88369 19.4072 1.77938 19.4072 1.77938 19.5116C1.5707 19.6159 1.36202 19.7202 1.25768 19.9289C-0.307419 22.433 -0.411778 24.7285 0.94464 27.024C2.82276 30.2585 6.37032 31.1976 9.91788 30.4673C11.5873 30.1542 13.1524 29.4238 14.7175 28.5891C15.1348 28.3804 18.8911 26.398 20.3519 25.5633C21.4996 23.4765 23.482 20.6593 24.8385 18.5725Z" fill="white"/>
<path d="M37.3589 2.50412C35.7938 0.834681 33.7071 0 31.2029 0C28.9075 0 27.3423 0.417334 26.4033 1.14771C25.8816 1.66941 24.8382 2.71281 23.3774 4.27791C27.6554 3.23451 31.7246 4.17359 33.6027 9.91229C35.4809 15.8597 34.6461 22.12 34.6461 28.2761C34.6461 35.1625 34.8548 42.049 34.8548 48.831C34.8548 55.3001 35.2721 62.2909 34.0201 68.6556C33.4984 71.5771 32.6637 75.4377 29.9508 77.3158C28.2814 78.4636 26.5076 78.7766 24.8382 78.5679C26.2989 79.2983 27.9683 79.7156 29.8465 79.7156C34.3331 79.7156 39.5501 77.7332 39.5501 68.2382V8.9732C39.6545 6.26037 38.924 4.06922 37.3589 2.50412Z" fill="white"/>
<path d="M23.5865 8.5559C21.4997 10.121 19.726 12.1034 17.6392 13.6685C15.4481 15.338 13.1526 17.1118 10.8571 18.4682C10.6484 18.5725 10.6484 18.9898 10.9614 18.8855C13.5699 18.1551 15.9698 16.3814 18.1609 14.8163C20.352 13.3555 22.8562 11.4774 24.2126 9.18191C24.63 8.76455 24.1082 8.13854 23.5865 8.5559Z" fill="white"/>
<path d="M8.35272 19.4072C7.83102 19.5115 7.30929 19.7202 6.89193 19.9289C6.57891 20.1375 6.47461 20.6593 6.99631 20.6593C7.10065 20.6593 7.20498 20.6593 7.30932 20.5549C7.62234 20.5549 7.93536 20.4505 8.35272 20.2419C8.77008 20.1375 8.97876 19.1985 8.35272 19.4072Z" fill="white"/>
<path d="M23.3782 31.8237C23.2738 31.615 23.0651 31.8236 23.0651 31.928C22.9608 41.2142 22.2304 50.3962 22.9608 59.7867C22.9608 60.3084 23.7955 59.9954 23.7955 59.5781C24.2128 53.9437 24.1085 48.205 24.1085 42.4663C24.2128 39.0231 24.4216 35.1625 23.3782 31.8237Z" fill="white"/>
<path d="M77.2032 0C74.9078 0 73.3426 0.417334 72.4036 1.14771C71.6732 1.77375 70.1081 3.44322 67.7083 6.26039C65.4128 8.86889 62.7 11.2687 59.7785 13.3555C56.8569 15.4423 52.7877 17.5291 47.7794 19.4072C47.5707 19.5115 47.362 19.6159 47.2577 19.8246C45.6926 22.3287 45.5882 24.6242 46.9446 26.9197C48.8228 30.1542 52.3703 31.0933 55.9179 30.3629C57.5873 30.0499 59.1524 29.3195 60.7175 28.4848C61.4479 28.0674 66.3519 25.7719 66.3519 25.1459V70.325C66.3519 73.3509 67.2909 75.7508 69.0647 77.4202C70.8385 78.9853 73.134 79.82 75.9511 79.82C80.4378 79.82 85.6547 77.8375 85.6547 68.3426V9.07758C85.6547 6.36475 84.9243 4.06922 83.3592 2.50412C81.7942 0.834681 79.7074 0 77.2032 0Z" fill="white"/>
<path d="M70.8385 18.5725C65.0998 22.6417 55.2919 29.4238 49.5532 25.0416C47.362 23.3721 47.049 21.2853 47.8837 19.4072C47.8837 19.4072 47.7794 19.4072 47.7794 19.5116C47.5707 19.6159 47.362 19.7202 47.2577 19.9289C45.6926 22.433 45.5882 24.7285 46.9446 27.024C48.8228 30.2585 52.3703 31.1976 55.9179 30.4673C57.5873 30.1542 59.1524 29.4238 60.7175 28.5891C61.1348 28.3804 64.8911 26.398 66.3519 25.5633C67.4996 23.4765 69.482 20.6593 70.8385 18.5725Z" fill="white"/>
<path d="M83.3589 2.50412C81.7938 0.834681 79.7071 0 77.2029 0C74.9075 0 73.3423 0.417334 72.4033 1.14771C71.8816 1.66941 70.8382 2.71281 69.3774 4.27791C73.6554 3.23451 77.7246 4.17359 79.6027 9.91229C81.4809 15.8597 80.6461 22.12 80.6461 28.2761C80.6461 35.1625 80.8548 42.049 80.8548 48.831C80.8548 55.3001 81.2721 62.2909 80.0201 68.6556C79.4984 71.5771 78.6637 75.4377 75.9508 77.3158C74.2814 78.4636 72.5076 78.7766 70.8382 78.5679C72.2989 79.2983 73.9683 79.7156 75.8465 79.7156C80.3331 79.7156 85.5501 77.7332 85.5501 68.2382V8.9732C85.6545 6.26037 84.924 4.06922 83.3589 2.50412Z" fill="white"/>
<path d="M69.5865 8.5559C67.4997 10.121 65.726 12.1034 63.6392 13.6685C61.4481 15.338 59.1526 17.1118 56.8571 18.4682C56.6484 18.5725 56.6484 18.9898 56.9614 18.8855C59.5699 18.1551 61.9698 16.3814 64.1609 14.8163C66.352 13.3555 68.8562 11.4774 70.2126 9.18191C70.63 8.76455 70.1082 8.13854 69.5865 8.5559Z" fill="white"/>
<path d="M54.3527 19.4072C53.831 19.5115 53.3093 19.7202 52.8919 19.9289C52.5789 20.1375 52.4746 20.6592 52.9963 20.6592C53.1007 20.6592 53.205 20.6593 53.3093 20.5549C53.6223 20.5549 53.9354 20.4505 54.3527 20.2419C54.7701 20.1375 54.9788 19.1985 54.3527 19.4072Z" fill="white"/>
<path d="M69.3782 31.8237C69.2738 31.615 69.0651 31.8236 69.0651 31.928C68.9608 41.2142 68.2304 50.3962 68.9608 59.7867C68.9608 60.3084 69.7955 59.9954 69.7955 59.5781C70.2128 53.9437 70.1085 48.205 70.1085 42.4663C70.2128 39.0231 70.4216 35.1625 69.3782 31.8237Z" fill="white"/>
</svg>
