<svg width="225" height="58" viewBox="0 0 225 58" fill="none" xmlns="http://www.w3.org/2000/svg">
<path d="M52.3887 18.5107H35.9736V2.32839C35.9736 1.04778 34.9258 0 33.6452 0H21.0719C19.7913 0 18.7435 1.04778 18.7435 2.32839V18.5107H2.44478C1.16417 18.5107 0.116394 19.5585 0.116394 20.8391V33.5288C0.116394 34.8094 1.16417 35.8572 2.44478 35.8572H18.7435V51.9231C18.7435 53.2037 19.7913 54.2515 21.0719 54.2515H33.6452C34.9258 54.2515 35.9736 53.2037 35.9736 51.9231V35.8572H52.3887C53.6693 35.8572 54.7171 34.8094 54.7171 33.5288V20.8391C54.8335 19.5585 53.7858 18.5107 52.3887 18.5107Z" fill="#EC2427"/>
<path d="M18.9764 34.693C19.5585 34.1109 19.7913 33.6452 20.4898 33.1795C22.0033 32.1318 19.5585 32.481 18.9764 32.5974C14.9017 32.9467 10.5942 32.5974 6.5195 32.5974C3.60901 32.5974 1.39703 31.8989 0 30.5019V33.5288C0 34.8094 1.04778 35.8572 2.32839 35.8572H18.2779C18.5107 35.5079 18.7435 35.0422 18.9764 34.693Z" fill="#993236"/>
<path d="M52.3887 18.5107H35.9736V2.32839C35.9736 1.04778 34.9258 0 33.6452 0H21.0719C19.7913 0 18.7435 1.04778 18.7435 2.32839V3.1433C18.9764 3.02688 19.3256 2.79406 19.5584 2.79406C22.8182 2.09554 26.4272 2.67764 29.8034 2.79406C32.1318 2.79406 33.5288 4.07468 33.7616 6.40307C34.2273 11.2927 33.7616 16.1823 33.5288 21.1883C39.2333 22.0033 51.2246 19.2092 51.8066 27.9407C51.9231 30.3855 50.7589 32.1317 48.8962 32.8303C44.0065 34.4601 38.1856 33.4124 32.9467 33.0631C33.4124 35.2751 33.6452 37.3706 33.7616 39.4662C33.8781 42.3767 34.3437 48.6633 32.8303 51.4574C31.8989 53.0873 30.3855 53.9022 28.7556 54.3679H33.8781C35.1587 54.3679 36.2064 53.3201 36.2064 52.0395V35.9736H52.6216C53.9022 35.9736 54.95 34.9258 54.95 33.6452V20.8391C54.8336 19.5585 53.7858 18.5107 52.3887 18.5107Z" fill="#993236"/>
<path d="M22.0033 15.1345C22.0033 11.6419 21.6541 8.03294 21.7705 4.65678C21.7705 4.42394 21.5376 4.42394 21.4212 4.65678C20.257 6.75233 20.6063 8.96428 20.6063 11.2927C20.6063 12.6897 20.6063 14.2032 20.6063 15.6002C20.6063 16.9972 20.9556 18.5107 20.3735 19.7913C20.1406 20.3734 20.8391 20.4898 21.1884 20.1405C22.5854 18.9764 22.0033 16.648 22.0033 15.1345Z" fill="white"/>
<path d="M21.3048 35.5079C21.1883 35.1587 20.8391 35.3915 20.8391 35.6244C20.6063 39.0005 19.9077 43.1916 20.7227 46.5678C20.8391 46.917 21.1883 46.6842 21.3048 46.4514C22.0033 43.308 21.8869 38.7677 21.3048 35.5079Z" fill="white"/>
<path d="M6.63597 20.9555C5.58819 20.3734 3.72545 20.4898 2.67768 21.0719C2.09558 21.4212 1.97919 22.1197 1.97919 22.7018C1.97919 23.2839 1.97917 24.0988 2.212 24.6809C2.212 24.7973 2.32844 24.7973 2.44486 24.7973C2.56128 24.7973 2.56126 24.7973 2.67768 24.5645C2.91051 23.866 2.67768 22.2361 3.3762 21.8868C3.72546 21.7704 4.30757 21.7704 4.77325 21.7704C5.35534 21.654 5.93744 21.7704 6.51954 21.5376C6.63596 21.4212 6.8688 21.0719 6.63597 20.9555Z" fill="white"/>
<path d="M101.949 14H77.0012C72.2725 14 68.5223 15.3045 65.9134 17.7503C63.3045 20.1961 62 23.4573 62 27.3706C62 31.284 63.3045 34.5451 66.0764 36.991C68.6853 39.4368 72.2725 40.5782 77.0012 40.5782H101.949C106.84 40.5782 110.591 39.2737 113.037 36.8279C115.646 34.382 116.95 31.1209 116.95 27.3706C116.95 23.4573 115.646 20.1961 113.037 17.7503C110.428 15.3045 106.677 14 101.949 14Z" fill="#25B8EB"/>
<path d="M113.037 17.7503C110.428 15.3045 106.841 14 101.949 14H95.7527C100.318 14 104.069 14.9783 106.514 17.0981C109.123 19.2178 110.265 21.9898 110.265 25.2509C110.265 28.512 108.96 31.284 106.514 33.2407C104.069 35.3604 100.318 36.3387 95.7527 36.3387H71.2942C68.8484 36.3387 66.7286 36.0126 64.772 35.3604C65.0981 35.8496 65.5873 36.3387 66.0764 36.8279C68.6853 39.2737 72.2726 40.4151 77.0012 40.4151H101.949C106.841 40.4151 110.591 39.1107 113.037 36.6648C115.646 34.219 116.95 30.9579 116.95 27.2076C116.95 23.4573 115.646 20.1961 113.037 17.7503Z" fill="#25B8EB"/>
<path d="M89.3935 17.5872C82.8712 16.935 60.8586 16.2828 65.9134 29.0012C66.0764 29.4903 66.7286 29.0012 66.7286 28.6751C66.7286 22.3159 70.9681 19.87 76.6751 19.5439C80.9145 19.3808 84.991 19.2178 89.0674 18.5656C89.5565 18.5656 90.0457 17.7503 89.3935 17.5872Z" fill="white"/>
<path d="M94.9374 17.9133C94.2851 17.7503 93.796 17.7503 93.1437 17.7503C92.8176 17.7503 92.4915 18.2395 92.8176 18.4025C93.3068 18.7286 93.959 18.8917 94.4482 18.8917C94.9374 18.8917 95.5896 18.0764 94.9374 17.9133Z" fill="white"/>
<path d="M164.809 29.713L174.599 18.6185C175.773 17.3133 176.556 16.2691 177.209 15.2249C177.992 14.0502 178.384 12.6145 178.384 11.3093C178.384 9.87351 177.862 7.78516 175.512 5.95784C173.815 4.78314 171.727 4.13051 169.378 4.13051C167.159 4.13051 165.331 4.6526 163.765 5.69678C162.46 6.61044 161.024 7.91568 159.458 9.87352L152.54 17.9659L145.362 9.74299C143.795 7.91567 142.36 6.61044 141.054 5.69678C139.488 4.6526 137.661 4 135.442 4C132.962 4 130.874 4.65261 129.177 5.82731C126.827 7.65463 126.436 9.61247 126.436 11.0482C126.436 13.2671 127.61 15.747 130.09 18.3575L139.88 29.4519L128.524 43.0263C126.175 45.8978 125 48.1166 125 50.0745C125 51.5102 125.522 53.5986 128.002 55.4259C129.699 56.7311 131.787 57.3838 134.137 57.3838C136.355 57.3838 138.183 56.8617 139.619 55.8175C140.793 54.9038 142.229 53.5986 143.926 51.6408L152.41 41.46L160.633 51.6408C162.199 53.5986 163.635 54.9038 164.94 55.8175C166.506 56.8617 168.334 57.5143 170.552 57.5143C172.902 57.5143 174.99 56.8617 176.687 55.687C179.167 53.8596 179.689 51.7713 179.689 50.3355C179.689 48.3777 178.514 46.2893 176.034 43.2873L164.809 29.713Z" fill="#F7913C"/>
<path d="M176.165 43.2873L164.809 29.713L174.599 18.6185C175.773 17.3133 176.556 16.2691 177.209 15.2249C177.992 14.0502 178.384 12.6145 178.384 11.3093C178.384 9.8735 177.862 7.78515 175.512 5.95784C173.815 4.78313 171.727 4.13051 169.378 4.13051C169.117 4.13051 168.856 4.13051 168.725 4.13051C169.247 4.39155 169.769 4.78313 170.291 5.17469C172.119 7.00201 173.424 10.004 172.249 12.6145C170.683 16.1386 167.942 19.0101 165.07 21.6206C162.852 23.7089 160.894 25.9278 158.675 28.0162C162.46 32.976 166.898 37.5443 170.813 42.5042C173.554 46.0283 176.556 49.4219 174.338 53.8596C173.163 56.209 171.335 57.1227 169.247 57.2532C169.769 57.3837 170.291 57.3837 170.813 57.3837C173.163 57.3837 175.251 56.7311 176.948 55.5564C179.428 53.7291 179.95 51.6408 179.95 50.205C179.819 48.5082 178.645 46.2893 176.165 43.2873Z" fill="#F7913C"/>
<path d="M152.149 41.8515C152.41 41.3295 154.237 35.4559 152.801 36.3696C150.974 37.5443 149.408 39.1106 147.972 40.6768C143.795 45.2451 139.618 51.1186 134.528 54.6428C133.092 55.6869 131.004 56.3396 129.046 56.3396C130.482 57.1227 132.179 57.5143 134.006 57.5143C136.225 57.5143 138.052 56.9922 139.488 55.948C140.663 55.0343 142.098 53.7291 143.795 51.7713L151.888 41.9821C152.149 41.9821 152.149 41.8515 152.149 41.8515Z" fill="#F7913C"/>
<path d="M130.351 5.95784C134.006 5.04418 137.922 7.91567 140.141 10.3956C142.751 13.2671 145.1 16.2691 147.58 19.1406C150.582 22.5342 151.757 20.5764 152.279 17.9659L145.231 9.87352C143.665 8.0462 142.229 6.74097 140.924 5.82731C139.357 4.78313 137.53 4.13051 135.311 4.13051C132.831 4.13051 130.743 4.78313 129.046 5.95784C128.785 6.21888 128.524 6.34941 128.263 6.61045C129.046 6.34941 129.699 6.08836 130.351 5.95784Z" fill="#F7913C"/>
<path d="M140.924 25.1447C139.88 22.7953 137.53 20.5764 135.964 18.6185C133.484 15.486 130.09 13.5281 131.135 8.95985C131.265 8.56828 130.743 8.69881 130.612 8.82934C129.046 11.5703 129.177 13.5282 131.135 16.0081C132.44 17.5744 134.006 19.0101 135.311 20.5764C136.878 22.2732 138.313 24.231 140.141 25.6667C140.532 26.0583 141.185 25.5362 140.924 25.1447Z" fill="white"/>
<path d="M165.462 7.78516C162.982 8.30725 161.807 9.61247 160.241 11.5703C159.066 12.8755 157.892 14.0502 156.717 15.2249C155.934 16.0081 155.151 16.7912 154.629 17.8354C154.368 18.488 155.281 18.488 155.542 18.0964C156.978 16.1386 158.805 14.5723 160.502 12.8755C162.068 11.0482 163.504 9.35142 165.593 8.0462C165.593 8.0462 165.593 7.78516 165.462 7.78516Z" fill="white"/>
<path d="M139.619 34.0202C137.139 37.2833 134.137 40.0243 131.526 43.1568C129.568 45.5062 127.61 48.1167 128.524 51.2492C128.785 51.9018 129.699 51.1187 129.699 50.7271C129.568 46.8114 132.44 44.0705 134.659 41.199C136.486 38.8496 138.313 36.6307 139.88 34.1507C139.88 33.8897 139.619 33.8897 139.619 34.0202Z" fill="white"/>
<path d="M163.635 50.5966C162.852 49.4219 161.807 48.3777 160.763 47.203C159.588 45.8977 158.414 44.5925 157.37 43.1568C157.239 42.8957 156.848 43.2873 156.978 43.5483C158.675 46.1588 160.633 49.1608 163.113 50.9881C163.374 51.1187 163.896 50.8576 163.635 50.5966Z" fill="white"/>
<path d="M214.393 23.1117H197.193C193.88 23.1117 191.332 23.8762 189.676 25.2777C187.892 26.6793 187 28.5904 187 30.8838C187 33.1772 187.892 34.961 189.803 36.4899C191.587 37.8915 194.135 38.6559 197.32 38.6559H214.521C217.834 38.6559 220.382 37.8915 222.166 36.4899C223.949 35.0884 224.841 33.1773 224.841 31.0113C224.841 28.7178 223.949 26.9341 222.166 25.4051C220.127 23.8762 217.579 23.1117 214.393 23.1117Z" fill="#25B8EB"/>
<path d="M221.911 25.2777C220.127 23.8762 217.579 23.1117 214.394 23.1117H210.062C213.247 23.1117 215.668 23.7488 217.451 24.8955C219.235 26.1696 220.127 27.6985 220.127 29.6097C220.127 31.5209 219.235 33.0498 217.579 34.3239C215.922 35.4706 213.374 36.1077 210.189 36.1077H193.371C191.714 36.1077 190.185 35.8529 188.911 35.598C189.166 35.8529 189.421 36.1077 189.803 36.3625C191.587 37.764 194.135 38.5285 197.32 38.5285H214.521C217.834 38.5285 220.382 37.764 222.166 36.3625C223.949 34.961 224.841 33.0498 224.841 30.8838C224.586 28.5904 223.695 26.6793 221.911 25.2777Z" fill="#25B8EB"/>
<path d="M205.73 25.2777C201.27 24.8955 186.236 24.5132 189.676 31.9031C189.803 32.1579 190.185 31.9031 190.185 31.7757C190.185 28.0808 193.116 26.6793 197.066 26.5519C199.996 26.4244 202.672 26.297 205.602 26.0422C205.857 25.7874 206.239 25.2777 205.73 25.2777Z" fill="white"/>
<path d="M209.552 25.4051C209.17 25.2777 208.787 25.2777 208.278 25.2777C208.023 25.2777 207.768 25.5325 208.023 25.66C208.405 25.7874 208.787 25.9148 209.17 26.0422C209.552 26.0422 209.934 25.5325 209.552 25.4051Z" fill="white"/>
<path d="M212.355 6.16601C210.698 4.76448 208.533 4 205.984 4H205.857C203.436 4 201.27 4.63706 199.614 5.91117C197.703 7.3127 196.683 9.22387 196.683 11.5173C196.683 13.9381 197.703 15.9767 199.614 17.3782C201.397 18.6523 203.436 19.2894 205.857 19.2894H205.984C208.278 19.2894 210.189 18.6523 211.973 17.5056C214.011 16.1041 215.03 14.1929 215.03 11.7721C215.158 9.60612 214.139 7.69495 212.355 6.16601Z" fill="#D5DA25"/>
<path d="M212.355 6.16601C210.698 4.76448 208.533 4 205.984 4H205.857C203.436 4 201.27 4.63706 199.614 5.91117C197.703 7.3127 196.683 9.22387 196.683 11.5173C196.683 13.9381 197.703 15.9767 199.614 17.3782C201.397 18.6523 203.436 19.2894 205.857 19.2894H205.984C208.278 19.2894 210.189 18.6523 211.973 17.5056C214.011 16.1041 215.03 14.1929 215.03 11.7721C215.158 9.60612 214.139 7.69495 212.355 6.16601Z" fill="#D5DA25"/>
<path d="M212.355 6.16601C210.698 4.76448 208.533 4 205.984 4H205.857C203.436 4 201.27 4.63706 199.614 5.91117C197.703 7.3127 196.683 9.22387 196.683 11.5173C196.683 13.9381 197.703 15.9767 199.614 17.3782C201.397 18.6523 203.436 19.2894 205.857 19.2894H205.984C208.278 19.2894 210.189 18.6523 211.973 17.5056C214.011 16.1041 215.03 14.1929 215.03 11.7721C215.158 9.60612 214.139 7.69495 212.355 6.16601ZM208.533 15.5945C207.386 16.3589 206.112 16.7412 204.583 16.7412H204.455C202.926 16.7412 201.525 16.2315 200.378 15.467C199.104 14.5752 198.34 13.1736 198.467 11.6447C198.467 10.2432 199.104 8.96906 200.378 7.94977C201.525 7.05788 202.926 6.67565 204.455 6.67565H204.583C206.239 6.67565 207.641 7.1853 208.787 8.07719C209.934 9.09648 210.571 10.3706 210.571 11.7721C210.571 13.3011 209.934 14.7026 208.533 15.5945Z" fill="#D5DA25"/>
<path d="M203.181 8.07718C201.907 8.20459 200.378 8.96904 199.869 10.2432C199.486 11.135 198.977 12.664 199.741 13.5559C200.506 14.3203 201.907 12.9188 201.143 12.1543C200.888 11.8995 201.27 10.7528 201.27 10.498C201.397 9.73352 202.417 9.09646 203.054 8.58682C203.309 8.33199 203.436 8.07718 203.181 8.07718Z" fill="white"/>
<path d="M212.355 44.3895C210.698 42.9879 208.533 42.2235 205.984 42.2235H205.857C203.436 42.2235 201.27 42.8605 199.614 44.1346C197.703 45.5362 196.683 47.4473 196.683 49.7407C196.683 52.1616 197.703 54.2002 199.614 55.6017C201.397 56.8758 203.436 57.5128 205.857 57.5128H205.984C208.278 57.5128 210.189 56.8758 211.973 55.7291C214.011 54.3276 215.03 52.4164 215.03 49.9956C215.158 47.8296 214.139 45.9184 212.355 44.3895Z" fill="#D5DA25"/>
<path d="M212.355 44.3895C210.698 42.9879 208.533 42.2235 205.984 42.2235H205.857C203.436 42.2235 201.27 42.8605 199.614 44.1346C197.703 45.5362 196.683 47.4473 196.683 49.7407C196.683 52.1616 197.703 54.2002 199.614 55.6017C201.397 56.8758 203.436 57.5128 205.857 57.5128H205.984C208.278 57.5128 210.189 56.8758 211.973 55.7291C214.011 54.3276 215.03 52.4164 215.03 49.9956C215.158 47.8296 214.139 45.9184 212.355 44.3895Z" fill="#D5DA25"/>
<path d="M212.355 44.3895C210.698 42.9879 208.533 42.2235 205.984 42.2235H205.857C203.436 42.2235 201.27 42.8605 199.614 44.1346C197.703 45.5362 196.683 47.4473 196.683 49.7407C196.683 52.1616 197.703 54.2002 199.614 55.6017C201.397 56.8758 203.436 57.5128 205.857 57.5128H205.984C208.278 57.5128 210.189 56.8758 211.973 55.7291C214.011 54.3276 215.03 52.4164 215.03 49.9956C215.158 47.8296 214.139 45.9184 212.355 44.3895ZM208.533 53.8179C207.386 54.5824 206.112 54.9646 204.583 54.9646H204.455C202.926 54.9646 201.525 54.455 200.378 53.6905C199.104 52.7986 198.34 51.3971 198.467 49.8682C198.467 48.4666 199.104 47.1925 200.378 46.1732C201.525 45.2813 202.926 44.8991 204.455 44.8991H204.583C206.239 44.8991 207.641 45.4088 208.787 46.3007C209.934 47.3199 210.571 48.594 210.571 49.9956C210.571 51.6519 209.934 52.926 208.533 53.8179Z" fill="#D5DA25"/>
<path d="M203.181 46.3006C201.907 46.4281 200.378 47.1925 199.869 48.4666C199.486 49.3585 198.977 50.8874 199.741 51.7793C200.506 52.5438 201.907 51.1423 201.143 50.3778C200.888 50.123 201.27 48.9763 201.27 48.7215C201.397 47.957 202.417 47.3199 203.054 46.8103C203.309 46.6829 203.436 46.3006 203.181 46.3006Z" fill="white"/>
</svg>
