<svg width="35" height="17" viewBox="0 0 35 17" fill="none" xmlns="http://www.w3.org/2000/svg">
<path d="M25 0H9.7C6.8 0 4.5 0.800003 2.9 2.3C1.3 3.8 0.5 5.8 0.5 8.2C0.5 10.6 1.3 12.6 3 14.1C4.6 15.6 6.8 16.3 9.7 16.3H25C28 16.3 30.3 15.5 31.8 14C33.4 12.5 34.2 10.5 34.2 8.2C34.2 5.8 33.4 3.8 31.8 2.3C30.2 0.800003 27.9 0 25 0Z" fill="#25B8EB"/>
<path d="M31.8 2.3C30.2 0.800003 28 0 25 0H21.2C24 0 26.3 0.599994 27.8 1.89999C29.4 3.19999 30.1 4.89999 30.1 6.89999C30.1 8.89999 29.3 10.6 27.8 11.8C26.3 13.1 24 13.7 21.2 13.7H6.2C4.7 13.7 3.4 13.5 2.2 13.1C2.4 13.4 2.7 13.7 3 14C4.6 15.5 6.8 16.2 9.7 16.2H25C28 16.2 30.3 15.4 31.8 13.9C33.4 12.4 34.2 10.4 34.2 8.10001C34.2 5.80001 33.4 3.8 31.8 2.3Z" fill="#25B8EB"/>
<path d="M17.3 2.19999C13.3 1.79999 -0.199999 1.39999 2.9 9.19999C3 9.49999 3.4 9.19999 3.4 8.99999C3.4 5.09999 6 3.59999 9.5 3.39999C12.1 3.29999 14.6 3.2 17.1 2.8C17.4 2.8 17.7 2.29999 17.3 2.19999Z" fill="white"/>
<path d="M20.7 2.39999C20.3 2.29999 20 2.3 19.6 2.3C19.4 2.3 19.2 2.6 19.4 2.7C19.7 2.9 20.1 3 20.4 3C20.7 3 21.1 2.49999 20.7 2.39999Z" fill="white"/>
</svg>
