<svg width="43" height="42" viewBox="0 0 43 42" fill="none" xmlns="http://www.w3.org/2000/svg">
<path d="M31.3 20.3L38.8 11.8C39.7 10.8 40.3 10 40.8 9.2C41.4 8.3 41.7 7.2 41.7 6.2C41.7 5.1 41.3 3.50001 39.5 2.10001C38.2 1.20001 36.6 0.699997 34.8 0.699997C33.1 0.699997 31.7 1.09999 30.5 1.89999C29.5 2.59999 28.4 3.60001 27.2 5.10001L21.9 11.3L16.4 5C15.2 3.6 14.1 2.59999 13.1 1.89999C11.9 1.09999 10.5 0.600006 8.8 0.600006C6.9 0.600006 5.3 1.1 4 2C2.2 3.4 1.89999 4.9 1.89999 6C1.89999 7.7 2.8 9.60001 4.7 11.6L12.2 20.1L3.5 30.5C1.7 32.7 0.800003 34.4 0.800003 35.9C0.800003 37 1.20001 38.6 3.10001 40C4.40001 41 6 41.5 7.8 41.5C9.5 41.5 10.9 41.1 12 40.3C12.9 39.6 14 38.6 15.3 37.1L21.8 29.3L28.1 37.1C29.3 38.6 30.4 39.6 31.4 40.3C32.6 41.1 34 41.6 35.7 41.6C37.5 41.6 39.1 41.1 40.4 40.2C42.3 38.8 42.7 37.2 42.7 36.1C42.7 34.6 41.8 33 39.9 30.7L31.3 20.3Z" fill="#F7913C"/>
<path d="M40 30.7L31.3 20.3L38.8 11.8C39.7 10.8 40.3 10 40.8 9.2C41.4 8.3 41.7 7.2 41.7 6.2C41.7 5.1 41.3 3.50001 39.5 2.10001C38.2 1.20001 36.6 0.699997 34.8 0.699997C34.6 0.699997 34.4 0.699997 34.3 0.699997C34.7 0.899997 35.1 1.2 35.5 1.5C36.9 2.9 37.9 5.2 37 7.2C35.8 9.9 33.7 12.1 31.5 14.1C29.8 15.7 28.3 17.4 26.6 19C29.5 22.8 32.9 26.3 35.9 30.1C38 32.8 40.3 35.4 38.6 38.8C37.7 40.6 36.3 41.3 34.7 41.4C35.1 41.5 35.5 41.5 35.9 41.5C37.7 41.5 39.3 41 40.6 40.1C42.5 38.7 42.9 37.1 42.9 36C42.8 34.7 41.9 33 40 30.7Z" fill="#F7913C"/>
<path d="M21.6 29.6C21.8 29.2 23.2 24.7 22.1 25.4C20.7 26.3 19.5 27.5 18.4 28.7C15.2 32.2 12 36.7 8.10001 39.4C7.00001 40.2 5.39999 40.7 3.89999 40.7C4.99999 41.3 6.3 41.6 7.7 41.6C9.4 41.6 10.8 41.2 11.9 40.4C12.8 39.7 13.9 38.7 15.2 37.2L21.4 29.7C21.6 29.7 21.6 29.6 21.6 29.6Z" fill="#F7913C"/>
<path d="M4.89999 2.10001C7.69999 1.40001 10.7 3.6 12.4 5.5C14.4 7.7 16.2 10 18.1 12.2C20.4 14.8 21.3 13.3 21.7 11.3L16.3 5.10001C15.1 3.70001 14 2.7 13 2C11.8 1.2 10.4 0.699997 8.7 0.699997C6.8 0.699997 5.19999 1.20001 3.89999 2.10001C3.69999 2.30001 3.5 2.40001 3.3 2.60001C3.9 2.40001 4.39999 2.20001 4.89999 2.10001Z" fill="#F7913C"/>
<path d="M13 16.8C12.2 15 10.4 13.3 9.19999 11.8C7.29999 9.4 4.7 7.89999 5.5 4.39999C5.6 4.09999 5.2 4.2 5.1 4.3C3.9 6.4 4 7.9 5.5 9.8C6.5 11 7.69999 12.1 8.69999 13.3C9.89999 14.6 11 16.1 12.4 17.2C12.7 17.5 13.2 17.1 13 16.8Z" fill="white"/>
<path d="M31.8 3.5C29.9 3.9 29 4.89999 27.8 6.39999C26.9 7.39999 26 8.3 25.1 9.2C24.5 9.8 23.9 10.4 23.5 11.2C23.3 11.7 24 11.7 24.2 11.4C25.3 9.89999 26.7 8.69999 28 7.39999C29.2 5.99999 30.3 4.7 31.9 3.7C31.9 3.7 31.9 3.5 31.8 3.5Z" fill="white"/>
<path d="M12 23.6C10.1 26.1 7.8 28.2 5.8 30.6C4.3 32.4 2.8 34.4 3.5 36.8C3.7 37.3 4.39999 36.7 4.39999 36.4C4.29999 33.4 6.5 31.3 8.2 29.1C9.6 27.3 11 25.6 12.2 23.7C12.2 23.5 12 23.5 12 23.6Z" fill="white"/>
<path d="M30.4 36.3C29.8 35.4 29 34.6 28.2 33.7C27.3 32.7 26.4 31.7 25.6 30.6C25.5 30.4 25.2 30.7 25.3 30.9C26.6 32.9 28.1 35.2 30 36.6C30.2 36.7 30.6 36.5 30.4 36.3Z" fill="white"/>
</svg>
