<svg width="48" height="47" viewBox="0 0 48 47" fill="none" xmlns="http://www.w3.org/2000/svg">
<path d="M45.5 16H31.4V2.10001C31.4 1.00001 30.5 0.100006 29.4 0.100006H18.6C17.5 0.100006 16.6 1.00001 16.6 2.10001V16H2.60002C1.50002 16 0.600021 16.9 0.600021 18V28.9C0.600021 30 1.50002 30.9 2.60002 30.9H16.6V44.7C16.6 45.8 17.5 46.7 18.6 46.7H29.4C30.5 46.7 31.4 45.8 31.4 44.7V30.9H45.5C46.6 30.9 47.5 30 47.5 28.9V18C47.6 16.9 46.7 16 45.5 16Z" fill="#EC2427"/>
<path d="M16.8 29.9C17.3 29.4 17.5 29 18.1 28.6C19.4 27.7 17.3 28 16.8 28.1C13.3 28.4 9.60002 28.1 6.10002 28.1C3.60002 28.1 1.70002 27.5 0.500015 26.3V28.9C0.500015 30 1.40002 30.9 2.50002 30.9H16.2C16.4 30.6 16.6 30.2 16.8 29.9Z" fill="#993236"/>
<path d="M45.5 16H31.4V2.10001C31.4 1.00001 30.5 0.100006 29.4 0.100006H18.6C17.5 0.100006 16.6 1.00001 16.6 2.10001V2.79999C16.8 2.69999 17.1 2.5 17.3 2.5C20.1 1.9 23.2 2.4 26.1 2.5C28.1 2.5 29.3 3.60001 29.5 5.60001C29.9 9.80001 29.5 14 29.3 18.3C34.2 19 44.5 16.6 45 24.1C45.1 26.2 44.1 27.7 42.5 28.3C38.3 29.7 33.3 28.8 28.8 28.5C29.2 30.4 29.4 32.2 29.5 34C29.6 36.5 30 41.9 28.7 44.3C27.9 45.7 26.6 46.4 25.2 46.8H29.6C30.7 46.8 31.6 45.9 31.6 44.8V31H45.7C46.8 31 47.7 30.1 47.7 29V18C47.6 16.9 46.7 16 45.5 16Z" fill="#993236"/>
<path d="M19.4 13.1C19.4 10.1 19.1 7.00001 19.2 4.10001C19.2 3.90001 19 3.90001 18.9 4.10001C17.9 5.90001 18.2 7.79999 18.2 9.79999C18.2 11 18.2 12.3 18.2 13.5C18.2 14.7 18.5 16 18 17.1C17.8 17.6 18.4 17.7 18.7 17.4C19.9 16.4 19.4 14.4 19.4 13.1Z" fill="white"/>
<path d="M18.8 30.6C18.7 30.3 18.4 30.5 18.4 30.7C18.2 33.6 17.6 37.2 18.3 40.1C18.4 40.4 18.7 40.2 18.8 40C19.4 37.3 19.3 33.4 18.8 30.6Z" fill="white"/>
<path d="M6.20003 18.1C5.30003 17.6 3.7 17.7 2.8 18.2C2.3 18.5 2.20003 19.1 2.20003 19.6C2.20003 20.1 2.20001 20.8 2.40001 21.3C2.40001 21.4 2.50002 21.4 2.60002 21.4C2.70002 21.4 2.7 21.4 2.8 21.2C3 20.6 2.80001 19.2 3.40001 18.9C3.70001 18.8 4.20002 18.8 4.60002 18.8C5.10002 18.7 5.60002 18.8 6.10002 18.6C6.20002 18.5 6.40003 18.2 6.20003 18.1Z" fill="white"/>
</svg>
