<svg width="58" height="80" viewBox="0 0 58 80" fill="none" xmlns="http://www.w3.org/2000/svg">
<path d="M53.6859 1.86046C51.6745 0.695975 48.6045 0.166687 44.2641 0.166687H5.30662C4.98903 0.27255 4.56558 0.378399 4.24799 0.484262C3.82454 0.695988 3.29524 0.9077 2.87179 1.33115C2.44834 1.64874 2.13075 1.96633 1.81316 2.38978C-0.0923673 4.61289 -0.515805 8.00049 1.49559 10.6471C4.67147 14.7757 10.4939 14.6699 15.1518 14.7757C20.0215 14.8816 24.9971 14.7757 29.8668 14.7757C30.2902 14.7757 33.1485 15.1992 33.4661 14.7757C28.8082 19.7513 24.6795 24.8327 21.186 29.9141C17.2691 35.6307 13.9874 41.2414 11.3408 46.6404C8.69424 52.0394 6.78868 56.8032 5.62419 60.6143C4.4597 64.5312 3.82458 67.7071 3.82458 70.0361C3.82458 73.212 4.77732 75.7527 6.57698 77.4465C8.37665 79.1403 10.7056 79.9871 13.5639 79.9871C16.5281 79.9871 18.9629 79.2461 20.8684 77.6582C22.6681 76.0703 24.0444 73.5295 24.9971 69.6126C25.4206 68.0247 25.844 65.8016 26.3733 62.8374C26.9026 59.9791 27.3261 57.5442 27.7495 55.8504C28.173 54.0508 28.914 51.8277 29.8668 49.0753C32.3016 42.9352 34.9482 37.642 37.8065 33.4075C40.6648 29.173 43.5231 25.5737 46.1697 22.6096C48.9221 19.7513 51.3569 16.9988 53.58 14.564C55.909 11.9174 57.0735 9.80015 57.0735 8.00049C56.9676 5.1422 55.909 3.13082 53.6859 1.86046Z" fill="#FFC633"/>
<path d="M53.686 1.86046C52.5215 1.22529 51.0394 0.801849 49.2397 0.484261C50.1925 1.2253 50.9336 2.17805 51.2512 3.4484C52.2039 7.25946 50.8277 11.0706 48.3928 14.1406C43.8408 20.0689 38.4417 24.9385 34.419 31.2903C30.2903 37.5362 26.691 44.2055 24.6796 51.4042C22.3506 59.9791 20.9744 76.3878 9.64712 77.8699C8.5885 77.9757 7.63572 77.9758 6.78882 77.764C8.48262 79.1402 10.7058 79.9871 13.3523 79.9871C16.3165 79.9871 18.7513 79.2461 20.6568 77.6582C22.4565 76.0703 23.8327 73.5295 24.7855 69.6126C25.2089 68.0247 25.6324 65.8016 26.1617 62.8374C26.691 59.9791 27.1144 57.5442 27.5379 55.8504C27.9613 54.0508 28.7024 51.8277 29.6551 49.0753C32.09 42.9352 34.7365 37.642 37.5948 33.4075C40.4531 29.173 43.3115 25.5737 45.958 22.6096C48.7104 19.7513 51.1453 16.9988 53.3684 14.564C55.6974 11.9174 56.8619 9.80015 56.8619 8.00049C56.9677 5.14219 55.9091 3.13082 53.686 1.86046Z" fill="#FFB905"/>
<path d="M29.6551 14.6699C30.0785 14.6699 32.9369 15.0933 33.2544 14.6699C33.0427 14.8816 32.9369 15.0933 32.7251 15.1992C33.6779 14.6699 33.4661 14.0347 34.4189 13.5054C34.9482 11.2822 39.0769 10.8588 33.7838 10.8588C33.1486 10.8588 32.4075 10.8588 31.7723 10.753C29.6551 10.6471 27.5378 10.5412 25.4206 10.5412C20.9743 10.4354 16.5281 10.1178 12.1877 10.2236C8.69427 10.3295 1.28391 10.5412 0.966317 5.24808C0.966317 4.40118 0.96633 3.66013 1.17806 2.91909C-0.304022 5.14221 -0.515774 8.1064 1.28389 10.4354C4.45977 14.564 10.2822 14.4581 14.9402 14.564C19.9158 14.6698 24.7854 14.6699 29.6551 14.6699Z" fill="#FFB905"/>
<path d="M30.6079 23.1389C23.621 29.1731 18.6454 36.5835 14.4109 44.629C10.5999 51.8277 6.15363 61.1436 6.78881 69.5068C6.89467 70.6712 8.37676 69.8243 8.58848 69.0833C11.2351 51.4042 20.3392 37.3245 30.9255 23.4565C31.1372 23.1389 30.8196 22.9272 30.6079 23.1389Z" fill="white"/>
<path d="M39.2887 2.60152C31.6666 2.17807 24.0445 2.17808 16.3165 2.28394C11.1292 2.3898 6.78884 1.11944 3.1895 5.24808C2.97778 5.45981 3.18952 5.67155 3.40124 5.45982C7.31816 1.75463 14.411 3.55427 19.4924 3.44841C25.95 3.23668 32.4076 3.76598 38.8652 3.76598C39.5004 3.87184 40.0298 2.70738 39.2887 2.60152Z" fill="white"/>
</svg>
