<svg width="31" height="43" viewBox="0 0 31 43" fill="none" xmlns="http://www.w3.org/2000/svg">
<path d="M22.4 15.5H8.89999C6.29999 15.5 4.29999 16.1 2.99999 17.2C1.59999 18.3 0.899994 19.8 0.899994 21.6C0.899994 23.4 1.59999 24.8 3.09999 26C4.49999 27.1 6.49999 27.7 8.99999 27.7H22.5C25.1 27.7 27.1 27.1 28.5 26C29.9 24.9 30.6 23.4 30.6 21.7C30.6 19.9 29.9 18.5 28.5 17.3C26.9 16.1 24.9 15.5 22.4 15.5Z" fill="#25B8EB"/>
<path d="M28.3 17.2C26.9 16.1 24.9 15.5 22.4 15.5H19C21.5 15.5 23.4 16 24.8 16.9C26.2 17.9 26.9 19.1 26.9 20.6C26.9 22.1 26.2 23.3 24.9 24.3C23.6 25.2 21.6 25.7 19.1 25.7H5.89999C4.59999 25.7 3.39999 25.5 2.39999 25.3C2.59999 25.5 2.79999 25.7 3.09999 25.9C4.49999 27 6.49999 27.6 8.99999 27.6H22.5C25.1 27.6 27.1 27 28.5 25.9C29.9 24.8 30.6 23.3 30.6 21.6C30.4 19.8 29.7 18.3 28.3 17.2Z" fill="#25B8EB"/>
<path d="M15.6 17.2C12.1 16.9 0.29999 16.6 2.99999 22.4C3.09999 22.6 3.39999 22.4 3.39999 22.3C3.39999 19.4 5.69999 18.3 8.79999 18.2C11.1 18.1 13.2 18 15.5 17.8C15.7 17.6 16 17.2 15.6 17.2Z" fill="white"/>
<path d="M18.6 17.3C18.3 17.2 18 17.2 17.6 17.2C17.4 17.2 17.2 17.4 17.4 17.5C17.7 17.6 18 17.7 18.3 17.8C18.6 17.8 18.9 17.4 18.6 17.3Z" fill="white"/>
<path d="M20.8 2.20001C19.5 1.10001 17.8 0.5 15.8 0.5H15.7C13.8 0.5 12.1 1 10.8 2C9.3 3.1 8.5 4.59999 8.5 6.39999C8.5 8.29999 9.3 9.9 10.8 11C12.2 12 13.8 12.5 15.7 12.5H15.8C17.6 12.5 19.1 12 20.5 11.1C22.1 10 22.9 8.50001 22.9 6.60001C23 4.90001 22.2 3.40001 20.8 2.20001Z" fill="#D5DA25"/>
<path d="M20.8 2.20001C19.5 1.10001 17.8 0.5 15.8 0.5H15.7C13.8 0.5 12.1 1 10.8 2C9.3 3.1 8.5 4.59999 8.5 6.39999C8.5 8.29999 9.3 9.9 10.8 11C12.2 12 13.8 12.5 15.7 12.5H15.8C17.6 12.5 19.1 12 20.5 11.1C22.1 10 22.9 8.50001 22.9 6.60001C23 4.90001 22.2 3.40001 20.8 2.20001Z" fill="#D5DA25"/>
<path d="M20.8 2.20001C19.5 1.10001 17.8 0.5 15.8 0.5H15.7C13.8 0.5 12.1 1 10.8 2C9.3 3.1 8.5 4.59999 8.5 6.39999C8.5 8.29999 9.3 9.9 10.8 11C12.2 12 13.8 12.5 15.7 12.5H15.8C17.6 12.5 19.1 12 20.5 11.1C22.1 10 22.9 8.50001 22.9 6.60001C23 4.90001 22.2 3.40001 20.8 2.20001ZM17.8 9.60001C16.9 10.2 15.9 10.5 14.7 10.5H14.6C13.4 10.5 12.3 10.1 11.4 9.5C10.4 8.8 9.8 7.7 9.9 6.5C9.9 5.4 10.4 4.40001 11.4 3.60001C12.3 2.90001 13.4 2.60001 14.6 2.60001H14.7C16 2.60001 17.1 3.00001 18 3.70001C18.9 4.50001 19.4 5.50001 19.4 6.60001C19.4 7.80001 18.9 8.90001 17.8 9.60001Z" fill="#D5DA25"/>
<path d="M13.6 3.70001C12.6 3.80001 11.4 4.39999 11 5.39999C10.7 6.09999 10.3 7.3 10.9 8C11.5 8.6 12.6 7.49999 12 6.89999C11.8 6.69999 12.1 5.80001 12.1 5.60001C12.2 5.00001 13 4.50001 13.5 4.10001C13.7 3.90001 13.8 3.70001 13.6 3.70001Z" fill="white"/>
<path d="M20.8 32.2C19.5 31.1 17.8 30.5 15.8 30.5H15.7C13.8 30.5 12.1 31 10.8 32C9.3 33.1 8.5 34.6 8.5 36.4C8.5 38.3 9.3 39.9 10.8 41C12.2 42 13.8 42.5 15.7 42.5H15.8C17.6 42.5 19.1 42 20.5 41.1C22.1 40 22.9 38.5 22.9 36.6C23 34.9 22.2 33.4 20.8 32.2Z" fill="#D5DA25"/>
<path d="M20.8 32.2C19.5 31.1 17.8 30.5 15.8 30.5H15.7C13.8 30.5 12.1 31 10.8 32C9.3 33.1 8.5 34.6 8.5 36.4C8.5 38.3 9.3 39.9 10.8 41C12.2 42 13.8 42.5 15.7 42.5H15.8C17.6 42.5 19.1 42 20.5 41.1C22.1 40 22.9 38.5 22.9 36.6C23 34.9 22.2 33.4 20.8 32.2Z" fill="#D5DA25"/>
<path d="M20.8 32.2C19.5 31.1 17.8 30.5 15.8 30.5H15.7C13.8 30.5 12.1 31 10.8 32C9.3 33.1 8.5 34.6 8.5 36.4C8.5 38.3 9.3 39.9 10.8 41C12.2 42 13.8 42.5 15.7 42.5H15.8C17.6 42.5 19.1 42 20.5 41.1C22.1 40 22.9 38.5 22.9 36.6C23 34.9 22.2 33.4 20.8 32.2ZM17.8 39.6C16.9 40.2 15.9 40.5 14.7 40.5H14.6C13.4 40.5 12.3 40.1 11.4 39.5C10.4 38.8 9.8 37.7 9.9 36.5C9.9 35.4 10.4 34.4 11.4 33.6C12.3 32.9 13.4 32.6 14.6 32.6H14.7C16 32.6 17.1 33 18 33.7C18.9 34.5 19.4 35.5 19.4 36.6C19.4 37.9 18.9 38.9 17.8 39.6Z" fill="#D5DA25"/>
<path d="M13.6 33.7C12.6 33.8 11.4 34.4 11 35.4C10.7 36.1 10.3 37.3 10.9 38C11.5 38.6 12.6 37.5 12 36.9C11.8 36.7 12.1 35.8 12.1 35.6C12.2 35 13 34.5 13.5 34.1C13.7 34 13.8 33.7 13.6 33.7Z" fill="white"/>
</svg>
