<svg width="81" height="79" viewBox="0 0 81 79" fill="none" xmlns="http://www.w3.org/2000/svg">
<path d="M80.6 39.3C80.6 42 71.7 43.7 71.1 46.3C70.5 48.9 77.7 54.3 76.6 56.7C75.4 59.1 66.7 56.8 65 58.9C63.3 61 67.5 69 65.4 70.7C63.3 72.4 56.5 66.5 54 67.7C51.6 68.8 51.9 77.9 49.3 78.5C46.7 79.1 43.1 70.8 40.4 70.8C37.7 70.8 34 79.1 31.5 78.5C28.9 77.9 29.2 68.9 26.8 67.7C24.4 66.5 17.5 72.4 15.4 70.7C13.3 69 17.5 61 15.8 58.9C14.1 56.8 5.4 59.1 4.2 56.7C3.1 54.3 10.3 48.9 9.7 46.3C9.1 43.7 0.199997 42 0.199997 39.3C0.199997 36.6 9.1 34.9 9.7 32.3C10.3 29.7 3.1 24.3 4.2 21.9C5.4 19.5 14.1 21.8 15.8 19.7C17.5 17.6 13.3 9.6 15.4 7.9C17.5 6.2 24.3 12.1 26.8 10.9C29.2 9.8 28.9 0.7 31.5 0.1C34.1 -0.5 37.7 7.8 40.4 7.8C43.1 7.8 46.8 -0.5 49.3 0.1C51.9 0.7 51.6 9.7 54 10.9C56.4 12.1 63.3 6.2 65.4 7.9C67.5 9.6 63.3 17.6 65 19.7C66.7 21.8 75.4 19.5 76.6 21.9C77.8 24.3 70.5 29.7 71.1 32.3C71.7 34.8 80.6 36.5 80.6 39.3Z" fill="#FCDD5B"/>
<path d="M67.4 39.3C67.4 54.1 55.4 66.2 40.5 66.2C25.7 66.2 13.6 54.2 13.6 39.3C13.6 24.5 25.6 12.4 40.5 12.4C55.4 12.4 67.4 24.4 67.4 39.3Z" fill="#FFD336"/>
<path d="M40.1 17.4C39.5 17.8 39 18.4 38.5 18.9C37.3 22.9 40.3 28.5 44.3 30.6C48.4 32.7 54.3 34.2 59.5 33.6C59.6 33.4 59.7 33.1 59.8 32.9C59.9 32.7 59.9 32.6 59.9 32.4V32.3C59.9 23.4 52.7 16.2 43.8 16.2C43.2 16.2 42.6 16.2 42.1 16.3C41.4 16.5 40.7 16.9 40.1 17.4Z" fill="#FCDD5B"/>
<path d="M63.9 47.7C58.7 53.7 50.9 56.1 43.1 54.6C34.7 53 28.2 47 26.6 38.5C25.2 31.3 26.3 21.9 31.5 16.2C32.8 14.8 34.2 13.7 35.8 12.8C23.3 15.1 13.8 26.1 13.8 39.2C13.8 54 25.8 66.1 40.7 66.1C54.6 66.1 66 55.6 67.4 42.1C66.5 44.2 65.3 46 63.9 47.7Z" fill="#FFD336"/>
<path d="M32.8 44.4C32.8 45.5 31.3 46.3 29.3 46.3C27.4 46.3 25.8 45.4 25.8 44.4C25.8 43.3 27.3 42.5 29.3 42.5C31.3 42.5 32.8 43.3 32.8 44.4Z" fill="#F37F8B"/>
<path d="M55.5 44.4C55.5 45.5 54 46.3 52 46.3C50.1 46.3 48.5 45.4 48.5 44.4C48.5 43.3 50 42.5 52 42.5C53.9 42.5 55.5 43.3 55.5 44.4Z" fill="#F37F8B"/>
<path d="M40.4 44.7C40.4 44.7 37.6 44.7 36.9 46.8L37.3 50.5C37.3 50.5 37.7 53.1 40.4 53.2C43.1 53 43.5 50.4 43.5 50.4L43.9 46.7C43.3 44.7 40.4 44.7 40.4 44.7Z" fill="#5C0027"/>
<path d="M43.5 50.6C43.2 49.8 42.4 49.2 41.5 49.2C40.3 49.2 39.4 50.2 39.4 51.3C39.4 52.2 39.9 52.9 40.7 53.2C42.8 53 43.4 51 43.5 50.6Z" fill="#F37F8B"/>
<path d="M34.9 38.3C34.9 40.9 32.8 43 30.3 43C27.7 43 25.6 40.9 25.6 38.4C25.6 35.8 27.7 33.7 30.2 33.7C32.8 33.6 34.9 35.7 34.9 38.3Z" fill="#D1D3D4"/>
<path d="M34.2 38.3C34.2 40.5 32.5 42.2 30.3 42.3C28.1 42.3 26.4 40.6 26.3 38.4C26.3 36.2 28 34.5 30.2 34.4C32.4 34.3 34.2 36.1 34.2 38.3Z" fill="#5C0027"/>
<path d="M30.9 38.3C30.9 39.1 30.3 39.7 29.5 39.7C28.7 39.7 28.1 39.1 28.1 38.3C28.1 37.5 28.7 36.9 29.5 36.9C30.3 36.8 30.9 37.5 30.9 38.3Z" fill="white"/>
<path d="M32.3 37.2C32.3 37.6 32 37.9 31.6 37.9C31.2 37.9 30.9 37.6 30.9 37.2C30.9 36.8 31.2 36.5 31.6 36.5C32 36.4 32.3 36.8 32.3 37.2Z" fill="white"/>
<path d="M45.8 38.2C45.8 40.8 47.9 42.8 50.5 42.8C53.1 42.8 55.1 40.7 55.1 38.1C55.1 35.5 53 33.5 50.4 33.5C47.9 33.5 45.8 35.6 45.8 38.2Z" fill="#D1D3D4"/>
<path d="M46.6 38.2C46.6 40.4 48.4 42.1 50.6 42.1C52.8 42.1 54.5 40.3 54.5 38.1C54.5 35.9 52.7 34.2 50.5 34.2C48.3 34.2 46.5 36 46.6 38.2Z" fill="#5C0027"/>
<path d="M49.8 38.2C49.8 39 50.5 39.6 51.2 39.6C52 39.6 52.6 38.9 52.6 38.2C52.6 37.4 51.9 36.8 51.2 36.8C50.4 36.7 49.8 37.4 49.8 38.2Z" fill="white"/>
<path d="M48.4 37.1C48.4 37.5 48.7 37.8 49.1 37.8C49.5 37.8 49.8 37.5 49.8 37.1C49.8 36.7 49.5 36.4 49.1 36.4C48.7 36.3 48.4 36.7 48.4 37.1Z" fill="white"/>
</svg>
